<?xml version="1.0" encoding="UTF-8" standalone="no"?><svg xmlns="http://www.w3.org/2000/svg" xmlns:xlink="http://www.w3.org/1999/xlink" clip-rule="evenodd" stroke-miterlimit="4.00" viewBox="0 0 1024 768"><desc>SVG generated by Keynote</desc><defs></defs><g transform="matrix(1.00, 0.00, -0.00, -1.00, 0.0, 768.0)"><path d="M 0.0 768.0 L 1024.0 768.0 L 1024.0 0.0 L 0.0 0.0 Z M 0.0 768.0 " fill="#212121"></path><text xml:space="preserve" font-family="AvenirNext-Medium" font-size="36.0" fill="#FEFFFE" transform="matrix(1.00, 0.00, -0.00, -1.00, 403.0, 432.0)">G</text><text xml:space="preserve" font-family="AvenirNext-Medium" font-size="36.0" fill="#FEFFFE" transform="matrix(1.00, 0.00, -0.00, -1.00, 431.0, 432.0)">u</text><text xml:space="preserve" font-family="AvenirNext-Medium" font-size="36.0" fill="#FEFFFE" transform="matrix(1.00, 0.00, -0.00, -1.00, 452.0, 432.0)">s</text><text xml:space="preserve" font-family="AvenirNext-Medium" font-size="36.0" fill="#FEFFFE" transform="matrix(1.00, 0.00, -0.00, -1.00, 467.9, 432.0)">t</text><text xml:space="preserve" font-family="AvenirNext-Medium" font-size="36.0" fill="#FEFFFE" transform="matrix(1.00, 0.00, -0.00, -1.00, 479.8, 432.0)">a</text><text xml:space="preserve" font-family="AvenirNext-Medium" font-size="36.0" fill="#FEFFFE" transform="matrix(1.00, 0.00, -0.00, -1.00, 499.3, 432.0)">v</text><text xml:space="preserve" font-family="AvenirNext-Medium" font-size="36.0" fill="#FEFFFE" transform="matrix(1.00, 0.00, -0.00, -1.00, 517.4, 432.0)">o</text><text xml:space="preserve" font-family="AvenirNext-Medium" font-size="36.0" fill="#FEFFFE" transform="matrix(1.00, 0.00, -0.00, -1.00, 539.4, 432.0)"> </text><text xml:space="preserve" font-family="AvenirNext-Medium" font-size="36.0" fill="#FEFFFE" transform="matrix(1.00, 0.00, -0.00, -1.00, 547.5, 432.0)">T</text><text xml:space="preserve" font-family="AvenirNext-Medium" font-size="36.0" fill="#FEFFFE" transform="matrix(1.00, 0.00, -0.00, -1.00, 564.6, 432.0)">o</text><text xml:space="preserve" font-family="AvenirNext-Medium" font-size="36.0" fill="#FEFFFE" transform="matrix(1.00, 0.00, -0.00, -1.00, 586.5, 432.0)">r</text><text xml:space="preserve" font-family="AvenirNext-Medium" font-size="36.0" fill="#FEFFFE" transform="matrix(1.00, 0.00, -0.00, -1.00, 598.9, 432.0)">o</text><text xml:space="preserve" font-family="AvenirNext-Medium" font-size="36.0" fill="#FEFFFE" transform="matrix(1.00, 0.00, -0.00, -1.00, 620.9, 432.0)"> </text><text xml:space="preserve" font-family="AvenirNext-Medium" font-size="36.0" fill="#FEFFFE" transform="matrix(1.00, 0.00, -0.00, -1.00, 246.0, 377.0)">F</text><text xml:space="preserve" font-family="AvenirNext-Medium" font-size="36.0" fill="#FEFFFE" transform="matrix(1.00, 0.00, -0.00, -1.00, 264.9, 377.0)">u</text><text xml:space="preserve" font-family="AvenirNext-Medium" font-size="36.0" fill="#FEFFFE" transform="matrix(1.00, 0.00, -0.00, -1.00, 285.9, 377.0)">l</text><text xml:space="preserve" font-family="AvenirNext-Medium" font-size="36.0" fill="#FEFFFE" transform="matrix(1.00, 0.00, -0.00, -1.00, 295.2, 377.0)">l</text><text xml:space="preserve" font-family="AvenirNext-Medium" font-size="36.0" fill="#FEFFFE" transform="matrix(1.00, 0.00, -0.00, -1.00, 304.6, 377.0)">s</text><text xml:space="preserve" font-family="AvenirNext-Medium" font-size="36.0" fill="#FEFFFE" transform="matrix(1.00, 0.00, -0.00, -1.00, 320.6, 377.0)">t</text><text xml:space="preserve" font-family="AvenirNext-Medium" font-size="36.0" fill="#FEFFFE" transform="matrix(1.00, 0.00, -0.00, -1.00, 332.4, 377.0)">a</text><text xml:space="preserve" font-family="AvenirNext-Medium" font-size="36.0" fill="#FEFFFE" transform="matrix(1.00, 0.00, -0.00, -1.00, 351.9, 377.0)">c</text><text xml:space="preserve" font-family="AvenirNext-Medium" font-size="36.0" fill="#FEFFFE" transform="matrix(1.00, 0.00, -0.00, -1.00, 369.7, 377.0)">k</text><text xml:space="preserve" font-family="AvenirNext-Medium" font-size="36.0" fill="#FEFFFE" transform="matrix(1.00, 0.00, -0.00, -1.00, 388.7, 377.0)"> </text><text xml:space="preserve" font-family="AvenirNext-Medium" font-size="36.0" fill="#FEFFFE" transform="matrix(1.00, 0.00, -0.00, -1.00, 397.7, 377.0)">d</text><text xml:space="preserve" font-family="AvenirNext-Medium" font-size="36.0" fill="#FEFFFE" transform="matrix(1.00, 0.00, -0.00, -1.00, 420.6, 377.0)">e</text><text xml:space="preserve" font-family="AvenirNext-Medium" font-size="36.0" fill="#FEFFFE" transform="matrix(1.00, 0.00, -0.00, -1.00, 441.2, 377.0)">v</text><text xml:space="preserve" font-family="AvenirNext-Medium" font-size="36.0" fill="#FEFFFE" transform="matrix(1.00, 0.00, -0.00, -1.00, 459.3, 377.0)">e</text><text xml:space="preserve" font-family="AvenirNext-Medium" font-size="36.0" fill="#FEFFFE" transform="matrix(1.00, 0.00, -0.00, -1.00, 480.0, 377.0)">l</text><text xml:space="preserve" font-family="AvenirNext-Medium" font-size="36.0" fill="#FEFFFE" transform="matrix(1.00, 0.00, -0.00, -1.00, 489.3, 377.0)">o</text><text xml:space="preserve" font-family="AvenirNext-Medium" font-size="36.0" fill="#FEFFFE" transform="matrix(1.00, 0.00, -0.00, -1.00, 511.3, 377.0)">p</text><text xml:space="preserve" font-family="AvenirNext-Medium" font-size="36.0" fill="#FEFFFE" transform="matrix(1.00, 0.00, -0.00, -1.00, 534.1, 377.0)">e</text><text xml:space="preserve" font-family="AvenirNext-Medium" font-size="36.0" fill="#FEFFFE" transform="matrix(1.00, 0.00, -0.00, -1.00, 554.7, 377.0)">r</text><text xml:space="preserve" font-family="AvenirNext-Medium" font-size="36.0" fill="#FEFFFE" transform="matrix(1.00, 0.00, -0.00, -1.00, 567.8, 377.0)"> </text><text xml:space="preserve" font-family="AvenirNext-Medium" font-size="36.0" fill="#FEFFFE" transform="matrix(1.00, 0.00, -0.00, -1.00, 576.8, 377.0)">|</text><text xml:space="preserve" font-family="AvenirNext-Medium" font-size="36.0" fill="#FEFFFE" transform="matrix(1.00, 0.00, -0.00, -1.00, 584.8, 377.0)"> </text><text xml:space="preserve" font-family="AvenirNext-Medium" font-size="36.0" fill="#FEFFFE" transform="matrix(1.00, 0.00, -0.00, -1.00, 593.8, 377.0)">K</text><text xml:space="preserve" font-family="AvenirNext-Medium" font-size="36.0" fill="#FEFFFE" transform="matrix(1.00, 0.00, -0.00, -1.00, 617.5, 377.0)">n</text><text xml:space="preserve" font-family="AvenirNext-Medium" font-size="36.0" fill="#FEFFFE" transform="matrix(1.00, 0.00, -0.00, -1.00, 638.4, 377.0)">o</text><text xml:space="preserve" font-family="AvenirNext-Medium" font-size="36.0" fill="#FEFFFE" transform="matrix(1.00, 0.00, -0.00, -1.00, 660.4, 377.0)">m</text><text xml:space="preserve" font-family="AvenirNext-Medium" font-size="36.0" fill="#FEFFFE" transform="matrix(1.00, 0.00, -0.00, -1.00, 692.3, 377.0)">e</text><text xml:space="preserve" font-family="AvenirNext-Medium" font-size="36.0" fill="#FEFFFE" transform="matrix(1.00, 0.00, -0.00, -1.00, 713.0, 377.0)"> </text><text xml:space="preserve" font-family="AvenirNext-Medium" font-size="36.0" fill="#FEFFFE" transform="matrix(1.00, 0.00, -0.00, -1.00, 722.0, 377.0)">I</text><text xml:space="preserve" font-family="AvenirNext-Medium" font-size="36.0" fill="#FEFFFE" transform="matrix(1.00, 0.00, -0.00, -1.00, 731.7, 377.0)">n</text><text xml:space="preserve" font-family="AvenirNext-Medium" font-size="36.0" fill="#FEFFFE" transform="matrix(1.00, 0.00, -0.00, -1.00, 752.7, 377.0)">c</text><text xml:space="preserve" font-family="AvenirNext-Medium" font-size="36.0" fill="#FEFFFE" transform="matrix(1.00, 0.00, -0.00, -1.00, 770.4, 377.0)">.</text><text xml:space="preserve" font-family="AvenirNext-Medium" font-size="36.0" fill="#FEFFFE" transform="matrix(1.00, 0.00, -0.00, -1.00, 778.7, 377.0)"> </text><text xml:space="preserve" font-family="AvenirNext-Medium" font-size="36.0" fill="#34A4DA" transform="matrix(1.00, 0.00, -0.00, -1.00, 344.0, 322.0)">g</text><text xml:space="preserve" font-family="AvenirNext-Medium" font-size="36.0" fill="#34A4DA" transform="matrix(1.00, 0.00, -0.00, -1.00, 366.8, 322.0)">t</text><text xml:space="preserve" font-family="AvenirNext-Medium" font-size="36.0" fill="#34A4DA" transform="matrix(1.00, 0.00, -0.00, -1.00, 378.6, 322.0)">o</text><text xml:space="preserve" font-family="AvenirNext-Medium" font-size="36.0" fill="#34A4DA" transform="matrix(1.00, 0.00, -0.00, -1.00, 400.6, 322.0)">r</text><text xml:space="preserve" font-family="AvenirNext-Medium" font-size="36.0" fill="#34A4DA" transform="matrix(1.00, 0.00, -0.00, -1.00, 412.9, 322.0)">o</text><text xml:space="preserve" font-family="AvenirNext-Medium" font-size="36.0" fill="#34A4DA" transform="matrix(1.00, 0.00, -0.00, -1.00, 434.9, 322.0)">a</text><text xml:space="preserve" font-family="AvenirNext-Medium" font-size="36.0" fill="#34A4DA" transform="matrix(1.00, 0.00, -0.00, -1.00, 454.4, 322.0)">p</text><text xml:space="preserve" font-family="AvenirNext-Medium" font-size="36.0" fill="#34A4DA" transform="matrix(1.00, 0.00, -0.00, -1.00, 477.2, 322.0)">@</text><text xml:space="preserve" font-family="AvenirNext-Medium" font-size="36.0" fill="#34A4DA" transform="matrix(1.00, 0.00, -0.00, -1.00, 506.0, 322.0)">g</text><text xml:space="preserve" font-family="AvenirNext-Medium" font-size="36.0" fill="#34A4DA" transform="matrix(1.00, 0.00, -0.00, -1.00, 528.8, 322.0)">m</text><text xml:space="preserve" font-family="AvenirNext-Medium" font-size="36.0" fill="#34A4DA" transform="matrix(1.00, 0.00, -0.00, -1.00, 560.7, 322.0)">a</text><text xml:space="preserve" font-family="AvenirNext-Medium" font-size="36.0" fill="#34A4DA" transform="matrix(1.00, 0.00, -0.00, -1.00, 580.2, 322.0)">i</text><text xml:space="preserve" font-family="AvenirNext-Medium" font-size="36.0" fill="#34A4DA" transform="matrix(1.00, 0.00, -0.00, -1.00, 589.6, 322.0)">l</text><text xml:space="preserve" font-family="AvenirNext-Medium" font-size="36.0" fill="#34A4DA" transform="matrix(1.00, 0.00, -0.00, -1.00, 598.9, 322.0)">.</text><text xml:space="preserve" font-family="AvenirNext-Medium" font-size="36.0" fill="#34A4DA" transform="matrix(1.00, 0.00, -0.00, -1.00, 608.3, 322.0)">c</text><text xml:space="preserve" font-family="AvenirNext-Medium" font-size="36.0" fill="#34A4DA" transform="matrix(1.00, 0.00, -0.00, -1.00, 626.1, 322.0)">o</text><text xml:space="preserve" font-family="AvenirNext-Medium" font-size="36.0" fill="#34A4DA" transform="matrix(1.00, 0.00, -0.00, -1.00, 648.0, 322.0)">m</text><text xml:space="preserve" font-family="AvenirNext-Medium" font-size="36.0" fill="#FEFFFE" transform="matrix(1.00, 0.00, -0.00, -1.00, 680.0, 322.0)"> </text><g><clipPath id="clip-1"><path d="M 343.0 317.6 L 680.0 317.6 L 680.0 321.4 L 343.0 321.4 Z M 343.0 317.6 "></path></clipPath><g clip-path="url(#clip-1)"><path d="M 106.4 151.5 L 442.3 151.5 " fill="none" stroke="#34A4DA" stroke-width="1.80" stroke-miterlimit="0.00" transform="matrix(1.00, 0.00, 0.00, -1.00, 237.6, 471.0)"></path></g></g><text xml:space="preserve" font-family="AvenirNext-Medium" font-size="36.0" fill="#FEFFFE" transform="matrix(1.00, 0.00, -0.00, -1.00, 431.0, 267.0)">@</text><text xml:space="preserve" font-family="AvenirNext-Medium" font-size="36.0" fill="#FEFFFE" transform="matrix(1.00, 0.00, -0.00, -1.00, 459.8, 267.0)">g</text><text xml:space="preserve" font-family="AvenirNext-Medium" font-size="36.0" fill="#FEFFFE" transform="matrix(1.00, 0.00, -0.00, -1.00, 482.6, 267.0)">t</text><text xml:space="preserve" font-family="AvenirNext-Medium" font-size="36.0" fill="#FEFFFE" transform="matrix(1.00, 0.00, -0.00, -1.00, 494.4, 267.0)">o</text><text xml:space="preserve" font-family="AvenirNext-Medium" font-size="36.0" fill="#FEFFFE" transform="matrix(1.00, 0.00, -0.00, -1.00, 516.4, 267.0)">r</text><text xml:space="preserve" font-family="AvenirNext-Medium" font-size="36.0" fill="#FEFFFE" transform="matrix(1.00, 0.00, -0.00, -1.00, 528.7, 267.0)">o</text><text xml:space="preserve" font-family="AvenirNext-Medium" font-size="36.0" fill="#FEFFFE" transform="matrix(1.00, 0.00, -0.00, -1.00, 550.7, 267.0)">a</text><text xml:space="preserve" font-family="AvenirNext-Medium" font-size="36.0" fill="#FEFFFE" transform="matrix(1.00, 0.00, -0.00, -1.00, 570.2, 267.0)">p</text><text xml:space="preserve" font-family="Corbel-Bold" font-weight="bold" font-size="70.4" fill="#34A4DA" transform="matrix(1.00, 0.00, -0.00, -1.00, 8.0, 699.0)">n</text><text xml:space="preserve" font-family="Corbel-Bold" font-weight="bold" font-size="70.4" fill="#34A4DA" transform="matrix(1.00, 0.00, -0.00, -1.00, 47.0, 699.0)">g</text><text xml:space="preserve" font-family="Corbel-Bold" font-weight="bold" font-size="70.4" fill="#34A4DA" transform="matrix(1.00, 0.00, -0.00, -1.00, 85.7, 699.0)">-</text><text xml:space="preserve" font-family="Corbel-Bold" font-weight="bold" font-size="70.4" fill="#34A4DA" transform="matrix(1.00, 0.00, -0.00, -1.00, 109.1, 699.0)">b</text><text xml:space="preserve" font-family="Corbel-Bold" font-weight="bold" font-size="70.4" fill="#34A4DA" transform="matrix(1.00, 0.00, -0.00, -1.00, 148.3, 699.0)">e</text><text xml:space="preserve" font-family="Corbel-Bold" font-weight="bold" font-size="70.4" fill="#34A4DA" transform="matrix(1.00, 0.00, -0.00, -1.00, 184.4, 699.0)">s</text><text xml:space="preserve" font-family="Corbel-Bold" font-weight="bold" font-size="70.4" fill="#34A4DA" transform="matrix(1.00, 0.00, -0.00, -1.00, 214.2, 699.0)">t</text><text xml:space="preserve" font-family="Corbel-Bold" font-weight="bold" font-size="70.4" fill="#34A4DA" transform="matrix(1.00, 0.00, -0.00, -1.00, 239.5, 699.0)">-</text><text xml:space="preserve" font-family="Corbel-Bold" font-weight="bold" font-size="70.4" fill="#34A4DA" transform="matrix(1.00, 0.00, -0.00, -1.00, 262.9, 699.0)">p</text><text xml:space="preserve" font-family="Corbel-Bold" font-weight="bold" font-size="70.4" fill="#34A4DA" transform="matrix(1.00, 0.00, -0.00, -1.00, 301.6, 699.0)">r</text><text xml:space="preserve" font-family="Corbel-Bold" font-weight="bold" font-size="70.4" fill="#34A4DA" transform="matrix(1.00, 0.00, -0.00, -1.00, 326.2, 699.0)">a</text><text xml:space="preserve" font-family="Corbel-Bold" font-weight="bold" font-size="70.4" fill="#34A4DA" transform="matrix(1.00, 0.00, -0.00, -1.00, 362.4, 699.0)">c</text><text xml:space="preserve" font-family="Corbel-Bold" font-weight="bold" font-size="70.4" fill="#34A4DA" transform="matrix(1.00, 0.00, -0.00, -1.00, 393.4, 699.0)">t</text><text xml:space="preserve" font-family="Corbel-Bold" font-weight="bold" font-size="70.4" fill="#34A4DA" transform="matrix(1.00, 0.00, -0.00, -1.00, 420.2, 699.0)">i</text><text xml:space="preserve" font-family="Corbel-Bold" font-weight="bold" font-size="70.4" fill="#34A4DA" transform="matrix(1.00, 0.00, -0.00, -1.00, 437.7, 699.0)">c</text><text xml:space="preserve" font-family="Corbel-Bold" font-weight="bold" font-size="70.4" fill="#34A4DA" transform="matrix(1.00, 0.00, -0.00, -1.00, 468.7, 699.0)">e</text><text xml:space="preserve" font-family="Corbel-Bold" font-weight="bold" font-size="70.4" fill="#34A4DA" transform="matrix(1.00, 0.00, -0.00, -1.00, 504.8, 699.0)">s</text></g></svg>