<?xml version="1.0" encoding="UTF-8" standalone="no"?><svg xmlns="http://www.w3.org/2000/svg" xmlns:xlink="http://www.w3.org/1999/xlink" clip-rule="evenodd" stroke-miterlimit="4.00" viewBox="0 0 203 40"><desc>SVG generated by Keynote</desc><defs></defs><g transform="matrix(1.00, 0.00, -0.00, -1.00, 0.0, 40.0)"><text xml:space="preserve" font-family="AvenirNext-DemiBold" font-weight="bold" font-size="36.0" fill="#F6FEFF" transform="matrix(1.00, 0.00, -0.00, -1.00, 1.0, 10.0)">G</text><text xml:space="preserve" font-family="AvenirNext-DemiBold" font-weight="bold" font-size="36.0" fill="#F6FEFF" transform="matrix(1.00, 0.00, -0.00, -1.00, 28.8, 10.0)">e</text><text xml:space="preserve" font-family="AvenirNext-DemiBold" font-weight="bold" font-size="36.0" fill="#F6FEFF" transform="matrix(1.00, 0.00, -0.00, -1.00, 49.5, 10.0)">n</text><text xml:space="preserve" font-family="AvenirNext-DemiBold" font-weight="bold" font-size="36.0" fill="#F6FEFF" transform="matrix(1.00, 0.00, -0.00, -1.00, 70.4, 10.0)">e</text><text xml:space="preserve" font-family="AvenirNext-DemiBold" font-weight="bold" font-size="36.0" fill="#F6FEFF" transform="matrix(1.00, 0.00, -0.00, -1.00, 91.1, 10.0)">r</text><text xml:space="preserve" font-family="AvenirNext-DemiBold" font-weight="bold" font-size="36.0" fill="#F6FEFF" transform="matrix(1.00, 0.00, -0.00, -1.00, 103.7, 10.0)">a</text><text xml:space="preserve" font-family="AvenirNext-DemiBold" font-weight="bold" font-size="36.0" fill="#F6FEFF" transform="matrix(1.00, 0.00, -0.00, -1.00, 123.5, 10.0)">l</text><text xml:space="preserve" font-family="AvenirNext-DemiBold" font-weight="bold" font-size="36.0" fill="#F6FEFF" transform="matrix(1.00, 0.00, -0.00, -1.00, 133.2, 10.0)"> </text><text xml:space="preserve" font-family="AvenirNext-DemiBold" font-weight="bold" font-size="36.0" fill="#F6FEFF" transform="matrix(1.00, 0.00, -0.00, -1.00, 142.2, 10.0)">t</text><text xml:space="preserve" font-family="AvenirNext-DemiBold" font-weight="bold" font-size="36.0" fill="#F6FEFF" transform="matrix(1.00, 0.00, -0.00, -1.00, 154.4, 10.0)">i</text><text xml:space="preserve" font-family="AvenirNext-DemiBold" font-weight="bold" font-size="36.0" fill="#F6FEFF" transform="matrix(1.00, 0.00, -0.00, -1.00, 164.1, 10.0)">p</text><text xml:space="preserve" font-family="AvenirNext-DemiBold" font-weight="bold" font-size="36.0" fill="#F6FEFF" transform="matrix(1.00, 0.00, -0.00, -1.00, 186.9, 10.0)">s</text></g></svg>