<?xml version="1.0" encoding="UTF-8" standalone="no"?><svg xmlns="http://www.w3.org/2000/svg" xmlns:xlink="http://www.w3.org/1999/xlink" clip-rule="evenodd" stroke-miterlimit="4.00" viewBox="0 0 468 33"><desc>SVG generated by Keynote</desc><defs></defs><g transform="matrix(1.00, 0.00, -0.00, -1.00, 0.0, 33.0)"><text xml:space="preserve" font-family="LucidaGrande" font-size="23.1" fill="#34A4DA" transform="matrix(1.00, 0.00, -0.00, -1.00, 0.2, 10.4)">‣</text><text xml:space="preserve" font-family="AvenirNext-Medium" font-size="22.0" fill="#F6FEFF" transform="matrix(1.00, 0.00, -0.00, -1.00, 23.0, 7.0)">A</text><text xml:space="preserve" font-family="AvenirNext-Medium" font-size="22.0" fill="#F6FEFF" transform="matrix(1.00, 0.00, -0.00, -1.00, 38.6, 7.0)">l</text><text xml:space="preserve" font-family="AvenirNext-Medium" font-size="22.0" fill="#F6FEFF" transform="matrix(1.00, 0.00, -0.00, -1.00, 44.4, 7.0)">w</text><text xml:space="preserve" font-family="AvenirNext-Medium" font-size="22.0" fill="#F6FEFF" transform="matrix(1.00, 0.00, -0.00, -1.00, 61.4, 7.0)">a</text><text xml:space="preserve" font-family="AvenirNext-Medium" font-size="22.0" fill="#F6FEFF" transform="matrix(1.00, 0.00, -0.00, -1.00, 73.3, 7.0)">y</text><text xml:space="preserve" font-family="AvenirNext-Medium" font-size="22.0" fill="#F6FEFF" transform="matrix(1.00, 0.00, -0.00, -1.00, 84.4, 7.0)">s</text><text xml:space="preserve" font-family="AvenirNext-Medium" font-size="22.0" fill="#F6FEFF" transform="matrix(1.00, 0.00, -0.00, -1.00, 94.1, 7.0)"> </text><text xml:space="preserve" font-family="AvenirNext-Medium" font-size="22.0" fill="#F6FEFF" transform="matrix(1.00, 0.00, -0.00, -1.00, 99.6, 7.0)">d</text><text xml:space="preserve" font-family="AvenirNext-Medium" font-size="22.0" fill="#F6FEFF" transform="matrix(1.00, 0.00, -0.00, -1.00, 113.6, 7.0)">e</text><text xml:space="preserve" font-family="AvenirNext-Medium" font-size="22.0" fill="#F6FEFF" transform="matrix(1.00, 0.00, -0.00, -1.00, 126.2, 7.0)">s</text><text xml:space="preserve" font-family="AvenirNext-Medium" font-size="22.0" fill="#F6FEFF" transform="matrix(1.00, 0.00, -0.00, -1.00, 136.0, 7.0)">t</text><text xml:space="preserve" font-family="AvenirNext-Medium" font-size="22.0" fill="#F6FEFF" transform="matrix(1.00, 0.00, -0.00, -1.00, 143.2, 7.0)">r</text><text xml:space="preserve" font-family="AvenirNext-Medium" font-size="22.0" fill="#F6FEFF" transform="matrix(1.00, 0.00, -0.00, -1.00, 150.8, 7.0)">o</text><text xml:space="preserve" font-family="AvenirNext-Medium" font-size="22.0" fill="#F6FEFF" transform="matrix(1.00, 0.00, -0.00, -1.00, 164.2, 7.0)">y</text><text xml:space="preserve" font-family="AvenirNext-Medium" font-size="22.0" fill="#F6FEFF" transform="matrix(1.00, 0.00, -0.00, -1.00, 175.3, 7.0)"> </text><text xml:space="preserve" font-family="AvenirNext-Medium" font-size="22.0" fill="#F6FEFF" transform="matrix(1.00, 0.00, -0.00, -1.00, 180.8, 7.0)">e</text><text xml:space="preserve" font-family="AvenirNext-Medium" font-size="22.0" fill="#F6FEFF" transform="matrix(1.00, 0.00, -0.00, -1.00, 193.4, 7.0)">v</text><text xml:space="preserve" font-family="AvenirNext-Medium" font-size="22.0" fill="#F6FEFF" transform="matrix(1.00, 0.00, -0.00, -1.00, 204.5, 7.0)">e</text><text xml:space="preserve" font-family="AvenirNext-Medium" font-size="22.0" fill="#F6FEFF" transform="matrix(1.00, 0.00, -0.00, -1.00, 217.1, 7.0)">n</text><text xml:space="preserve" font-family="AvenirNext-Medium" font-size="22.0" fill="#F6FEFF" transform="matrix(1.00, 0.00, -0.00, -1.00, 229.9, 7.0)">t</text><text xml:space="preserve" font-family="AvenirNext-Medium" font-size="22.0" fill="#F6FEFF" transform="matrix(1.00, 0.00, -0.00, -1.00, 237.1, 7.0)"> </text><text xml:space="preserve" font-family="AvenirNext-Medium" font-size="22.0" fill="#F6FEFF" transform="matrix(1.00, 0.00, -0.00, -1.00, 242.6, 7.0)">w</text><text xml:space="preserve" font-family="AvenirNext-Medium" font-size="22.0" fill="#F6FEFF" transform="matrix(1.00, 0.00, -0.00, -1.00, 259.7, 7.0)">a</text><text xml:space="preserve" font-family="AvenirNext-Medium" font-size="22.0" fill="#F6FEFF" transform="matrix(1.00, 0.00, -0.00, -1.00, 271.4, 7.0)">t</text><text xml:space="preserve" font-family="AvenirNext-Medium" font-size="22.0" fill="#F6FEFF" transform="matrix(1.00, 0.00, -0.00, -1.00, 278.6, 7.0)">c</text><text xml:space="preserve" font-family="AvenirNext-Medium" font-size="22.0" fill="#F6FEFF" transform="matrix(1.00, 0.00, -0.00, -1.00, 289.5, 7.0)">h</text><text xml:space="preserve" font-family="AvenirNext-Medium" font-size="22.0" fill="#F6FEFF" transform="matrix(1.00, 0.00, -0.00, -1.00, 302.3, 7.0)">e</text><text xml:space="preserve" font-family="AvenirNext-Medium" font-size="22.0" fill="#F6FEFF" transform="matrix(1.00, 0.00, -0.00, -1.00, 314.9, 7.0)">r</text><text xml:space="preserve" font-family="AvenirNext-Medium" font-size="22.0" fill="#F6FEFF" transform="matrix(1.00, 0.00, -0.00, -1.00, 322.9, 7.0)">s</text><text xml:space="preserve" font-family="AvenirNext-Medium" font-size="22.0" fill="#F6FEFF" transform="matrix(1.00, 0.00, -0.00, -1.00, 332.6, 7.0)"> </text><text xml:space="preserve" font-family="AvenirNext-Medium" font-size="22.0" fill="#F6FEFF" transform="matrix(1.00, 0.00, -0.00, -1.00, 338.1, 7.0)">o</text><text xml:space="preserve" font-family="AvenirNext-Medium" font-size="22.0" fill="#F6FEFF" transform="matrix(1.00, 0.00, -0.00, -1.00, 351.6, 7.0)">n</text><text xml:space="preserve" font-family="AvenirNext-Medium" font-size="22.0" fill="#F6FEFF" transform="matrix(1.00, 0.00, -0.00, -1.00, 364.4, 7.0)"> </text><text xml:space="preserve" font-family="AvenirNext-Medium" font-size="22.0" fill="#F6FEFF" transform="matrix(1.00, 0.00, -0.00, -1.00, 369.9, 7.0)">d</text><text xml:space="preserve" font-family="AvenirNext-Medium" font-size="22.0" fill="#F6FEFF" transform="matrix(1.00, 0.00, -0.00, -1.00, 383.8, 7.0)">i</text><text xml:space="preserve" font-family="AvenirNext-Medium" font-size="22.0" fill="#F6FEFF" transform="matrix(1.00, 0.00, -0.00, -1.00, 389.5, 7.0)">r</text><text xml:space="preserve" font-family="AvenirNext-Medium" font-size="22.0" fill="#F6FEFF" transform="matrix(1.00, 0.00, -0.00, -1.00, 397.1, 7.0)">e</text><text xml:space="preserve" font-family="AvenirNext-Medium" font-size="22.0" fill="#F6FEFF" transform="matrix(1.00, 0.00, -0.00, -1.00, 409.7, 7.0)">c</text><text xml:space="preserve" font-family="AvenirNext-Medium" font-size="22.0" fill="#F6FEFF" transform="matrix(1.00, 0.00, -0.00, -1.00, 420.6, 7.0)">t</text><text xml:space="preserve" font-family="AvenirNext-Medium" font-size="22.0" fill="#F6FEFF" transform="matrix(1.00, 0.00, -0.00, -1.00, 427.8, 7.0)">i</text><text xml:space="preserve" font-family="AvenirNext-Medium" font-size="22.0" fill="#F6FEFF" transform="matrix(1.00, 0.00, -0.00, -1.00, 433.5, 7.0)">v</text><text xml:space="preserve" font-family="AvenirNext-Medium" font-size="22.0" fill="#F6FEFF" transform="matrix(1.00, 0.00, -0.00, -1.00, 444.6, 7.0)">e</text><text xml:space="preserve" font-family="AvenirNext-Medium" font-size="22.0" fill="#F6FEFF" transform="matrix(1.00, 0.00, -0.00, -1.00, 457.2, 7.0)">s</text></g></svg>