<?xml version="1.0" encoding="UTF-8" standalone="no"?><svg xmlns="http://www.w3.org/2000/svg" xmlns:xlink="http://www.w3.org/1999/xlink" clip-rule="evenodd" stroke-miterlimit="4.00" viewBox="0 0 348 34"><desc>SVG generated by Keynote</desc><defs></defs><g transform="matrix(1.00, 0.00, -0.00, -1.00, 0.0, 34.0)"><text xml:space="preserve" font-family="LucidaGrande" font-size="23.1" fill="#34A4DA" transform="matrix(1.00, 0.00, -0.00, -1.00, 0.8, 10.9)">‣</text><text xml:space="preserve" font-family="AvenirNext-Medium" font-size="22.0" fill="#F6FEFF" transform="matrix(1.00, 0.00, -0.00, -1.00, 23.0, 8.0)">A</text><text xml:space="preserve" font-family="AvenirNext-Medium" font-size="22.0" fill="#F6FEFF" transform="matrix(1.00, 0.00, -0.00, -1.00, 38.6, 8.0)">l</text><text xml:space="preserve" font-family="AvenirNext-Medium" font-size="22.0" fill="#F6FEFF" transform="matrix(1.00, 0.00, -0.00, -1.00, 44.4, 8.0)">w</text><text xml:space="preserve" font-family="AvenirNext-Medium" font-size="22.0" fill="#F6FEFF" transform="matrix(1.00, 0.00, -0.00, -1.00, 61.4, 8.0)">a</text><text xml:space="preserve" font-family="AvenirNext-Medium" font-size="22.0" fill="#F6FEFF" transform="matrix(1.00, 0.00, -0.00, -1.00, 73.3, 8.0)">y</text><text xml:space="preserve" font-family="AvenirNext-Medium" font-size="22.0" fill="#F6FEFF" transform="matrix(1.00, 0.00, -0.00, -1.00, 84.4, 8.0)">s</text><text xml:space="preserve" font-family="AvenirNext-Medium" font-size="22.0" fill="#F6FEFF" transform="matrix(1.00, 0.00, -0.00, -1.00, 94.1, 8.0)"> </text><text xml:space="preserve" font-family="AvenirNext-Medium" font-size="22.0" fill="#F6FEFF" transform="matrix(1.00, 0.00, -0.00, -1.00, 99.6, 8.0)">c</text><text xml:space="preserve" font-family="AvenirNext-Medium" font-size="22.0" fill="#F6FEFF" transform="matrix(1.00, 0.00, -0.00, -1.00, 110.5, 8.0)">h</text><text xml:space="preserve" font-family="AvenirNext-Medium" font-size="22.0" fill="#F6FEFF" transform="matrix(1.00, 0.00, -0.00, -1.00, 123.4, 8.0)">e</text><text xml:space="preserve" font-family="AvenirNext-Medium" font-size="22.0" fill="#F6FEFF" transform="matrix(1.00, 0.00, -0.00, -1.00, 136.0, 8.0)">c</text><text xml:space="preserve" font-family="AvenirNext-Medium" font-size="22.0" fill="#F6FEFF" transform="matrix(1.00, 0.00, -0.00, -1.00, 146.8, 8.0)">k</text><text xml:space="preserve" font-family="AvenirNext-Medium" font-size="22.0" fill="#F6FEFF" transform="matrix(1.00, 0.00, -0.00, -1.00, 158.4, 8.0)"> </text><text xml:space="preserve" font-family="AvenirNext-Medium" font-size="22.0" fill="#F6FEFF" transform="matrix(1.00, 0.00, -0.00, -1.00, 163.9, 8.0)">m</text><text xml:space="preserve" font-family="AvenirNext-Medium" font-size="22.0" fill="#F6FEFF" transform="matrix(1.00, 0.00, -0.00, -1.00, 183.4, 8.0)">i</text><text xml:space="preserve" font-family="AvenirNext-Medium" font-size="22.0" fill="#F6FEFF" transform="matrix(1.00, 0.00, -0.00, -1.00, 189.1, 8.0)">s</text><text xml:space="preserve" font-family="AvenirNext-Medium" font-size="22.0" fill="#F6FEFF" transform="matrix(1.00, 0.00, -0.00, -1.00, 198.9, 8.0)">s</text><text xml:space="preserve" font-family="AvenirNext-Medium" font-size="22.0" fill="#F6FEFF" transform="matrix(1.00, 0.00, -0.00, -1.00, 208.7, 8.0)">p</text><text xml:space="preserve" font-family="AvenirNext-Medium" font-size="22.0" fill="#F6FEFF" transform="matrix(1.00, 0.00, -0.00, -1.00, 222.6, 8.0)">e</text><text xml:space="preserve" font-family="AvenirNext-Medium" font-size="22.0" fill="#F6FEFF" transform="matrix(1.00, 0.00, -0.00, -1.00, 235.2, 8.0)">l</text><text xml:space="preserve" font-family="AvenirNext-Medium" font-size="22.0" fill="#F6FEFF" transform="matrix(1.00, 0.00, -0.00, -1.00, 241.0, 8.0)">l</text><text xml:space="preserve" font-family="AvenirNext-Medium" font-size="22.0" fill="#F6FEFF" transform="matrix(1.00, 0.00, -0.00, -1.00, 246.7, 8.0)">i</text><text xml:space="preserve" font-family="AvenirNext-Medium" font-size="22.0" fill="#F6FEFF" transform="matrix(1.00, 0.00, -0.00, -1.00, 252.4, 8.0)">n</text><text xml:space="preserve" font-family="AvenirNext-Medium" font-size="22.0" fill="#F6FEFF" transform="matrix(1.00, 0.00, -0.00, -1.00, 265.2, 8.0)">g</text><text xml:space="preserve" font-family="AvenirNext-Medium" font-size="22.0" fill="#F6FEFF" transform="matrix(1.00, 0.00, -0.00, -1.00, 279.1, 8.0)"> </text><text xml:space="preserve" font-family="AvenirNext-Medium" font-size="22.0" fill="#F6FEFF" transform="matrix(1.00, 0.00, -0.00, -1.00, 284.6, 8.0)">w</text><text xml:space="preserve" font-family="AvenirNext-Medium" font-size="22.0" fill="#F6FEFF" transform="matrix(1.00, 0.00, -0.00, -1.00, 301.6, 8.0)">o</text><text xml:space="preserve" font-family="AvenirNext-Medium" font-size="22.0" fill="#F6FEFF" transform="matrix(1.00, 0.00, -0.00, -1.00, 315.0, 8.0)">r</text><text xml:space="preserve" font-family="AvenirNext-Medium" font-size="22.0" fill="#F6FEFF" transform="matrix(1.00, 0.00, -0.00, -1.00, 322.6, 8.0)">d</text><text xml:space="preserve" font-family="AvenirNext-Medium" font-size="22.0" fill="#F6FEFF" transform="matrix(1.00, 0.00, -0.00, -1.00, 336.5, 8.0)">s</text></g></svg>