<?xml version="1.0" encoding="UTF-8" standalone="no"?><svg xmlns="http://www.w3.org/2000/svg" xmlns:xlink="http://www.w3.org/1999/xlink" clip-rule="evenodd" stroke-miterlimit="4.00" viewBox="0 0 565 34"><desc>SVG generated by Keynote</desc><defs></defs><g transform="matrix(1.00, 0.00, -0.00, -1.00, 0.0, 34.0)"><text xml:space="preserve" font-family="LucidaGrande" font-size="23.1" fill="#34A4DA" transform="matrix(1.00, 0.00, -0.00, -1.00, 0.8, 10.9)">‣</text><text xml:space="preserve" font-family="AvenirNext-Medium" font-size="22.0" fill="#F6FEFF" transform="matrix(1.00, 0.00, -0.00, -1.00, 23.0, 8.0)">A</text><text xml:space="preserve" font-family="AvenirNext-Medium" font-size="22.0" fill="#F6FEFF" transform="matrix(1.00, 0.00, -0.00, -1.00, 38.5, 8.0)">v</text><text xml:space="preserve" font-family="AvenirNext-Medium" font-size="22.0" fill="#F6FEFF" transform="matrix(1.00, 0.00, -0.00, -1.00, 49.6, 8.0)">o</text><text xml:space="preserve" font-family="AvenirNext-Medium" font-size="22.0" fill="#F6FEFF" transform="matrix(1.00, 0.00, -0.00, -1.00, 63.0, 8.0)">i</text><text xml:space="preserve" font-family="AvenirNext-Medium" font-size="22.0" fill="#F6FEFF" transform="matrix(1.00, 0.00, -0.00, -1.00, 68.7, 8.0)">d</text><text xml:space="preserve" font-family="AvenirNext-Medium" font-size="22.0" fill="#F6FEFF" transform="matrix(1.00, 0.00, -0.00, -1.00, 82.7, 8.0)"> </text><text xml:space="preserve" font-family="AvenirNext-Medium" font-size="22.0" fill="#F6FEFF" transform="matrix(1.00, 0.00, -0.00, -1.00, 88.2, 8.0)">a</text><text xml:space="preserve" font-family="AvenirNext-Medium" font-size="22.0" fill="#F6FEFF" transform="matrix(1.00, 0.00, -0.00, -1.00, 100.1, 8.0)">c</text><text xml:space="preserve" font-family="AvenirNext-Medium" font-size="22.0" fill="#F6FEFF" transform="matrix(1.00, 0.00, -0.00, -1.00, 111.0, 8.0)">r</text><text xml:space="preserve" font-family="AvenirNext-Medium" font-size="22.0" fill="#F6FEFF" transform="matrix(1.00, 0.00, -0.00, -1.00, 118.5, 8.0)">o</text><text xml:space="preserve" font-family="AvenirNext-Medium" font-size="22.0" fill="#F6FEFF" transform="matrix(1.00, 0.00, -0.00, -1.00, 132.0, 8.0)">s</text><text xml:space="preserve" font-family="AvenirNext-Medium" font-size="22.0" fill="#F6FEFF" transform="matrix(1.00, 0.00, -0.00, -1.00, 141.7, 8.0)">t</text><text xml:space="preserve" font-family="AvenirNext-Medium" font-size="22.0" fill="#F6FEFF" transform="matrix(1.00, 0.00, -0.00, -1.00, 149.0, 8.0)">i</text><text xml:space="preserve" font-family="AvenirNext-Medium" font-size="22.0" fill="#F6FEFF" transform="matrix(1.00, 0.00, -0.00, -1.00, 154.7, 8.0)">c</text><text xml:space="preserve" font-family="AvenirNext-Medium" font-size="22.0" fill="#F6FEFF" transform="matrix(1.00, 0.00, -0.00, -1.00, 165.5, 8.0)">s</text><text xml:space="preserve" font-family="AvenirNext-Medium" font-size="22.0" fill="#F6FEFF" transform="matrix(1.00, 0.00, -0.00, -1.00, 175.3, 8.0)"> </text><text xml:space="preserve" font-family="AvenirNext-Medium" font-size="22.0" fill="#F6FEFF" transform="matrix(1.00, 0.00, -0.00, -1.00, 180.8, 8.0)">a</text><text xml:space="preserve" font-family="AvenirNext-Medium" font-size="22.0" fill="#F6FEFF" transform="matrix(1.00, 0.00, -0.00, -1.00, 192.7, 8.0)">n</text><text xml:space="preserve" font-family="AvenirNext-Medium" font-size="22.0" fill="#F6FEFF" transform="matrix(1.00, 0.00, -0.00, -1.00, 205.5, 8.0)">d</text><text xml:space="preserve" font-family="AvenirNext-Medium" font-size="22.0" fill="#F6FEFF" transform="matrix(1.00, 0.00, -0.00, -1.00, 219.5, 8.0)"> </text><text xml:space="preserve" font-family="AvenirNext-Medium" font-size="22.0" fill="#F6FEFF" transform="matrix(1.00, 0.00, -0.00, -1.00, 225.0, 8.0)">p</text><text xml:space="preserve" font-family="AvenirNext-Medium" font-size="22.0" fill="#F6FEFF" transform="matrix(1.00, 0.00, -0.00, -1.00, 239.0, 8.0)">r</text><text xml:space="preserve" font-family="AvenirNext-Medium" font-size="22.0" fill="#F6FEFF" transform="matrix(1.00, 0.00, -0.00, -1.00, 246.5, 8.0)">e</text><text xml:space="preserve" font-family="AvenirNext-Medium" font-size="22.0" fill="#F6FEFF" transform="matrix(1.00, 0.00, -0.00, -1.00, 259.1, 8.0)">ﬁ</text><text xml:space="preserve" font-family="AvenirNext-Medium" font-size="22.0" fill="#F6FEFF" transform="matrix(1.00, 0.00, -0.00, -1.00, 271.8, 8.0)">x</text><text xml:space="preserve" font-family="AvenirNext-Medium" font-size="22.0" fill="#F6FEFF" transform="matrix(1.00, 0.00, -0.00, -1.00, 282.8, 8.0)">e</text><text xml:space="preserve" font-family="AvenirNext-Medium" font-size="22.0" fill="#F6FEFF" transform="matrix(1.00, 0.00, -0.00, -1.00, 295.4, 8.0)">s</text><text xml:space="preserve" font-family="AvenirNext-Medium" font-size="22.0" fill="#F6FEFF" transform="matrix(1.00, 0.00, -0.00, -1.00, 305.1, 8.0)">/</text><text xml:space="preserve" font-family="AvenirNext-Medium" font-size="22.0" fill="#F6FEFF" transform="matrix(1.00, 0.00, -0.00, -1.00, 313.5, 8.0)">s</text><text xml:space="preserve" font-family="AvenirNext-Medium" font-size="22.0" fill="#F6FEFF" transform="matrix(1.00, 0.00, -0.00, -1.00, 323.3, 8.0)">u</text><text xml:space="preserve" font-family="AvenirNext-Medium" font-size="22.0" fill="#F6FEFF" transform="matrix(1.00, 0.00, -0.00, -1.00, 336.1, 8.0)">f</text><text xml:space="preserve" font-family="AvenirNext-Medium" font-size="22.0" fill="#F6FEFF" transform="matrix(1.00, 0.00, -0.00, -1.00, 342.4, 8.0)">ﬁ</text><text xml:space="preserve" font-family="AvenirNext-Medium" font-size="22.0" fill="#F6FEFF" transform="matrix(1.00, 0.00, -0.00, -1.00, 355.1, 8.0)">x</text><text xml:space="preserve" font-family="AvenirNext-Medium" font-size="22.0" fill="#F6FEFF" transform="matrix(1.00, 0.00, -0.00, -1.00, 366.1, 8.0)">e</text><text xml:space="preserve" font-family="AvenirNext-Medium" font-size="22.0" fill="#F6FEFF" transform="matrix(1.00, 0.00, -0.00, -1.00, 378.7, 8.0)">s</text><text xml:space="preserve" font-family="AvenirNext-Medium" font-size="22.0" fill="#F6FEFF" transform="matrix(1.00, 0.00, -0.00, -1.00, 388.5, 8.0)"> </text><text xml:space="preserve" font-family="AvenirNext-Medium" font-size="22.0" fill="#F6FEFF" transform="matrix(1.00, 0.00, -0.00, -1.00, 394.0, 8.0)">w</text><text xml:space="preserve" font-family="AvenirNext-Medium" font-size="22.0" fill="#F6FEFF" transform="matrix(1.00, 0.00, -0.00, -1.00, 411.0, 8.0)">i</text><text xml:space="preserve" font-family="AvenirNext-Medium" font-size="22.0" fill="#F6FEFF" transform="matrix(1.00, 0.00, -0.00, -1.00, 416.7, 8.0)">t</text><text xml:space="preserve" font-family="AvenirNext-Medium" font-size="22.0" fill="#F6FEFF" transform="matrix(1.00, 0.00, -0.00, -1.00, 423.9, 8.0)">h</text><text xml:space="preserve" font-family="AvenirNext-Medium" font-size="22.0" fill="#F6FEFF" transform="matrix(1.00, 0.00, -0.00, -1.00, 436.8, 8.0)">o</text><text xml:space="preserve" font-family="AvenirNext-Medium" font-size="22.0" fill="#F6FEFF" transform="matrix(1.00, 0.00, -0.00, -1.00, 450.2, 8.0)">u</text><text xml:space="preserve" font-family="AvenirNext-Medium" font-size="22.0" fill="#F6FEFF" transform="matrix(1.00, 0.00, -0.00, -1.00, 463.0, 8.0)">t</text><text xml:space="preserve" font-family="AvenirNext-Medium" font-size="22.0" fill="#F6FEFF" transform="matrix(1.00, 0.00, -0.00, -1.00, 470.2, 8.0)"> </text><text xml:space="preserve" font-family="AvenirNext-Medium" font-size="22.0" fill="#F6FEFF" transform="matrix(1.00, 0.00, -0.00, -1.00, 475.7, 8.0)">m</text><text xml:space="preserve" font-family="AvenirNext-Medium" font-size="22.0" fill="#F6FEFF" transform="matrix(1.00, 0.00, -0.00, -1.00, 495.2, 8.0)">e</text><text xml:space="preserve" font-family="AvenirNext-Medium" font-size="22.0" fill="#F6FEFF" transform="matrix(1.00, 0.00, -0.00, -1.00, 507.7, 8.0)">a</text><text xml:space="preserve" font-family="AvenirNext-Medium" font-size="22.0" fill="#F6FEFF" transform="matrix(1.00, 0.00, -0.00, -1.00, 519.6, 8.0)">n</text><text xml:space="preserve" font-family="AvenirNext-Medium" font-size="22.0" fill="#F6FEFF" transform="matrix(1.00, 0.00, -0.00, -1.00, 532.4, 8.0)">i</text><text xml:space="preserve" font-family="AvenirNext-Medium" font-size="22.0" fill="#F6FEFF" transform="matrix(1.00, 0.00, -0.00, -1.00, 538.1, 8.0)">n</text><text xml:space="preserve" font-family="AvenirNext-Medium" font-size="22.0" fill="#F6FEFF" transform="matrix(1.00, 0.00, -0.00, -1.00, 550.9, 8.0)">g</text></g></svg>