<?xml version="1.0" encoding="UTF-8" standalone="no"?><svg xmlns="http://www.w3.org/2000/svg" xmlns:xlink="http://www.w3.org/1999/xlink" clip-rule="evenodd" stroke-miterlimit="4.00" viewBox="0 0 447 40"><desc>SVG generated by Keynote</desc><defs></defs><g transform="matrix(1.00, 0.00, -0.00, -1.00, 0.0, 40.0)"><text xml:space="preserve" font-family="AvenirNext-DemiBold" font-weight="bold" font-size="36.0" fill="#F6FEFF" transform="matrix(1.00, 0.00, -0.00, -1.00, 0.0, 10.0)">K</text><text xml:space="preserve" font-family="AvenirNext-DemiBold" font-weight="bold" font-size="36.0" fill="#F6FEFF" transform="matrix(1.00, 0.00, -0.00, -1.00, 23.7, 10.0)">e</text><text xml:space="preserve" font-family="AvenirNext-DemiBold" font-weight="bold" font-size="36.0" fill="#F6FEFF" transform="matrix(1.00, 0.00, -0.00, -1.00, 44.4, 10.0)">e</text><text xml:space="preserve" font-family="AvenirNext-DemiBold" font-weight="bold" font-size="36.0" fill="#F6FEFF" transform="matrix(1.00, 0.00, -0.00, -1.00, 65.1, 10.0)">p</text><text xml:space="preserve" font-family="AvenirNext-DemiBold" font-weight="bold" font-size="36.0" fill="#F6FEFF" transform="matrix(1.00, 0.00, -0.00, -1.00, 87.8, 10.0)"> </text><text xml:space="preserve" font-family="AvenirNext-DemiBold" font-weight="bold" font-size="36.0" fill="#F6FEFF" transform="matrix(1.00, 0.00, -0.00, -1.00, 96.8, 10.0)">t</text><text xml:space="preserve" font-family="AvenirNext-DemiBold" font-weight="bold" font-size="36.0" fill="#F6FEFF" transform="matrix(1.00, 0.00, -0.00, -1.00, 109.1, 10.0)">h</text><text xml:space="preserve" font-family="AvenirNext-DemiBold" font-weight="bold" font-size="36.0" fill="#F6FEFF" transform="matrix(1.00, 0.00, -0.00, -1.00, 130.1, 10.0)">e</text><text xml:space="preserve" font-family="AvenirNext-DemiBold" font-weight="bold" font-size="36.0" fill="#F6FEFF" transform="matrix(1.00, 0.00, -0.00, -1.00, 150.8, 10.0)"> </text><text xml:space="preserve" font-family="AvenirNext-DemiBold" font-weight="bold" font-size="36.0" fill="#F6FEFF" transform="matrix(1.00, 0.00, -0.00, -1.00, 159.8, 10.0)">n</text><text xml:space="preserve" font-family="AvenirNext-DemiBold" font-weight="bold" font-size="36.0" fill="#F6FEFF" transform="matrix(1.00, 0.00, -0.00, -1.00, 180.7, 10.0)">a</text><text xml:space="preserve" font-family="AvenirNext-DemiBold" font-weight="bold" font-size="36.0" fill="#F6FEFF" transform="matrix(1.00, 0.00, -0.00, -1.00, 200.5, 10.0)">m</text><text xml:space="preserve" font-family="AvenirNext-DemiBold" font-weight="bold" font-size="36.0" fill="#F6FEFF" transform="matrix(1.00, 0.00, -0.00, -1.00, 232.6, 10.0)">e</text><text xml:space="preserve" font-family="AvenirNext-DemiBold" font-weight="bold" font-size="36.0" fill="#F6FEFF" transform="matrix(1.00, 0.00, -0.00, -1.00, 253.2, 10.0)">s</text><text xml:space="preserve" font-family="AvenirNext-DemiBold" font-weight="bold" font-size="36.0" fill="#F6FEFF" transform="matrix(1.00, 0.00, -0.00, -1.00, 269.2, 10.0)"> </text><text xml:space="preserve" font-family="AvenirNext-DemiBold" font-weight="bold" font-size="36.0" fill="#F6FEFF" transform="matrix(1.00, 0.00, -0.00, -1.00, 278.2, 10.0)">c</text><text xml:space="preserve" font-family="AvenirNext-DemiBold" font-weight="bold" font-size="36.0" fill="#F6FEFF" transform="matrix(1.00, 0.00, -0.00, -1.00, 295.8, 10.0)">o</text><text xml:space="preserve" font-family="AvenirNext-DemiBold" font-weight="bold" font-size="36.0" fill="#F6FEFF" transform="matrix(1.00, 0.00, -0.00, -1.00, 317.7, 10.0)">n</text><text xml:space="preserve" font-family="AvenirNext-DemiBold" font-weight="bold" font-size="36.0" fill="#F6FEFF" transform="matrix(1.00, 0.00, -0.00, -1.00, 338.7, 10.0)">s</text><text xml:space="preserve" font-family="AvenirNext-DemiBold" font-weight="bold" font-size="36.0" fill="#F6FEFF" transform="matrix(1.00, 0.00, -0.00, -1.00, 354.7, 10.0)">i</text><text xml:space="preserve" font-family="AvenirNext-DemiBold" font-weight="bold" font-size="36.0" fill="#F6FEFF" transform="matrix(1.00, 0.00, -0.00, -1.00, 364.3, 10.0)">s</text><text xml:space="preserve" font-family="AvenirNext-DemiBold" font-weight="bold" font-size="36.0" fill="#F6FEFF" transform="matrix(1.00, 0.00, -0.00, -1.00, 380.3, 10.0)">t</text><text xml:space="preserve" font-family="AvenirNext-DemiBold" font-weight="bold" font-size="36.0" fill="#F6FEFF" transform="matrix(1.00, 0.00, -0.00, -1.00, 392.5, 10.0)">e</text><text xml:space="preserve" font-family="AvenirNext-DemiBold" font-weight="bold" font-size="36.0" fill="#F6FEFF" transform="matrix(1.00, 0.00, -0.00, -1.00, 413.2, 10.0)">n</text><text xml:space="preserve" font-family="AvenirNext-DemiBold" font-weight="bold" font-size="36.0" fill="#F6FEFF" transform="matrix(1.00, 0.00, -0.00, -1.00, 434.2, 10.0)">t</text></g></svg>