<?xml version="1.0" encoding="UTF-8" standalone="no"?><svg xmlns="http://www.w3.org/2000/svg" xmlns:xlink="http://www.w3.org/1999/xlink" clip-rule="evenodd" stroke-miterlimit="4.00" viewBox="0 0 679 34"><desc>SVG generated by Keynote</desc><defs></defs><g transform="matrix(1.00, 0.00, -0.00, -1.00, 0.0, 34.0)"><text xml:space="preserve" font-family="LucidaGrande" font-size="23.1" fill="#34A4DA" transform="matrix(1.00, 0.00, -0.00, -1.00, 0.8, 10.9)">‣</text><text xml:space="preserve" font-family="AvenirNext-Medium" font-size="22.0" fill="#F6FEFF" transform="matrix(1.00, 0.00, -0.00, -1.00, 23.0, 8.0)">U</text><text xml:space="preserve" font-family="AvenirNext-Medium" font-size="22.0" fill="#F6FEFF" transform="matrix(1.00, 0.00, -0.00, -1.00, 38.7, 8.0)">s</text><text xml:space="preserve" font-family="AvenirNext-Medium" font-size="22.0" fill="#F6FEFF" transform="matrix(1.00, 0.00, -0.00, -1.00, 48.4, 8.0)">e</text><text xml:space="preserve" font-family="AvenirNext-Medium" font-size="22.0" fill="#F6FEFF" transform="matrix(1.00, 0.00, -0.00, -1.00, 61.0, 8.0)"> </text><text xml:space="preserve" font-family="AvenirNext-Medium" font-size="22.0" fill="#F6FEFF" transform="matrix(1.00, 0.00, -0.00, -1.00, 66.5, 8.0)">n</text><text xml:space="preserve" font-family="AvenirNext-Medium" font-size="22.0" fill="#F6FEFF" transform="matrix(1.00, 0.00, -0.00, -1.00, 79.3, 8.0)">a</text><text xml:space="preserve" font-family="AvenirNext-Medium" font-size="22.0" fill="#F6FEFF" transform="matrix(1.00, 0.00, -0.00, -1.00, 91.3, 8.0)">m</text><text xml:space="preserve" font-family="AvenirNext-Medium" font-size="22.0" fill="#F6FEFF" transform="matrix(1.00, 0.00, -0.00, -1.00, 110.8, 8.0)">e</text><text xml:space="preserve" font-family="AvenirNext-Medium" font-size="22.0" fill="#F6FEFF" transform="matrix(1.00, 0.00, -0.00, -1.00, 123.4, 8.0)">s</text><text xml:space="preserve" font-family="AvenirNext-Medium" font-size="22.0" fill="#F6FEFF" transform="matrix(1.00, 0.00, -0.00, -1.00, 133.2, 8.0)"> </text><text xml:space="preserve" font-family="AvenirNext-Medium" font-size="22.0" fill="#F6FEFF" transform="matrix(1.00, 0.00, -0.00, -1.00, 138.7, 8.0)">t</text><text xml:space="preserve" font-family="AvenirNext-Medium" font-size="22.0" fill="#F6FEFF" transform="matrix(1.00, 0.00, -0.00, -1.00, 145.9, 8.0)">h</text><text xml:space="preserve" font-family="AvenirNext-Medium" font-size="22.0" fill="#F6FEFF" transform="matrix(1.00, 0.00, -0.00, -1.00, 158.7, 8.0)">a</text><text xml:space="preserve" font-family="AvenirNext-Medium" font-size="22.0" fill="#F6FEFF" transform="matrix(1.00, 0.00, -0.00, -1.00, 170.4, 8.0)">t</text><text xml:space="preserve" font-family="AvenirNext-Medium" font-size="22.0" fill="#F6FEFF" transform="matrix(1.00, 0.00, -0.00, -1.00, 177.7, 8.0)"> </text><text xml:space="preserve" font-family="AvenirNext-Medium" font-size="22.0" fill="#F6FEFF" transform="matrix(1.00, 0.00, -0.00, -1.00, 183.2, 8.0)">r</text><text xml:space="preserve" font-family="AvenirNext-Medium" font-size="22.0" fill="#F6FEFF" transform="matrix(1.00, 0.00, -0.00, -1.00, 190.8, 8.0)">e</text><text xml:space="preserve" font-family="AvenirNext-Medium" font-size="22.0" fill="#F6FEFF" transform="matrix(1.00, 0.00, -0.00, -1.00, 203.4, 8.0)">p</text><text xml:space="preserve" font-family="AvenirNext-Medium" font-size="22.0" fill="#F6FEFF" transform="matrix(1.00, 0.00, -0.00, -1.00, 217.3, 8.0)">r</text><text xml:space="preserve" font-family="AvenirNext-Medium" font-size="22.0" fill="#F6FEFF" transform="matrix(1.00, 0.00, -0.00, -1.00, 224.9, 8.0)">e</text><text xml:space="preserve" font-family="AvenirNext-Medium" font-size="22.0" fill="#F6FEFF" transform="matrix(1.00, 0.00, -0.00, -1.00, 237.5, 8.0)">s</text><text xml:space="preserve" font-family="AvenirNext-Medium" font-size="22.0" fill="#F6FEFF" transform="matrix(1.00, 0.00, -0.00, -1.00, 247.2, 8.0)">e</text><text xml:space="preserve" font-family="AvenirNext-Medium" font-size="22.0" fill="#F6FEFF" transform="matrix(1.00, 0.00, -0.00, -1.00, 259.9, 8.0)">n</text><text xml:space="preserve" font-family="AvenirNext-Medium" font-size="22.0" fill="#F6FEFF" transform="matrix(1.00, 0.00, -0.00, -1.00, 272.7, 8.0)">t</text><text xml:space="preserve" font-family="AvenirNext-Medium" font-size="22.0" fill="#F6FEFF" transform="matrix(1.00, 0.00, -0.00, -1.00, 279.9, 8.0)"> </text><text xml:space="preserve" font-family="AvenirNext-Medium" font-size="22.0" fill="#F6FEFF" transform="matrix(1.00, 0.00, -0.00, -1.00, 285.4, 8.0)">f</text><text xml:space="preserve" font-family="AvenirNext-Medium" font-size="22.0" fill="#F6FEFF" transform="matrix(1.00, 0.00, -0.00, -1.00, 292.2, 8.0)">e</text><text xml:space="preserve" font-family="AvenirNext-Medium" font-size="22.0" fill="#F6FEFF" transform="matrix(1.00, 0.00, -0.00, -1.00, 304.7, 8.0)">a</text><text xml:space="preserve" font-family="AvenirNext-Medium" font-size="22.0" fill="#F6FEFF" transform="matrix(1.00, 0.00, -0.00, -1.00, 316.4, 8.0)">t</text><text xml:space="preserve" font-family="AvenirNext-Medium" font-size="22.0" fill="#F6FEFF" transform="matrix(1.00, 0.00, -0.00, -1.00, 323.6, 8.0)">u</text><text xml:space="preserve" font-family="AvenirNext-Medium" font-size="22.0" fill="#F6FEFF" transform="matrix(1.00, 0.00, -0.00, -1.00, 336.4, 8.0)">r</text><text xml:space="preserve" font-family="AvenirNext-Medium" font-size="22.0" fill="#F6FEFF" transform="matrix(1.00, 0.00, -0.00, -1.00, 344.0, 8.0)">e</text><text xml:space="preserve" font-family="AvenirNext-Medium" font-size="22.0" fill="#F6FEFF" transform="matrix(1.00, 0.00, -0.00, -1.00, 356.6, 8.0)">s</text><text xml:space="preserve" font-family="AvenirNext-Medium" font-size="22.0" fill="#F6FEFF" transform="matrix(1.00, 0.00, -0.00, -1.00, 366.4, 8.0)"> </text><text xml:space="preserve" font-family="AvenirNext-Medium" font-size="22.0" fill="#F6FEFF" transform="matrix(1.00, 0.00, -0.00, -1.00, 371.9, 8.0)">i</text><text xml:space="preserve" font-family="AvenirNext-Medium" font-size="22.0" fill="#F6FEFF" transform="matrix(1.00, 0.00, -0.00, -1.00, 377.6, 8.0)">n</text><text xml:space="preserve" font-family="AvenirNext-Medium" font-size="22.0" fill="#F6FEFF" transform="matrix(1.00, 0.00, -0.00, -1.00, 390.4, 8.0)">s</text><text xml:space="preserve" font-family="AvenirNext-Medium" font-size="22.0" fill="#F6FEFF" transform="matrix(1.00, 0.00, -0.00, -1.00, 400.1, 8.0)">t</text><text xml:space="preserve" font-family="AvenirNext-Medium" font-size="22.0" fill="#F6FEFF" transform="matrix(1.00, 0.00, -0.00, -1.00, 407.4, 8.0)">e</text><text xml:space="preserve" font-family="AvenirNext-Medium" font-size="22.0" fill="#F6FEFF" transform="matrix(1.00, 0.00, -0.00, -1.00, 419.9, 8.0)">a</text><text xml:space="preserve" font-family="AvenirNext-Medium" font-size="22.0" fill="#F6FEFF" transform="matrix(1.00, 0.00, -0.00, -1.00, 431.8, 8.0)">d</text><text xml:space="preserve" font-family="AvenirNext-Medium" font-size="22.0" fill="#F6FEFF" transform="matrix(1.00, 0.00, -0.00, -1.00, 445.8, 8.0)"> </text><text xml:space="preserve" font-family="AvenirNext-Medium" font-size="22.0" fill="#F6FEFF" transform="matrix(1.00, 0.00, -0.00, -1.00, 451.3, 8.0)">o</text><text xml:space="preserve" font-family="AvenirNext-Medium" font-size="22.0" fill="#F6FEFF" transform="matrix(1.00, 0.00, -0.00, -1.00, 464.7, 8.0)">f</text><text xml:space="preserve" font-family="AvenirNext-Medium" font-size="22.0" fill="#F6FEFF" transform="matrix(1.00, 0.00, -0.00, -1.00, 472.0, 8.0)"> </text><text xml:space="preserve" font-family="AvenirNext-Medium" font-size="22.0" fill="#F6FEFF" transform="matrix(1.00, 0.00, -0.00, -1.00, 477.5, 8.0)">d</text><text xml:space="preserve" font-family="AvenirNext-Medium" font-size="22.0" fill="#F6FEFF" transform="matrix(1.00, 0.00, -0.00, -1.00, 491.5, 8.0)">a</text><text xml:space="preserve" font-family="AvenirNext-Medium" font-size="22.0" fill="#F6FEFF" transform="matrix(1.00, 0.00, -0.00, -1.00, 503.2, 8.0)">t</text><text xml:space="preserve" font-family="AvenirNext-Medium" font-size="22.0" fill="#F6FEFF" transform="matrix(1.00, 0.00, -0.00, -1.00, 510.4, 8.0)">a</text><text xml:space="preserve" font-family="AvenirNext-Medium" font-size="22.0" fill="#F6FEFF" transform="matrix(1.00, 0.00, -0.00, -1.00, 522.4, 8.0)">/</text><text xml:space="preserve" font-family="AvenirNext-Medium" font-size="22.0" fill="#F6FEFF" transform="matrix(1.00, 0.00, -0.00, -1.00, 530.7, 8.0)">e</text><text xml:space="preserve" font-family="AvenirNext-Medium" font-size="22.0" fill="#F6FEFF" transform="matrix(1.00, 0.00, -0.00, -1.00, 543.3, 8.0)">l</text><text xml:space="preserve" font-family="AvenirNext-Medium" font-size="22.0" fill="#F6FEFF" transform="matrix(1.00, 0.00, -0.00, -1.00, 549.0, 8.0)">e</text><text xml:space="preserve" font-family="AvenirNext-Medium" font-size="22.0" fill="#F6FEFF" transform="matrix(1.00, 0.00, -0.00, -1.00, 561.6, 8.0)">m</text><text xml:space="preserve" font-family="AvenirNext-Medium" font-size="22.0" fill="#F6FEFF" transform="matrix(1.00, 0.00, -0.00, -1.00, 581.2, 8.0)">e</text><text xml:space="preserve" font-family="AvenirNext-Medium" font-size="22.0" fill="#F6FEFF" transform="matrix(1.00, 0.00, -0.00, -1.00, 593.8, 8.0)">n</text><text xml:space="preserve" font-family="AvenirNext-Medium" font-size="22.0" fill="#F6FEFF" transform="matrix(1.00, 0.00, -0.00, -1.00, 606.6, 8.0)">t</text><text xml:space="preserve" font-family="AvenirNext-Medium" font-size="22.0" fill="#F6FEFF" transform="matrix(1.00, 0.00, -0.00, -1.00, 613.8, 8.0)"> </text><text xml:space="preserve" font-family="AvenirNext-Medium" font-size="22.0" fill="#F6FEFF" transform="matrix(1.00, 0.00, -0.00, -1.00, 619.3, 8.0)">s</text><text xml:space="preserve" font-family="AvenirNext-Medium" font-size="22.0" fill="#F6FEFF" transform="matrix(1.00, 0.00, -0.00, -1.00, 629.1, 8.0)">t</text><text xml:space="preserve" font-family="AvenirNext-Medium" font-size="22.0" fill="#F6FEFF" transform="matrix(1.00, 0.00, -0.00, -1.00, 636.3, 8.0)">a</text><text xml:space="preserve" font-family="AvenirNext-Medium" font-size="22.0" fill="#F6FEFF" transform="matrix(1.00, 0.00, -0.00, -1.00, 648.0, 8.0)">t</text><text xml:space="preserve" font-family="AvenirNext-Medium" font-size="22.0" fill="#F6FEFF" transform="matrix(1.00, 0.00, -0.00, -1.00, 655.3, 8.0)">e</text><text xml:space="preserve" font-family="AvenirNext-Medium" font-size="22.0" fill="#F6FEFF" transform="matrix(1.00, 0.00, -0.00, -1.00, 667.9, 8.0)">s</text></g></svg>