<?xml version="1.0" encoding="UTF-8" standalone="no"?><svg xmlns="http://www.w3.org/2000/svg" xmlns:xlink="http://www.w3.org/1999/xlink" clip-rule="evenodd" stroke-miterlimit="4.00" viewBox="0 0 1024 768"><desc>SVG generated by Keynote</desc><defs></defs><g transform="matrix(1.00, 0.00, -0.00, -1.00, 0.0, 768.0)"><path d="M 0.0 768.0 L 1024.0 768.0 L 1024.0 0.0 L 0.0 0.0 Z M 0.0 768.0 " fill="#212121"></path><text xml:space="preserve" font-family="Corbel-Bold" font-weight="bold" font-size="88.0" fill="#34A4DA" transform="matrix(1.00, 0.00, -0.00, -1.00, 18.0, 203.0)">n</text><text xml:space="preserve" font-family="Corbel-Bold" font-weight="bold" font-size="88.0" fill="#34A4DA" transform="matrix(1.00, 0.00, -0.00, -1.00, 66.8, 203.0)">g</text><text xml:space="preserve" font-family="Corbel-Bold" font-weight="bold" font-size="88.0" fill="#34A4DA" transform="matrix(1.00, 0.00, -0.00, -1.00, 115.1, 203.0)">-</text><text xml:space="preserve" font-family="Corbel-Bold" font-weight="bold" font-size="88.0" fill="#34A4DA" transform="matrix(1.00, 0.00, -0.00, -1.00, 144.4, 203.0)">b</text><text xml:space="preserve" font-family="Corbel-Bold" font-weight="bold" font-size="88.0" fill="#34A4DA" transform="matrix(1.00, 0.00, -0.00, -1.00, 193.4, 203.0)">e</text><text xml:space="preserve" font-family="Corbel-Bold" font-weight="bold" font-size="88.0" fill="#34A4DA" transform="matrix(1.00, 0.00, -0.00, -1.00, 238.5, 203.0)">s</text><text xml:space="preserve" font-family="Corbel-Bold" font-weight="bold" font-size="88.0" fill="#34A4DA" transform="matrix(1.00, 0.00, -0.00, -1.00, 275.7, 203.0)">t</text><text xml:space="preserve" font-family="Corbel-Bold" font-weight="bold" font-size="88.0" fill="#34A4DA" transform="matrix(1.00, 0.00, -0.00, -1.00, 307.4, 203.0)">-</text><text xml:space="preserve" font-family="Corbel-Bold" font-weight="bold" font-size="88.0" fill="#34A4DA" transform="matrix(1.00, 0.00, -0.00, -1.00, 336.7, 203.0)">p</text><text xml:space="preserve" font-family="Corbel-Bold" font-weight="bold" font-size="88.0" fill="#34A4DA" transform="matrix(1.00, 0.00, -0.00, -1.00, 385.0, 203.0)">r</text><text xml:space="preserve" font-family="Corbel-Bold" font-weight="bold" font-size="88.0" fill="#34A4DA" transform="matrix(1.00, 0.00, -0.00, -1.00, 415.8, 203.0)">a</text><text xml:space="preserve" font-family="Corbel-Bold" font-weight="bold" font-size="88.0" fill="#34A4DA" transform="matrix(1.00, 0.00, -0.00, -1.00, 461.0, 203.0)">c</text><text xml:space="preserve" font-family="Corbel-Bold" font-weight="bold" font-size="88.0" fill="#34A4DA" transform="matrix(1.00, 0.00, -0.00, -1.00, 499.8, 203.0)">t</text><text xml:space="preserve" font-family="Corbel-Bold" font-weight="bold" font-size="88.0" fill="#34A4DA" transform="matrix(1.00, 0.00, -0.00, -1.00, 533.2, 203.0)">i</text><text xml:space="preserve" font-family="Corbel-Bold" font-weight="bold" font-size="88.0" fill="#34A4DA" transform="matrix(1.00, 0.00, -0.00, -1.00, 555.1, 203.0)">c</text><text xml:space="preserve" font-family="Corbel-Bold" font-weight="bold" font-size="88.0" fill="#34A4DA" transform="matrix(1.00, 0.00, -0.00, -1.00, 593.9, 203.0)">e</text><text xml:space="preserve" font-family="Corbel-Bold" font-weight="bold" font-size="88.0" fill="#34A4DA" transform="matrix(1.00, 0.00, -0.00, -1.00, 639.0, 203.0)">s</text><text xml:space="preserve" font-family="DINAlternate-Bold" font-weight="bold" font-size="52.0" fill="#A6AAA9" transform="matrix(1.00, 0.00, -0.00, -1.00, 18.0, 322.0)">A</text><text xml:space="preserve" font-family="DINAlternate-Bold" font-weight="bold" font-size="52.0" fill="#A6AAA9" transform="matrix(1.00, 0.00, -0.00, -1.00, 49.7, 322.0)">N</text><text xml:space="preserve" font-family="DINAlternate-Bold" font-weight="bold" font-size="52.0" fill="#A6AAA9" transform="matrix(1.00, 0.00, -0.00, -1.00, 85.3, 322.0)">G</text><text xml:space="preserve" font-family="DINAlternate-Bold" font-weight="bold" font-size="52.0" fill="#A6AAA9" transform="matrix(1.00, 0.00, -0.00, -1.00, 117.0, 322.0)">U</text><text xml:space="preserve" font-family="DINAlternate-Bold" font-weight="bold" font-size="52.0" fill="#A6AAA9" transform="matrix(1.00, 0.00, -0.00, -1.00, 149.7, 322.0)">L</text><text xml:space="preserve" font-family="DINAlternate-Bold" font-weight="bold" font-size="52.0" fill="#A6AAA9" transform="matrix(1.00, 0.00, -0.00, -1.00, 178.7, 322.0)">A</text><text xml:space="preserve" font-family="DINAlternate-Bold" font-weight="bold" font-size="52.0" fill="#A6AAA9" transform="matrix(1.00, 0.00, -0.00, -1.00, 210.4, 322.0)">R</text><text xml:space="preserve" font-family="DINAlternate-Bold" font-weight="bold" font-size="52.0" fill="#A6AAA9" transform="matrix(1.00, 0.00, -0.00, -1.00, 242.1, 322.0)"> </text><text xml:space="preserve" font-family="DINAlternate-Bold" font-weight="bold" font-size="52.0" fill="#A6AAA9" transform="matrix(1.00, 0.00, -0.00, -1.00, 254.5, 322.0)">W</text><text xml:space="preserve" font-family="DINAlternate-Bold" font-weight="bold" font-size="52.0" fill="#A6AAA9" transform="matrix(1.00, 0.00, -0.00, -1.00, 297.8, 322.0)">I</text><text xml:space="preserve" font-family="DINAlternate-Bold" font-weight="bold" font-size="52.0" fill="#A6AAA9" transform="matrix(1.00, 0.00, -0.00, -1.00, 311.2, 322.0)">T</text><text xml:space="preserve" font-family="DINAlternate-Bold" font-weight="bold" font-size="52.0" fill="#A6AAA9" transform="matrix(1.00, 0.00, -0.00, -1.00, 337.2, 322.0)">H</text><text xml:space="preserve" font-family="DINAlternate-Bold" font-weight="bold" font-size="52.0" fill="#A6AAA9" transform="matrix(1.00, 0.00, -0.00, -1.00, 370.9, 322.0)"> </text><text xml:space="preserve" font-family="DINAlternate-Bold" font-weight="bold" font-size="52.0" fill="#A6AAA9" transform="matrix(1.00, 0.00, -0.00, -1.00, 383.3, 322.0)">S</text><text xml:space="preserve" font-family="DINAlternate-Bold" font-weight="bold" font-size="52.0" fill="#A6AAA9" transform="matrix(1.00, 0.00, -0.00, -1.00, 413.2, 322.0)">T</text><text xml:space="preserve" font-family="DINAlternate-Bold" font-weight="bold" font-size="52.0" fill="#A6AAA9" transform="matrix(1.00, 0.00, -0.00, -1.00, 439.2, 322.0)">E</text><text xml:space="preserve" font-family="DINAlternate-Bold" font-weight="bold" font-size="52.0" fill="#A6AAA9" transform="matrix(1.00, 0.00, -0.00, -1.00, 468.1, 322.0)">R</text><text xml:space="preserve" font-family="DINAlternate-Bold" font-weight="bold" font-size="52.0" fill="#A6AAA9" transform="matrix(1.00, 0.00, -0.00, -1.00, 499.8, 322.0)">O</text><text xml:space="preserve" font-family="DINAlternate-Bold" font-weight="bold" font-size="52.0" fill="#A6AAA9" transform="matrix(1.00, 0.00, -0.00, -1.00, 531.5, 322.0)">I</text><text xml:space="preserve" font-family="DINAlternate-Bold" font-weight="bold" font-size="52.0" fill="#A6AAA9" transform="matrix(1.00, 0.00, -0.00, -1.00, 544.9, 322.0)">D</text><text xml:space="preserve" font-family="DINAlternate-Bold" font-weight="bold" font-size="52.0" fill="#A6AAA9" transform="matrix(1.00, 0.00, -0.00, -1.00, 577.6, 322.0)">S</text><text xml:space="preserve" font-family="AvenirNext-Medium" font-size="30.0" fill="#FFDE20" transform="matrix(1.00, 0.00, -0.00, -1.00, 867.0, 31.0)">@</text><text xml:space="preserve" font-family="AvenirNext-Medium" font-size="30.0" fill="#FFDE20" transform="matrix(1.00, 0.00, -0.00, -1.00, 891.0, 31.0)">g</text><text xml:space="preserve" font-family="AvenirNext-Medium" font-size="30.0" fill="#FFDE20" transform="matrix(1.00, 0.00, -0.00, -1.00, 910.0, 31.0)">t</text><text xml:space="preserve" font-family="AvenirNext-Medium" font-size="30.0" fill="#FFDE20" transform="matrix(1.00, 0.00, -0.00, -1.00, 919.8, 31.0)">o</text><text xml:space="preserve" font-family="AvenirNext-Medium" font-size="30.0" fill="#FFDE20" transform="matrix(1.00, 0.00, -0.00, -1.00, 938.1, 31.0)">r</text><text xml:space="preserve" font-family="AvenirNext-Medium" font-size="30.0" fill="#FFDE20" transform="matrix(1.00, 0.00, -0.00, -1.00, 948.5, 31.0)">o</text><text xml:space="preserve" font-family="AvenirNext-Medium" font-size="30.0" fill="#FFDE20" transform="matrix(1.00, 0.00, -0.00, -1.00, 966.8, 31.0)">a</text><text xml:space="preserve" font-family="AvenirNext-Medium" font-size="30.0" fill="#FFDE20" transform="matrix(1.00, 0.00, -0.00, -1.00, 983.0, 31.0)">p</text></g></svg>