<?xml version="1.0" encoding="UTF-8" standalone="no"?><svg xmlns="http://www.w3.org/2000/svg" xmlns:xlink="http://www.w3.org/1999/xlink" clip-rule="evenodd" stroke-miterlimit="4.00" viewBox="0 0 435 207"><desc>SVG generated by Keynote</desc><defs></defs><g transform="matrix(1.00, 0.00, -0.00, -1.00, 0.0, 207.0)"><text xml:space="preserve" font-family="AvenirNext-Medium" font-size="18.0" fill="#F6FEFF" transform="matrix(1.00, 0.00, -0.00, -1.00, 1.0, 191.0)">a</text><text xml:space="preserve" font-family="AvenirNext-Medium" font-size="18.0" fill="#F6FEFF" transform="matrix(1.00, 0.00, -0.00, -1.00, 10.8, 191.0)">p</text><text xml:space="preserve" font-family="AvenirNext-Medium" font-size="18.0" fill="#F6FEFF" transform="matrix(1.00, 0.00, -0.00, -1.00, 22.2, 191.0)">p</text><text xml:space="preserve" font-family="AvenirNext-Medium" font-size="18.0" fill="#F6FEFF" transform="matrix(1.00, 0.00, -0.00, -1.00, 33.4, 191.0)">.</text><text xml:space="preserve" font-family="AvenirNext-Medium" font-size="18.0" fill="#F6FEFF" transform="matrix(1.00, 0.00, -0.00, -1.00, 38.0, 191.0)">c</text><text xml:space="preserve" font-family="AvenirNext-Medium" font-size="18.0" fill="#F6FEFF" transform="matrix(1.00, 0.00, -0.00, -1.00, 46.9, 191.0)">o</text><text xml:space="preserve" font-family="AvenirNext-Medium" font-size="18.0" fill="#F6FEFF" transform="matrix(1.00, 0.00, -0.00, -1.00, 57.9, 191.0)">n</text><text xml:space="preserve" font-family="AvenirNext-Medium" font-size="18.0" fill="#F6FEFF" transform="matrix(1.00, 0.00, -0.00, -1.00, 68.4, 191.0)">t</text><text xml:space="preserve" font-family="AvenirNext-Medium" font-size="18.0" fill="#F6FEFF" transform="matrix(1.00, 0.00, -0.00, -1.00, 74.3, 191.0)">r</text><text xml:space="preserve" font-family="AvenirNext-Medium" font-size="18.0" fill="#F6FEFF" transform="matrix(1.00, 0.00, -0.00, -1.00, 80.5, 191.0)">o</text><text xml:space="preserve" font-family="AvenirNext-Medium" font-size="18.0" fill="#F6FEFF" transform="matrix(1.00, 0.00, -0.00, -1.00, 91.5, 191.0)">l</text><text xml:space="preserve" font-family="AvenirNext-Medium" font-size="18.0" fill="#F6FEFF" transform="matrix(1.00, 0.00, -0.00, -1.00, 96.2, 191.0)">l</text><text xml:space="preserve" font-family="AvenirNext-Medium" font-size="18.0" fill="#F6FEFF" transform="matrix(1.00, 0.00, -0.00, -1.00, 100.8, 191.0)">e</text><text xml:space="preserve" font-family="AvenirNext-Medium" font-size="18.0" fill="#F6FEFF" transform="matrix(1.00, 0.00, -0.00, -1.00, 111.2, 191.0)">r</text><text xml:space="preserve" font-family="AvenirNext-Medium" font-size="18.0" fill="#F6FEFF" transform="matrix(1.00, 0.00, -0.00, -1.00, 117.7, 191.0)">(</text><text xml:space="preserve" font-family="AvenirNext-Medium" font-size="18.0" fill="#F6FEFF" transform="matrix(1.00, 0.00, -0.00, -1.00, 123.3, 191.0)">'</text><text xml:space="preserve" font-family="AvenirNext-Medium" font-size="18.0" fill="#F6FEFF" transform="matrix(1.00, 0.00, -0.00, -1.00, 128.1, 191.0)">L</text><text xml:space="preserve" font-family="AvenirNext-Medium" font-size="18.0" fill="#F6FEFF" transform="matrix(1.00, 0.00, -0.00, -1.00, 137.3, 191.0)">i</text><text xml:space="preserve" font-family="AvenirNext-Medium" font-size="18.0" fill="#F6FEFF" transform="matrix(1.00, 0.00, -0.00, -1.00, 141.9, 191.0)">s</text><text xml:space="preserve" font-family="AvenirNext-Medium" font-size="18.0" fill="#F6FEFF" transform="matrix(1.00, 0.00, -0.00, -1.00, 149.9, 191.0)">t</text><text xml:space="preserve" font-family="AvenirNext-Medium" font-size="18.0" fill="#F6FEFF" transform="matrix(1.00, 0.00, -0.00, -1.00, 155.8, 191.0)">C</text><text xml:space="preserve" font-family="AvenirNext-Medium" font-size="18.0" fill="#F6FEFF" transform="matrix(1.00, 0.00, -0.00, -1.00, 168.6, 191.0)">t</text><text xml:space="preserve" font-family="AvenirNext-Medium" font-size="18.0" fill="#F6FEFF" transform="matrix(1.00, 0.00, -0.00, -1.00, 174.5, 191.0)">r</text><text xml:space="preserve" font-family="AvenirNext-Medium" font-size="18.0" fill="#F6FEFF" transform="matrix(1.00, 0.00, -0.00, -1.00, 181.0, 191.0)">l</text><text xml:space="preserve" font-family="AvenirNext-Medium" font-size="18.0" fill="#F6FEFF" transform="matrix(1.00, 0.00, -0.00, -1.00, 185.7, 191.0)">'</text><text xml:space="preserve" font-family="AvenirNext-Medium" font-size="18.0" fill="#F6FEFF" transform="matrix(1.00, 0.00, -0.00, -1.00, 190.4, 191.0)">,</text><text xml:space="preserve" font-family="AvenirNext-Medium" font-size="18.0" fill="#F6FEFF" transform="matrix(1.00, 0.00, -0.00, -1.00, 194.6, 191.0)"> </text><text xml:space="preserve" font-family="AvenirNext-Medium" font-size="18.0" fill="#F6FEFF" transform="matrix(1.00, 0.00, -0.00, -1.00, 199.1, 191.0)">[</text><text xml:space="preserve" font-family="AvenirNext-Medium" font-size="18.0" fill="#F6FEFF" transform="matrix(1.00, 0.00, -0.00, -1.00, 204.7, 191.0)">'</text><text xml:space="preserve" font-family="AvenirNext-Medium" font-size="18.0" fill="#F6FEFF" transform="matrix(1.00, 0.00, -0.00, -1.00, 209.4, 191.0)">$</text><text xml:space="preserve" font-family="AvenirNext-Medium" font-size="18.0" fill="#F6FEFF" transform="matrix(1.00, 0.00, -0.00, -1.00, 220.2, 191.0)">s</text><text xml:space="preserve" font-family="AvenirNext-Medium" font-size="18.0" fill="#F6FEFF" transform="matrix(1.00, 0.00, -0.00, -1.00, 228.1, 191.0)">c</text><text xml:space="preserve" font-family="AvenirNext-Medium" font-size="18.0" fill="#F6FEFF" transform="matrix(1.00, 0.00, -0.00, -1.00, 237.0, 191.0)">o</text><text xml:space="preserve" font-family="AvenirNext-Medium" font-size="18.0" fill="#F6FEFF" transform="matrix(1.00, 0.00, -0.00, -1.00, 248.0, 191.0)">p</text><text xml:space="preserve" font-family="AvenirNext-Medium" font-size="18.0" fill="#F6FEFF" transform="matrix(1.00, 0.00, -0.00, -1.00, 259.4, 191.0)">e</text><text xml:space="preserve" font-family="AvenirNext-Medium" font-size="18.0" fill="#F6FEFF" transform="matrix(1.00, 0.00, -0.00, -1.00, 269.7, 191.0)">'</text><text xml:space="preserve" font-family="AvenirNext-Medium" font-size="18.0" fill="#F6FEFF" transform="matrix(1.00, 0.00, -0.00, -1.00, 274.5, 191.0)">,</text><text xml:space="preserve" font-family="AvenirNext-Medium" font-size="18.0" fill="#F6FEFF" transform="matrix(1.00, 0.00, -0.00, -1.00, 278.6, 191.0)"> </text><text xml:space="preserve" font-family="AvenirNext-Medium" font-size="18.0" fill="#F6FEFF" transform="matrix(1.00, 0.00, -0.00, -1.00, 283.1, 191.0)">f</text><text xml:space="preserve" font-family="AvenirNext-Medium" font-size="18.0" fill="#F6FEFF" transform="matrix(1.00, 0.00, -0.00, -1.00, 288.7, 191.0)">u</text><text xml:space="preserve" font-family="AvenirNext-Medium" font-size="18.0" fill="#F6FEFF" transform="matrix(1.00, 0.00, -0.00, -1.00, 299.2, 191.0)">n</text><text xml:space="preserve" font-family="AvenirNext-Medium" font-size="18.0" fill="#F6FEFF" transform="matrix(1.00, 0.00, -0.00, -1.00, 309.6, 191.0)">c</text><text xml:space="preserve" font-family="AvenirNext-Medium" font-size="18.0" fill="#F6FEFF" transform="matrix(1.00, 0.00, -0.00, -1.00, 318.5, 191.0)">t</text><text xml:space="preserve" font-family="AvenirNext-Medium" font-size="18.0" fill="#F6FEFF" transform="matrix(1.00, 0.00, -0.00, -1.00, 324.4, 191.0)">i</text><text xml:space="preserve" font-family="AvenirNext-Medium" font-size="18.0" fill="#F6FEFF" transform="matrix(1.00, 0.00, -0.00, -1.00, 329.1, 191.0)">o</text><text xml:space="preserve" font-family="AvenirNext-Medium" font-size="18.0" fill="#F6FEFF" transform="matrix(1.00, 0.00, -0.00, -1.00, 340.1, 191.0)">n</text><text xml:space="preserve" font-family="AvenirNext-Medium" font-size="18.0" fill="#F6FEFF" transform="matrix(1.00, 0.00, -0.00, -1.00, 350.6, 191.0)">(</text><text xml:space="preserve" font-family="AvenirNext-Medium" font-size="18.0" fill="#F6FEFF" transform="matrix(1.00, 0.00, -0.00, -1.00, 356.2, 191.0)">$</text><text xml:space="preserve" font-family="AvenirNext-Medium" font-size="18.0" fill="#F6FEFF" transform="matrix(1.00, 0.00, -0.00, -1.00, 366.9, 191.0)">s</text><text xml:space="preserve" font-family="AvenirNext-Medium" font-size="18.0" fill="#F6FEFF" transform="matrix(1.00, 0.00, -0.00, -1.00, 374.9, 191.0)">c</text><text xml:space="preserve" font-family="AvenirNext-Medium" font-size="18.0" fill="#F6FEFF" transform="matrix(1.00, 0.00, -0.00, -1.00, 383.8, 191.0)">o</text><text xml:space="preserve" font-family="AvenirNext-Medium" font-size="18.0" fill="#F6FEFF" transform="matrix(1.00, 0.00, -0.00, -1.00, 394.8, 191.0)">p</text><text xml:space="preserve" font-family="AvenirNext-Medium" font-size="18.0" fill="#F6FEFF" transform="matrix(1.00, 0.00, -0.00, -1.00, 406.2, 191.0)">e</text><text xml:space="preserve" font-family="AvenirNext-Medium" font-size="18.0" fill="#F6FEFF" transform="matrix(1.00, 0.00, -0.00, -1.00, 416.5, 191.0)">)</text><text xml:space="preserve" font-family="AvenirNext-Medium" font-size="18.0" fill="#F6FEFF" transform="matrix(1.00, 0.00, -0.00, -1.00, 422.2, 191.0)"> </text><text xml:space="preserve" font-family="AvenirNext-Medium" font-size="18.0" fill="#F6FEFF" transform="matrix(1.00, 0.00, -0.00, -1.00, 426.7, 191.0)">{</text><text xml:space="preserve" font-family="AvenirNext-Medium" font-size="18.0" fill="#F6FEFF" transform="matrix(1.00, 0.00, -0.00, -1.00, 432.4, 191.0)"> </text><text xml:space="preserve" font-family="AvenirNext-Medium" font-size="18.0" fill="#F6FEFF" transform="matrix(1.00, 0.00, -0.00, -1.00, 1.0, 160.0)"> </text><text xml:space="preserve" font-family="AvenirNext-Medium" font-size="18.0" fill="#F6FEFF" transform="matrix(1.00, 0.00, -0.00, -1.00, 5.5, 160.0)"> </text><text xml:space="preserve" font-family="AvenirNext-Medium" font-size="18.0" fill="#F6FEFF" transform="matrix(1.00, 0.00, -0.00, -1.00, 10.0, 160.0)">$</text><text xml:space="preserve" font-family="AvenirNext-Medium" font-size="18.0" fill="#F6FEFF" transform="matrix(1.00, 0.00, -0.00, -1.00, 20.7, 160.0)">s</text><text xml:space="preserve" font-family="AvenirNext-Medium" font-size="18.0" fill="#F6FEFF" transform="matrix(1.00, 0.00, -0.00, -1.00, 28.7, 160.0)">c</text><text xml:space="preserve" font-family="AvenirNext-Medium" font-size="18.0" fill="#F6FEFF" transform="matrix(1.00, 0.00, -0.00, -1.00, 37.6, 160.0)">o</text><text xml:space="preserve" font-family="AvenirNext-Medium" font-size="18.0" fill="#F6FEFF" transform="matrix(1.00, 0.00, -0.00, -1.00, 48.6, 160.0)">p</text><text xml:space="preserve" font-family="AvenirNext-Medium" font-size="18.0" fill="#F6FEFF" transform="matrix(1.00, 0.00, -0.00, -1.00, 60.0, 160.0)">e</text><text xml:space="preserve" font-family="AvenirNext-Medium" font-size="18.0" fill="#F6FEFF" transform="matrix(1.00, 0.00, -0.00, -1.00, 70.3, 160.0)">.</text><text xml:space="preserve" font-family="AvenirNext-Medium" font-size="18.0" fill="#F6FEFF" transform="matrix(1.00, 0.00, -0.00, -1.00, 75.0, 160.0)">i</text><text xml:space="preserve" font-family="AvenirNext-Medium" font-size="18.0" fill="#F6FEFF" transform="matrix(1.00, 0.00, -0.00, -1.00, 79.6, 160.0)">t</text><text xml:space="preserve" font-family="AvenirNext-Medium" font-size="18.0" fill="#F6FEFF" transform="matrix(1.00, 0.00, -0.00, -1.00, 85.6, 160.0)">e</text><text xml:space="preserve" font-family="AvenirNext-Medium" font-size="18.0" fill="#F6FEFF" transform="matrix(1.00, 0.00, -0.00, -1.00, 95.9, 160.0)">m</text><text xml:space="preserve" font-family="AvenirNext-Medium" font-size="18.0" fill="#F6FEFF" transform="matrix(1.00, 0.00, -0.00, -1.00, 111.8, 160.0)">s</text><text xml:space="preserve" font-family="AvenirNext-Medium" font-size="18.0" fill="#F6FEFF" transform="matrix(1.00, 0.00, -0.00, -1.00, 119.8, 160.0)"> </text><text xml:space="preserve" font-family="AvenirNext-Medium" font-size="18.0" fill="#F6FEFF" transform="matrix(1.00, 0.00, -0.00, -1.00, 124.3, 160.0)">=</text><text xml:space="preserve" font-family="AvenirNext-Medium" font-size="18.0" fill="#F6FEFF" transform="matrix(1.00, 0.00, -0.00, -1.00, 136.3, 160.0)"> </text><text xml:space="preserve" font-family="AvenirNext-Medium" font-size="18.0" fill="#F6FEFF" transform="matrix(1.00, 0.00, -0.00, -1.00, 140.8, 160.0)">g</text><text xml:space="preserve" font-family="AvenirNext-Medium" font-size="18.0" fill="#F6FEFF" transform="matrix(1.00, 0.00, -0.00, -1.00, 152.2, 160.0)">e</text><text xml:space="preserve" font-family="AvenirNext-Medium" font-size="18.0" fill="#F6FEFF" transform="matrix(1.00, 0.00, -0.00, -1.00, 162.5, 160.0)">t</text><text xml:space="preserve" font-family="AvenirNext-Medium" font-size="18.0" fill="#F6FEFF" transform="matrix(1.00, 0.00, -0.00, -1.00, 168.4, 160.0)">I</text><text xml:space="preserve" font-family="AvenirNext-Medium" font-size="18.0" fill="#F6FEFF" transform="matrix(1.00, 0.00, -0.00, -1.00, 173.3, 160.0)">t</text><text xml:space="preserve" font-family="AvenirNext-Medium" font-size="18.0" fill="#F6FEFF" transform="matrix(1.00, 0.00, -0.00, -1.00, 179.2, 160.0)">e</text><text xml:space="preserve" font-family="AvenirNext-Medium" font-size="18.0" fill="#F6FEFF" transform="matrix(1.00, 0.00, -0.00, -1.00, 189.5, 160.0)">m</text><text xml:space="preserve" font-family="AvenirNext-Medium" font-size="18.0" fill="#F6FEFF" transform="matrix(1.00, 0.00, -0.00, -1.00, 205.5, 160.0)">s</text><text xml:space="preserve" font-family="AvenirNext-Medium" font-size="18.0" fill="#F6FEFF" transform="matrix(1.00, 0.00, -0.00, -1.00, 213.5, 160.0)">(</text><text xml:space="preserve" font-family="AvenirNext-Medium" font-size="18.0" fill="#F6FEFF" transform="matrix(1.00, 0.00, -0.00, -1.00, 219.2, 160.0)">)</text><text xml:space="preserve" font-family="AvenirNext-Medium" font-size="18.0" fill="#F6FEFF" transform="matrix(1.00, 0.00, -0.00, -1.00, 224.8, 160.0)">;</text><text xml:space="preserve" font-family="AvenirNext-Medium" font-size="18.0" fill="#F6FEFF" transform="matrix(1.00, 0.00, -0.00, -1.00, 230.2, 160.0)"> </text><text xml:space="preserve" font-family="AvenirNext-Medium" font-size="18.0" fill="#F6FEFF" transform="matrix(1.00, 0.00, -0.00, -1.00, 1.0, 129.0)"> </text><text xml:space="preserve" font-family="AvenirNext-Medium" font-size="18.0" fill="#F6FEFF" transform="matrix(1.00, 0.00, -0.00, -1.00, 5.5, 129.0)"> </text><text xml:space="preserve" font-family="AvenirNext-Medium" font-size="18.0" fill="#F6FEFF" transform="matrix(1.00, 0.00, -0.00, -1.00, 10.0, 129.0)">$</text><text xml:space="preserve" font-family="AvenirNext-Medium" font-size="18.0" fill="#F6FEFF" transform="matrix(1.00, 0.00, -0.00, -1.00, 20.7, 129.0)">s</text><text xml:space="preserve" font-family="AvenirNext-Medium" font-size="18.0" fill="#F6FEFF" transform="matrix(1.00, 0.00, -0.00, -1.00, 28.7, 129.0)">c</text><text xml:space="preserve" font-family="AvenirNext-Medium" font-size="18.0" fill="#F6FEFF" transform="matrix(1.00, 0.00, -0.00, -1.00, 37.6, 129.0)">o</text><text xml:space="preserve" font-family="AvenirNext-Medium" font-size="18.0" fill="#F6FEFF" transform="matrix(1.00, 0.00, -0.00, -1.00, 48.6, 129.0)">p</text><text xml:space="preserve" font-family="AvenirNext-Medium" font-size="18.0" fill="#F6FEFF" transform="matrix(1.00, 0.00, -0.00, -1.00, 60.0, 129.0)">e</text><text xml:space="preserve" font-family="AvenirNext-Medium" font-size="18.0" fill="#F6FEFF" transform="matrix(1.00, 0.00, -0.00, -1.00, 70.3, 129.0)">.</text><text xml:space="preserve" font-family="AvenirNext-Medium" font-size="18.0" fill="#F6FEFF" transform="matrix(1.00, 0.00, -0.00, -1.00, 75.0, 129.0)">r</text><text xml:space="preserve" font-family="AvenirNext-Medium" font-size="18.0" fill="#F6FEFF" transform="matrix(1.00, 0.00, -0.00, -1.00, 81.2, 129.0)">e</text><text xml:space="preserve" font-family="AvenirNext-Medium" font-size="18.0" fill="#F6FEFF" transform="matrix(1.00, 0.00, -0.00, -1.00, 91.5, 129.0)">m</text><text xml:space="preserve" font-family="AvenirNext-Medium" font-size="18.0" fill="#F6FEFF" transform="matrix(1.00, 0.00, -0.00, -1.00, 107.5, 129.0)">o</text><text xml:space="preserve" font-family="AvenirNext-Medium" font-size="18.0" fill="#F6FEFF" transform="matrix(1.00, 0.00, -0.00, -1.00, 118.4, 129.0)">v</text><text xml:space="preserve" font-family="AvenirNext-Medium" font-size="18.0" fill="#F6FEFF" transform="matrix(1.00, 0.00, -0.00, -1.00, 127.5, 129.0)">e</text><text xml:space="preserve" font-family="AvenirNext-Medium" font-size="18.0" fill="#F6FEFF" transform="matrix(1.00, 0.00, -0.00, -1.00, 137.8, 129.0)"> </text><text xml:space="preserve" font-family="AvenirNext-Medium" font-size="18.0" fill="#F6FEFF" transform="matrix(1.00, 0.00, -0.00, -1.00, 142.3, 129.0)">=</text><text xml:space="preserve" font-family="AvenirNext-Medium" font-size="18.0" fill="#F6FEFF" transform="matrix(1.00, 0.00, -0.00, -1.00, 154.3, 129.0)"> </text><text xml:space="preserve" font-family="AvenirNext-Medium" font-size="18.0" fill="#F6FEFF" transform="matrix(1.00, 0.00, -0.00, -1.00, 158.8, 129.0)">f</text><text xml:space="preserve" font-family="AvenirNext-Medium" font-size="18.0" fill="#F6FEFF" transform="matrix(1.00, 0.00, -0.00, -1.00, 164.4, 129.0)">u</text><text xml:space="preserve" font-family="AvenirNext-Medium" font-size="18.0" fill="#F6FEFF" transform="matrix(1.00, 0.00, -0.00, -1.00, 174.9, 129.0)">n</text><text xml:space="preserve" font-family="AvenirNext-Medium" font-size="18.0" fill="#F6FEFF" transform="matrix(1.00, 0.00, -0.00, -1.00, 185.3, 129.0)">c</text><text xml:space="preserve" font-family="AvenirNext-Medium" font-size="18.0" fill="#F6FEFF" transform="matrix(1.00, 0.00, -0.00, -1.00, 194.2, 129.0)">t</text><text xml:space="preserve" font-family="AvenirNext-Medium" font-size="18.0" fill="#F6FEFF" transform="matrix(1.00, 0.00, -0.00, -1.00, 200.2, 129.0)">i</text><text xml:space="preserve" font-family="AvenirNext-Medium" font-size="18.0" fill="#F6FEFF" transform="matrix(1.00, 0.00, -0.00, -1.00, 204.8, 129.0)">o</text><text xml:space="preserve" font-family="AvenirNext-Medium" font-size="18.0" fill="#F6FEFF" transform="matrix(1.00, 0.00, -0.00, -1.00, 215.8, 129.0)">n</text><text xml:space="preserve" font-family="AvenirNext-Medium" font-size="18.0" fill="#F6FEFF" transform="matrix(1.00, 0.00, -0.00, -1.00, 226.3, 129.0)">(</text><text xml:space="preserve" font-family="AvenirNext-Medium" font-size="18.0" fill="#F6FEFF" transform="matrix(1.00, 0.00, -0.00, -1.00, 231.9, 129.0)">i</text><text xml:space="preserve" font-family="AvenirNext-Medium" font-size="18.0" fill="#F6FEFF" transform="matrix(1.00, 0.00, -0.00, -1.00, 236.6, 129.0)">n</text><text xml:space="preserve" font-family="AvenirNext-Medium" font-size="18.0" fill="#F6FEFF" transform="matrix(1.00, 0.00, -0.00, -1.00, 247.1, 129.0)">d</text><text xml:space="preserve" font-family="AvenirNext-Medium" font-size="18.0" fill="#F6FEFF" transform="matrix(1.00, 0.00, -0.00, -1.00, 258.5, 129.0)">e</text><text xml:space="preserve" font-family="AvenirNext-Medium" font-size="18.0" fill="#F6FEFF" transform="matrix(1.00, 0.00, -0.00, -1.00, 268.6, 129.0)">x</text><text xml:space="preserve" font-family="AvenirNext-Medium" font-size="18.0" fill="#F6FEFF" transform="matrix(1.00, 0.00, -0.00, -1.00, 277.8, 129.0)">)</text><text xml:space="preserve" font-family="AvenirNext-Medium" font-size="18.0" fill="#F6FEFF" transform="matrix(1.00, 0.00, -0.00, -1.00, 283.5, 129.0)"> </text><text xml:space="preserve" font-family="AvenirNext-Medium" font-size="18.0" fill="#F6FEFF" transform="matrix(1.00, 0.00, -0.00, -1.00, 288.0, 129.0)">{</text><text xml:space="preserve" font-family="AvenirNext-Medium" font-size="18.0" fill="#F6FEFF" transform="matrix(1.00, 0.00, -0.00, -1.00, 293.7, 129.0)"> </text><text xml:space="preserve" font-family="AvenirNext-Medium" font-size="18.0" fill="#F6FEFF" transform="matrix(1.00, 0.00, -0.00, -1.00, 1.0, 98.0)"> </text><text xml:space="preserve" font-family="AvenirNext-Medium" font-size="18.0" fill="#F6FEFF" transform="matrix(1.00, 0.00, -0.00, -1.00, 5.5, 98.0)"> </text><text xml:space="preserve" font-family="AvenirNext-Medium" font-size="18.0" fill="#F6FEFF" transform="matrix(1.00, 0.00, -0.00, -1.00, 10.0, 98.0)"> </text><text xml:space="preserve" font-family="AvenirNext-Medium" font-size="18.0" fill="#F6FEFF" transform="matrix(1.00, 0.00, -0.00, -1.00, 14.5, 98.0)"> </text><text xml:space="preserve" font-family="AvenirNext-Medium" font-size="18.0" fill="#F6FEFF" transform="matrix(1.00, 0.00, -0.00, -1.00, 19.0, 98.0)">v</text><text xml:space="preserve" font-family="AvenirNext-Medium" font-size="18.0" fill="#F6FEFF" transform="matrix(1.00, 0.00, -0.00, -1.00, 28.1, 98.0)">a</text><text xml:space="preserve" font-family="AvenirNext-Medium" font-size="18.0" fill="#F6FEFF" transform="matrix(1.00, 0.00, -0.00, -1.00, 37.8, 98.0)">r</text><text xml:space="preserve" font-family="AvenirNext-Medium" font-size="18.0" fill="#F6FEFF" transform="matrix(1.00, 0.00, -0.00, -1.00, 44.3, 98.0)"> </text><text xml:space="preserve" font-family="AvenirNext-Medium" font-size="18.0" fill="#F6FEFF" transform="matrix(1.00, 0.00, -0.00, -1.00, 48.8, 98.0)">i</text><text xml:space="preserve" font-family="AvenirNext-Medium" font-size="18.0" fill="#F6FEFF" transform="matrix(1.00, 0.00, -0.00, -1.00, 53.5, 98.0)">t</text><text xml:space="preserve" font-family="AvenirNext-Medium" font-size="18.0" fill="#F6FEFF" transform="matrix(1.00, 0.00, -0.00, -1.00, 59.4, 98.0)">e</text><text xml:space="preserve" font-family="AvenirNext-Medium" font-size="18.0" fill="#F6FEFF" transform="matrix(1.00, 0.00, -0.00, -1.00, 69.7, 98.0)">m</text><text xml:space="preserve" font-family="AvenirNext-Medium" font-size="18.0" fill="#F6FEFF" transform="matrix(1.00, 0.00, -0.00, -1.00, 85.7, 98.0)"> </text><text xml:space="preserve" font-family="AvenirNext-Medium" font-size="18.0" fill="#F6FEFF" transform="matrix(1.00, 0.00, -0.00, -1.00, 90.2, 98.0)">=</text><text xml:space="preserve" font-family="AvenirNext-Medium" font-size="18.0" fill="#F6FEFF" transform="matrix(1.00, 0.00, -0.00, -1.00, 102.2, 98.0)"> </text><text xml:space="preserve" font-family="AvenirNext-Medium" font-size="18.0" fill="#F6FEFF" transform="matrix(1.00, 0.00, -0.00, -1.00, 106.7, 98.0)">$</text><text xml:space="preserve" font-family="AvenirNext-Medium" font-size="18.0" fill="#F6FEFF" transform="matrix(1.00, 0.00, -0.00, -1.00, 117.4, 98.0)">s</text><text xml:space="preserve" font-family="AvenirNext-Medium" font-size="18.0" fill="#F6FEFF" transform="matrix(1.00, 0.00, -0.00, -1.00, 125.4, 98.0)">c</text><text xml:space="preserve" font-family="AvenirNext-Medium" font-size="18.0" fill="#F6FEFF" transform="matrix(1.00, 0.00, -0.00, -1.00, 134.3, 98.0)">o</text><text xml:space="preserve" font-family="AvenirNext-Medium" font-size="18.0" fill="#F6FEFF" transform="matrix(1.00, 0.00, -0.00, -1.00, 145.3, 98.0)">p</text><text xml:space="preserve" font-family="AvenirNext-Medium" font-size="18.0" fill="#F6FEFF" transform="matrix(1.00, 0.00, -0.00, -1.00, 156.7, 98.0)">e</text><text xml:space="preserve" font-family="AvenirNext-Medium" font-size="18.0" fill="#F6FEFF" transform="matrix(1.00, 0.00, -0.00, -1.00, 167.0, 98.0)">.</text><text xml:space="preserve" font-family="AvenirNext-Medium" font-size="18.0" fill="#F6FEFF" transform="matrix(1.00, 0.00, -0.00, -1.00, 171.7, 98.0)">i</text><text xml:space="preserve" font-family="AvenirNext-Medium" font-size="18.0" fill="#F6FEFF" transform="matrix(1.00, 0.00, -0.00, -1.00, 176.3, 98.0)">t</text><text xml:space="preserve" font-family="AvenirNext-Medium" font-size="18.0" fill="#F6FEFF" transform="matrix(1.00, 0.00, -0.00, -1.00, 182.3, 98.0)">e</text><text xml:space="preserve" font-family="AvenirNext-Medium" font-size="18.0" fill="#F6FEFF" transform="matrix(1.00, 0.00, -0.00, -1.00, 192.6, 98.0)">m</text><text xml:space="preserve" font-family="AvenirNext-Medium" font-size="18.0" fill="#F6FEFF" transform="matrix(1.00, 0.00, -0.00, -1.00, 208.5, 98.0)">s</text><text xml:space="preserve" font-family="AvenirNext-Medium" font-size="18.0" fill="#F6FEFF" transform="matrix(1.00, 0.00, -0.00, -1.00, 216.5, 98.0)">[</text><text xml:space="preserve" font-family="AvenirNext-Medium" font-size="18.0" fill="#F6FEFF" transform="matrix(1.00, 0.00, -0.00, -1.00, 222.2, 98.0)">i</text><text xml:space="preserve" font-family="AvenirNext-Medium" font-size="18.0" fill="#F6FEFF" transform="matrix(1.00, 0.00, -0.00, -1.00, 226.9, 98.0)">n</text><text xml:space="preserve" font-family="AvenirNext-Medium" font-size="18.0" fill="#F6FEFF" transform="matrix(1.00, 0.00, -0.00, -1.00, 237.3, 98.0)">d</text><text xml:space="preserve" font-family="AvenirNext-Medium" font-size="18.0" fill="#F6FEFF" transform="matrix(1.00, 0.00, -0.00, -1.00, 248.8, 98.0)">e</text><text xml:space="preserve" font-family="AvenirNext-Medium" font-size="18.0" fill="#F6FEFF" transform="matrix(1.00, 0.00, -0.00, -1.00, 258.9, 98.0)">x</text><text xml:space="preserve" font-family="AvenirNext-Medium" font-size="18.0" fill="#F6FEFF" transform="matrix(1.00, 0.00, -0.00, -1.00, 268.1, 98.0)">]</text><text xml:space="preserve" font-family="AvenirNext-Medium" font-size="18.0" fill="#F6FEFF" transform="matrix(1.00, 0.00, -0.00, -1.00, 273.8, 98.0)">;</text><text xml:space="preserve" font-family="AvenirNext-Medium" font-size="18.0" fill="#F6FEFF" transform="matrix(1.00, 0.00, -0.00, -1.00, 279.2, 98.0)"> </text><text xml:space="preserve" font-family="AvenirNext-Medium" font-size="18.0" fill="#F6FEFF" transform="matrix(1.00, 0.00, -0.00, -1.00, 1.0, 67.0)"> </text><text xml:space="preserve" font-family="AvenirNext-Medium" font-size="18.0" fill="#F6FEFF" transform="matrix(1.00, 0.00, -0.00, -1.00, 5.5, 67.0)"> </text><text xml:space="preserve" font-family="AvenirNext-Medium" font-size="18.0" fill="#F6FEFF" transform="matrix(1.00, 0.00, -0.00, -1.00, 10.0, 67.0)"> </text><text xml:space="preserve" font-family="AvenirNext-Medium" font-size="18.0" fill="#F6FEFF" transform="matrix(1.00, 0.00, -0.00, -1.00, 14.5, 67.0)"> </text><text xml:space="preserve" font-family="AvenirNext-Medium" font-size="18.0" fill="#F6FEFF" transform="matrix(1.00, 0.00, -0.00, -1.00, 19.0, 67.0)">r</text><text xml:space="preserve" font-family="AvenirNext-Medium" font-size="18.0" fill="#F6FEFF" transform="matrix(1.00, 0.00, -0.00, -1.00, 25.2, 67.0)">e</text><text xml:space="preserve" font-family="AvenirNext-Medium" font-size="18.0" fill="#F6FEFF" transform="matrix(1.00, 0.00, -0.00, -1.00, 35.5, 67.0)">m</text><text xml:space="preserve" font-family="AvenirNext-Medium" font-size="18.0" fill="#F6FEFF" transform="matrix(1.00, 0.00, -0.00, -1.00, 51.5, 67.0)">o</text><text xml:space="preserve" font-family="AvenirNext-Medium" font-size="18.0" fill="#F6FEFF" transform="matrix(1.00, 0.00, -0.00, -1.00, 62.5, 67.0)">v</text><text xml:space="preserve" font-family="AvenirNext-Medium" font-size="18.0" fill="#F6FEFF" transform="matrix(1.00, 0.00, -0.00, -1.00, 71.5, 67.0)">e</text><text xml:space="preserve" font-family="AvenirNext-Medium" font-size="18.0" fill="#F6FEFF" transform="matrix(1.00, 0.00, -0.00, -1.00, 81.8, 67.0)">I</text><text xml:space="preserve" font-family="AvenirNext-Medium" font-size="18.0" fill="#F6FEFF" transform="matrix(1.00, 0.00, -0.00, -1.00, 86.7, 67.0)">t</text><text xml:space="preserve" font-family="AvenirNext-Medium" font-size="18.0" fill="#F6FEFF" transform="matrix(1.00, 0.00, -0.00, -1.00, 92.6, 67.0)">e</text><text xml:space="preserve" font-family="AvenirNext-Medium" font-size="18.0" fill="#F6FEFF" transform="matrix(1.00, 0.00, -0.00, -1.00, 103.0, 67.0)">m</text><text xml:space="preserve" font-family="AvenirNext-Medium" font-size="18.0" fill="#F6FEFF" transform="matrix(1.00, 0.00, -0.00, -1.00, 118.9, 67.0)">(</text><text xml:space="preserve" font-family="AvenirNext-Medium" font-size="18.0" fill="#F6FEFF" transform="matrix(1.00, 0.00, -0.00, -1.00, 124.6, 67.0)">i</text><text xml:space="preserve" font-family="AvenirNext-Medium" font-size="18.0" fill="#F6FEFF" transform="matrix(1.00, 0.00, -0.00, -1.00, 129.2, 67.0)">t</text><text xml:space="preserve" font-family="AvenirNext-Medium" font-size="18.0" fill="#F6FEFF" transform="matrix(1.00, 0.00, -0.00, -1.00, 135.2, 67.0)">e</text><text xml:space="preserve" font-family="AvenirNext-Medium" font-size="18.0" fill="#F6FEFF" transform="matrix(1.00, 0.00, -0.00, -1.00, 145.5, 67.0)">m</text><text xml:space="preserve" font-family="AvenirNext-Medium" font-size="18.0" fill="#F6FEFF" transform="matrix(1.00, 0.00, -0.00, -1.00, 161.5, 67.0)">)</text><text xml:space="preserve" font-family="AvenirNext-Medium" font-size="18.0" fill="#F6FEFF" transform="matrix(1.00, 0.00, -0.00, -1.00, 167.1, 67.0)">;</text><text xml:space="preserve" font-family="AvenirNext-Medium" font-size="18.0" fill="#F6FEFF" transform="matrix(1.00, 0.00, -0.00, -1.00, 172.5, 67.0)"> </text><text xml:space="preserve" font-family="AvenirNext-Medium" font-size="18.0" fill="#F6FEFF" transform="matrix(1.00, 0.00, -0.00, -1.00, 1.0, 36.0)"> </text><text xml:space="preserve" font-family="AvenirNext-Medium" font-size="18.0" fill="#F6FEFF" transform="matrix(1.00, 0.00, -0.00, -1.00, 5.5, 36.0)"> </text><text xml:space="preserve" font-family="AvenirNext-Medium" font-size="18.0" fill="#F6FEFF" transform="matrix(1.00, 0.00, -0.00, -1.00, 10.0, 36.0)">}</text><text xml:space="preserve" font-family="AvenirNext-Medium" font-size="18.0" fill="#F6FEFF" transform="matrix(1.00, 0.00, -0.00, -1.00, 15.7, 36.0)">;</text><text xml:space="preserve" font-family="AvenirNext-Medium" font-size="18.0" fill="#F6FEFF" transform="matrix(1.00, 0.00, -0.00, -1.00, 21.1, 36.0)"> </text><text xml:space="preserve" font-family="AvenirNext-Medium" font-size="18.0" fill="#F6FEFF" transform="matrix(1.00, 0.00, -0.00, -1.00, 1.0, 5.0)">}</text><text xml:space="preserve" font-family="AvenirNext-Medium" font-size="18.0" fill="#F6FEFF" transform="matrix(1.00, 0.00, -0.00, -1.00, 6.7, 5.0)">]</text><text xml:space="preserve" font-family="AvenirNext-Medium" font-size="18.0" fill="#F6FEFF" transform="matrix(1.00, 0.00, -0.00, -1.00, 12.3, 5.0)">)</text><text xml:space="preserve" font-family="AvenirNext-Medium" font-size="18.0" fill="#F6FEFF" transform="matrix(1.00, 0.00, -0.00, -1.00, 18.0, 5.0)">;</text></g></svg>