<?xml version="1.0" encoding="UTF-8" standalone="no"?><svg xmlns="http://www.w3.org/2000/svg" xmlns:xlink="http://www.w3.org/1999/xlink" clip-rule="evenodd" stroke-miterlimit="4.00" viewBox="0 0 1024 768"><desc>SVG generated by Keynote</desc><defs></defs><g transform="matrix(1.00, 0.00, -0.00, -1.00, 0.0, 768.0)"><path d="M 0.0 768.0 L 1024.0 768.0 L 1024.0 0.0 L 0.0 0.0 Z M 0.0 768.0 " fill="#212121"></path><text xml:space="preserve" font-family="Corbel-Bold" font-weight="bold" font-size="70.4" fill="#34A4DA" transform="matrix(1.00, 0.00, -0.00, -1.00, 8.0, 699.0)">n</text><text xml:space="preserve" font-family="Corbel-Bold" font-weight="bold" font-size="70.4" fill="#34A4DA" transform="matrix(1.00, 0.00, -0.00, -1.00, 47.0, 699.0)">g</text><text xml:space="preserve" font-family="Corbel-Bold" font-weight="bold" font-size="70.4" fill="#34A4DA" transform="matrix(1.00, 0.00, -0.00, -1.00, 85.7, 699.0)">-</text><text xml:space="preserve" font-family="Corbel-Bold" font-weight="bold" font-size="70.4" fill="#34A4DA" transform="matrix(1.00, 0.00, -0.00, -1.00, 109.1, 699.0)">b</text><text xml:space="preserve" font-family="Corbel-Bold" font-weight="bold" font-size="70.4" fill="#34A4DA" transform="matrix(1.00, 0.00, -0.00, -1.00, 148.3, 699.0)">e</text><text xml:space="preserve" font-family="Corbel-Bold" font-weight="bold" font-size="70.4" fill="#34A4DA" transform="matrix(1.00, 0.00, -0.00, -1.00, 184.4, 699.0)">s</text><text xml:space="preserve" font-family="Corbel-Bold" font-weight="bold" font-size="70.4" fill="#34A4DA" transform="matrix(1.00, 0.00, -0.00, -1.00, 214.2, 699.0)">t</text><text xml:space="preserve" font-family="Corbel-Bold" font-weight="bold" font-size="70.4" fill="#34A4DA" transform="matrix(1.00, 0.00, -0.00, -1.00, 239.5, 699.0)">-</text><text xml:space="preserve" font-family="Corbel-Bold" font-weight="bold" font-size="70.4" fill="#34A4DA" transform="matrix(1.00, 0.00, -0.00, -1.00, 262.9, 699.0)">p</text><text xml:space="preserve" font-family="Corbel-Bold" font-weight="bold" font-size="70.4" fill="#34A4DA" transform="matrix(1.00, 0.00, -0.00, -1.00, 301.6, 699.0)">r</text><text xml:space="preserve" font-family="Corbel-Bold" font-weight="bold" font-size="70.4" fill="#34A4DA" transform="matrix(1.00, 0.00, -0.00, -1.00, 326.2, 699.0)">a</text><text xml:space="preserve" font-family="Corbel-Bold" font-weight="bold" font-size="70.4" fill="#34A4DA" transform="matrix(1.00, 0.00, -0.00, -1.00, 362.4, 699.0)">c</text><text xml:space="preserve" font-family="Corbel-Bold" font-weight="bold" font-size="70.4" fill="#34A4DA" transform="matrix(1.00, 0.00, -0.00, -1.00, 393.4, 699.0)">t</text><text xml:space="preserve" font-family="Corbel-Bold" font-weight="bold" font-size="70.4" fill="#34A4DA" transform="matrix(1.00, 0.00, -0.00, -1.00, 420.2, 699.0)">i</text><text xml:space="preserve" font-family="Corbel-Bold" font-weight="bold" font-size="70.4" fill="#34A4DA" transform="matrix(1.00, 0.00, -0.00, -1.00, 437.7, 699.0)">c</text><text xml:space="preserve" font-family="Corbel-Bold" font-weight="bold" font-size="70.4" fill="#34A4DA" transform="matrix(1.00, 0.00, -0.00, -1.00, 468.7, 699.0)">e</text><text xml:space="preserve" font-family="Corbel-Bold" font-weight="bold" font-size="70.4" fill="#34A4DA" transform="matrix(1.00, 0.00, -0.00, -1.00, 504.8, 699.0)">s</text><path d="M 0.0 0.0 L 1037.2 0.0 " fill="none" stroke="#34A4DA" stroke-width="1.00" transform="matrix(1.00, 0.00, 0.00, -1.00, 1.5, 665.0)"></path><text xml:space="preserve" font-family="AvenirNext-DemiBold" font-weight="bold" font-size="36.0" fill="#F6FEFF" transform="matrix(1.00, 0.00, -0.00, -1.00, 8.0, 618.0)">F</text><text xml:space="preserve" font-family="AvenirNext-DemiBold" font-weight="bold" font-size="36.0" fill="#F6FEFF" transform="matrix(1.00, 0.00, -0.00, -1.00, 26.9, 618.0)">o</text><text xml:space="preserve" font-family="AvenirNext-DemiBold" font-weight="bold" font-size="36.0" fill="#F6FEFF" transform="matrix(1.00, 0.00, -0.00, -1.00, 48.9, 618.0)">l</text><text xml:space="preserve" font-family="AvenirNext-DemiBold" font-weight="bold" font-size="36.0" fill="#F6FEFF" transform="matrix(1.00, 0.00, -0.00, -1.00, 58.5, 618.0)">d</text><text xml:space="preserve" font-family="AvenirNext-DemiBold" font-weight="bold" font-size="36.0" fill="#F6FEFF" transform="matrix(1.00, 0.00, -0.00, -1.00, 81.3, 618.0)">e</text><text xml:space="preserve" font-family="AvenirNext-DemiBold" font-weight="bold" font-size="36.0" fill="#F6FEFF" transform="matrix(1.00, 0.00, -0.00, -1.00, 102.0, 618.0)">r</text><text xml:space="preserve" font-family="AvenirNext-DemiBold" font-weight="bold" font-size="36.0" fill="#F6FEFF" transform="matrix(1.00, 0.00, -0.00, -1.00, 114.4, 618.0)">-</text><text xml:space="preserve" font-family="AvenirNext-DemiBold" font-weight="bold" font-size="36.0" fill="#F6FEFF" transform="matrix(1.00, 0.00, -0.00, -1.00, 125.9, 618.0)">p</text><text xml:space="preserve" font-family="AvenirNext-DemiBold" font-weight="bold" font-size="36.0" fill="#F6FEFF" transform="matrix(1.00, 0.00, -0.00, -1.00, 148.7, 618.0)">e</text><text xml:space="preserve" font-family="AvenirNext-DemiBold" font-weight="bold" font-size="36.0" fill="#F6FEFF" transform="matrix(1.00, 0.00, -0.00, -1.00, 169.4, 618.0)">r</text><text xml:space="preserve" font-family="AvenirNext-DemiBold" font-weight="bold" font-size="36.0" fill="#F6FEFF" transform="matrix(1.00, 0.00, -0.00, -1.00, 181.7, 618.0)">-</text><text xml:space="preserve" font-family="AvenirNext-DemiBold" font-weight="bold" font-size="36.0" fill="#F6FEFF" transform="matrix(1.00, 0.00, -0.00, -1.00, 193.3, 618.0)">f</text><text xml:space="preserve" font-family="AvenirNext-DemiBold" font-weight="bold" font-size="36.0" fill="#F6FEFF" transform="matrix(1.00, 0.00, -0.00, -1.00, 204.9, 618.0)">e</text><text xml:space="preserve" font-family="AvenirNext-DemiBold" font-weight="bold" font-size="36.0" fill="#F6FEFF" transform="matrix(1.00, 0.00, -0.00, -1.00, 225.4, 618.0)">a</text><text xml:space="preserve" font-family="AvenirNext-DemiBold" font-weight="bold" font-size="36.0" fill="#F6FEFF" transform="matrix(1.00, 0.00, -0.00, -1.00, 244.8, 618.0)">t</text><text xml:space="preserve" font-family="AvenirNext-DemiBold" font-weight="bold" font-size="36.0" fill="#F6FEFF" transform="matrix(1.00, 0.00, -0.00, -1.00, 257.0, 618.0)">u</text><text xml:space="preserve" font-family="AvenirNext-DemiBold" font-weight="bold" font-size="36.0" fill="#F6FEFF" transform="matrix(1.00, 0.00, -0.00, -1.00, 278.0, 618.0)">r</text><text xml:space="preserve" font-family="AvenirNext-DemiBold" font-weight="bold" font-size="36.0" fill="#F6FEFF" transform="matrix(1.00, 0.00, -0.00, -1.00, 290.5, 618.0)">e</text><text xml:space="preserve" font-family="AvenirNext-DemiBold" font-weight="bold" font-size="36.0" fill="#F6FEFF" transform="matrix(1.00, 0.00, -0.00, -1.00, 311.1, 618.0)"> </text><text xml:space="preserve" font-family="AvenirNext-DemiBold" font-weight="bold" font-size="36.0" fill="#F6FEFF" transform="matrix(1.00, 0.00, -0.00, -1.00, 320.1, 618.0)">i</text><text xml:space="preserve" font-family="AvenirNext-DemiBold" font-weight="bold" font-size="36.0" fill="#F6FEFF" transform="matrix(1.00, 0.00, -0.00, -1.00, 329.8, 618.0)">n</text><text xml:space="preserve" font-family="AvenirNext-DemiBold" font-weight="bold" font-size="36.0" fill="#F6FEFF" transform="matrix(1.00, 0.00, -0.00, -1.00, 350.7, 618.0)">s</text><text xml:space="preserve" font-family="AvenirNext-DemiBold" font-weight="bold" font-size="36.0" fill="#F6FEFF" transform="matrix(1.00, 0.00, -0.00, -1.00, 366.7, 618.0)">t</text><text xml:space="preserve" font-family="AvenirNext-DemiBold" font-weight="bold" font-size="36.0" fill="#F6FEFF" transform="matrix(1.00, 0.00, -0.00, -1.00, 378.9, 618.0)">e</text><text xml:space="preserve" font-family="AvenirNext-DemiBold" font-weight="bold" font-size="36.0" fill="#F6FEFF" transform="matrix(1.00, 0.00, -0.00, -1.00, 399.4, 618.0)">a</text><text xml:space="preserve" font-family="AvenirNext-DemiBold" font-weight="bold" font-size="36.0" fill="#F6FEFF" transform="matrix(1.00, 0.00, -0.00, -1.00, 419.2, 618.0)">d</text><text xml:space="preserve" font-family="AvenirNext-DemiBold" font-weight="bold" font-size="36.0" fill="#F6FEFF" transform="matrix(1.00, 0.00, -0.00, -1.00, 442.0, 618.0)"> </text><text xml:space="preserve" font-family="AvenirNext-DemiBold" font-weight="bold" font-size="36.0" fill="#F6FEFF" transform="matrix(1.00, 0.00, -0.00, -1.00, 451.0, 618.0)">f</text><text xml:space="preserve" font-family="AvenirNext-DemiBold" font-weight="bold" font-size="36.0" fill="#F6FEFF" transform="matrix(1.00, 0.00, -0.00, -1.00, 462.7, 618.0)">o</text><text xml:space="preserve" font-family="AvenirNext-DemiBold" font-weight="bold" font-size="36.0" fill="#F6FEFF" transform="matrix(1.00, 0.00, -0.00, -1.00, 484.6, 618.0)">l</text><text xml:space="preserve" font-family="AvenirNext-DemiBold" font-weight="bold" font-size="36.0" fill="#F6FEFF" transform="matrix(1.00, 0.00, -0.00, -1.00, 494.3, 618.0)">d</text><text xml:space="preserve" font-family="AvenirNext-DemiBold" font-weight="bold" font-size="36.0" fill="#F6FEFF" transform="matrix(1.00, 0.00, -0.00, -1.00, 517.1, 618.0)">e</text><text xml:space="preserve" font-family="AvenirNext-DemiBold" font-weight="bold" font-size="36.0" fill="#F6FEFF" transform="matrix(1.00, 0.00, -0.00, -1.00, 537.8, 618.0)">r</text><text xml:space="preserve" font-family="AvenirNext-DemiBold" font-weight="bold" font-size="36.0" fill="#F6FEFF" transform="matrix(1.00, 0.00, -0.00, -1.00, 550.2, 618.0)">-</text><text xml:space="preserve" font-family="AvenirNext-DemiBold" font-weight="bold" font-size="36.0" fill="#F6FEFF" transform="matrix(1.00, 0.00, -0.00, -1.00, 561.7, 618.0)">p</text><text xml:space="preserve" font-family="AvenirNext-DemiBold" font-weight="bold" font-size="36.0" fill="#F6FEFF" transform="matrix(1.00, 0.00, -0.00, -1.00, 584.5, 618.0)">e</text><text xml:space="preserve" font-family="AvenirNext-DemiBold" font-weight="bold" font-size="36.0" fill="#F6FEFF" transform="matrix(1.00, 0.00, -0.00, -1.00, 605.1, 618.0)">r</text><text xml:space="preserve" font-family="AvenirNext-DemiBold" font-weight="bold" font-size="36.0" fill="#F6FEFF" transform="matrix(1.00, 0.00, -0.00, -1.00, 617.5, 618.0)">-</text><text xml:space="preserve" font-family="AvenirNext-DemiBold" font-weight="bold" font-size="36.0" fill="#F6FEFF" transform="matrix(1.00, 0.00, -0.00, -1.00, 629.0, 618.0)">t</text><text xml:space="preserve" font-family="AvenirNext-DemiBold" font-weight="bold" font-size="36.0" fill="#F6FEFF" transform="matrix(1.00, 0.00, -0.00, -1.00, 641.3, 618.0)">y</text><text xml:space="preserve" font-family="AvenirNext-DemiBold" font-weight="bold" font-size="36.0" fill="#F6FEFF" transform="matrix(1.00, 0.00, -0.00, -1.00, 659.7, 618.0)">p</text><text xml:space="preserve" font-family="AvenirNext-DemiBold" font-weight="bold" font-size="36.0" fill="#F6FEFF" transform="matrix(1.00, 0.00, -0.00, -1.00, 682.5, 618.0)">e</text><image xlink:href="../../4900C140-F3BA-4ED1-B647-88CD4DAFBEC5/assets/B9DF544A0638569512F3005A29F6D03C.jpeg" width="245.00" height="567.00" transform="matrix(1.00, 0.00, -0.00, -1.00, 359.0, 595.0)"></image><image xlink:href="../../4900C140-F3BA-4ED1-B647-88CD4DAFBEC5/assets/830AD0C03CADE049B75FF077CACC8080.jpeg" width="246.00" height="556.00" transform="matrix(1.00, 0.00, -0.00, -1.00, 677.0, 589.0)"></image><image xlink:href="../../4900C140-F3BA-4ED1-B647-88CD4DAFBEC5/assets/8EA996FBDCD723862C66943D8A6EFB00.png" width="278.00" height="246.00" transform="matrix(1.00, 0.00, -0.00, -1.00, 8.0, 434.0)"></image></g></svg>