<?xml version="1.0" encoding="UTF-8" standalone="no"?><svg xmlns="http://www.w3.org/2000/svg" xmlns:xlink="http://www.w3.org/1999/xlink" clip-rule="evenodd" stroke-miterlimit="4.00" viewBox="0 0 520 40"><desc>SVG generated by Keynote</desc><defs></defs><g transform="matrix(1.00, 0.00, -0.00, -1.00, 0.0, 40.0)"><text xml:space="preserve" font-family="AvenirNext-DemiBold" font-weight="bold" font-size="36.0" fill="#F6FEFF" transform="matrix(1.00, 0.00, -0.00, -1.00, 0.0, 10.0)">K</text><text xml:space="preserve" font-family="AvenirNext-DemiBold" font-weight="bold" font-size="36.0" fill="#F6FEFF" transform="matrix(1.00, 0.00, -0.00, -1.00, 23.7, 10.0)">e</text><text xml:space="preserve" font-family="AvenirNext-DemiBold" font-weight="bold" font-size="36.0" fill="#F6FEFF" transform="matrix(1.00, 0.00, -0.00, -1.00, 44.4, 10.0)">e</text><text xml:space="preserve" font-family="AvenirNext-DemiBold" font-weight="bold" font-size="36.0" fill="#F6FEFF" transform="matrix(1.00, 0.00, -0.00, -1.00, 65.1, 10.0)">p</text><text xml:space="preserve" font-family="AvenirNext-DemiBold" font-weight="bold" font-size="36.0" fill="#F6FEFF" transform="matrix(1.00, 0.00, -0.00, -1.00, 87.8, 10.0)"> </text><text xml:space="preserve" font-family="AvenirNext-DemiBold" font-weight="bold" font-size="36.0" fill="#F6FEFF" transform="matrix(1.00, 0.00, -0.00, -1.00, 96.8, 10.0)">s</text><text xml:space="preserve" font-family="AvenirNext-DemiBold" font-weight="bold" font-size="36.0" fill="#F6FEFF" transform="matrix(1.00, 0.00, -0.00, -1.00, 112.8, 10.0)">c</text><text xml:space="preserve" font-family="AvenirNext-DemiBold" font-weight="bold" font-size="36.0" fill="#F6FEFF" transform="matrix(1.00, 0.00, -0.00, -1.00, 130.4, 10.0)">o</text><text xml:space="preserve" font-family="AvenirNext-DemiBold" font-weight="bold" font-size="36.0" fill="#F6FEFF" transform="matrix(1.00, 0.00, -0.00, -1.00, 152.4, 10.0)">p</text><text xml:space="preserve" font-family="AvenirNext-DemiBold" font-weight="bold" font-size="36.0" fill="#F6FEFF" transform="matrix(1.00, 0.00, -0.00, -1.00, 175.1, 10.0)">e</text><text xml:space="preserve" font-family="AvenirNext-DemiBold" font-weight="bold" font-size="36.0" fill="#F6FEFF" transform="matrix(1.00, 0.00, -0.00, -1.00, 195.8, 10.0)"> </text><text xml:space="preserve" font-family="AvenirNext-DemiBold" font-weight="bold" font-size="36.0" fill="#F6FEFF" transform="matrix(1.00, 0.00, -0.00, -1.00, 204.8, 10.0)">s</text><text xml:space="preserve" font-family="AvenirNext-DemiBold" font-weight="bold" font-size="36.0" fill="#F6FEFF" transform="matrix(1.00, 0.00, -0.00, -1.00, 220.8, 10.0)">l</text><text xml:space="preserve" font-family="AvenirNext-DemiBold" font-weight="bold" font-size="36.0" fill="#F6FEFF" transform="matrix(1.00, 0.00, -0.00, -1.00, 230.4, 10.0)">i</text><text xml:space="preserve" font-family="AvenirNext-DemiBold" font-weight="bold" font-size="36.0" fill="#F6FEFF" transform="matrix(1.00, 0.00, -0.00, -1.00, 240.1, 10.0)">m</text><text xml:space="preserve" font-family="AvenirNext-DemiBold" font-weight="bold" font-size="36.0" fill="#F6FEFF" transform="matrix(1.00, 0.00, -0.00, -1.00, 272.1, 10.0)"> </text><text xml:space="preserve" font-family="AvenirNext-DemiBold" font-weight="bold" font-size="36.0" fill="#F6FEFF" transform="matrix(1.00, 0.00, -0.00, -1.00, 281.1, 10.0)">a</text><text xml:space="preserve" font-family="AvenirNext-DemiBold" font-weight="bold" font-size="36.0" fill="#F6FEFF" transform="matrix(1.00, 0.00, -0.00, -1.00, 300.9, 10.0)">n</text><text xml:space="preserve" font-family="AvenirNext-DemiBold" font-weight="bold" font-size="36.0" fill="#F6FEFF" transform="matrix(1.00, 0.00, -0.00, -1.00, 321.9, 10.0)">d</text><text xml:space="preserve" font-family="AvenirNext-DemiBold" font-weight="bold" font-size="36.0" fill="#F6FEFF" transform="matrix(1.00, 0.00, -0.00, -1.00, 344.7, 10.0)"> </text><text xml:space="preserve" font-family="AvenirNext-DemiBold" font-weight="bold" font-size="36.0" fill="#F6FEFF" transform="matrix(1.00, 0.00, -0.00, -1.00, 353.7, 10.0)">o</text><text xml:space="preserve" font-family="AvenirNext-DemiBold" font-weight="bold" font-size="36.0" fill="#F6FEFF" transform="matrix(1.00, 0.00, -0.00, -1.00, 375.7, 10.0)">r</text><text xml:space="preserve" font-family="AvenirNext-DemiBold" font-weight="bold" font-size="36.0" fill="#F6FEFF" transform="matrix(1.00, 0.00, -0.00, -1.00, 388.1, 10.0)">g</text><text xml:space="preserve" font-family="AvenirNext-DemiBold" font-weight="bold" font-size="36.0" fill="#F6FEFF" transform="matrix(1.00, 0.00, -0.00, -1.00, 410.9, 10.0)">a</text><text xml:space="preserve" font-family="AvenirNext-DemiBold" font-weight="bold" font-size="36.0" fill="#F6FEFF" transform="matrix(1.00, 0.00, -0.00, -1.00, 430.7, 10.0)">n</text><text xml:space="preserve" font-family="AvenirNext-DemiBold" font-weight="bold" font-size="36.0" fill="#F6FEFF" transform="matrix(1.00, 0.00, -0.00, -1.00, 451.6, 10.0)">i</text><text xml:space="preserve" font-family="AvenirNext-DemiBold" font-weight="bold" font-size="36.0" fill="#F6FEFF" transform="matrix(1.00, 0.00, -0.00, -1.00, 461.3, 10.0)">s</text><text xml:space="preserve" font-family="AvenirNext-DemiBold" font-weight="bold" font-size="36.0" fill="#F6FEFF" transform="matrix(1.00, 0.00, -0.00, -1.00, 477.3, 10.0)">e</text><text xml:space="preserve" font-family="AvenirNext-DemiBold" font-weight="bold" font-size="36.0" fill="#F6FEFF" transform="matrix(1.00, 0.00, -0.00, -1.00, 497.9, 10.0)">d</text></g></svg>