<?xml version="1.0" encoding="UTF-8" standalone="no"?><svg xmlns="http://www.w3.org/2000/svg" xmlns:xlink="http://www.w3.org/1999/xlink" clip-rule="evenodd" stroke-miterlimit="4.00" viewBox="0 0 458 260"><desc>SVG generated by Keynote</desc><defs></defs><g transform="matrix(1.00, 0.00, -0.00, -1.00, 0.0, 260.0)"><text xml:space="preserve" font-family="AvenirNext-Medium" font-size="18.0" fill="#F6FEFF" transform="matrix(1.00, 0.00, -0.00, -1.00, 2.0, 244.0)">a</text><text xml:space="preserve" font-family="AvenirNext-Medium" font-size="18.0" fill="#F6FEFF" transform="matrix(1.00, 0.00, -0.00, -1.00, 11.8, 244.0)">n</text><text xml:space="preserve" font-family="AvenirNext-Medium" font-size="18.0" fill="#F6FEFF" transform="matrix(1.00, 0.00, -0.00, -1.00, 22.2, 244.0)">g</text><text xml:space="preserve" font-family="AvenirNext-Medium" font-size="18.0" fill="#F6FEFF" transform="matrix(1.00, 0.00, -0.00, -1.00, 33.6, 244.0)">u</text><text xml:space="preserve" font-family="AvenirNext-Medium" font-size="18.0" fill="#F6FEFF" transform="matrix(1.00, 0.00, -0.00, -1.00, 44.1, 244.0)">l</text><text xml:space="preserve" font-family="AvenirNext-Medium" font-size="18.0" fill="#F6FEFF" transform="matrix(1.00, 0.00, -0.00, -1.00, 48.8, 244.0)">a</text><text xml:space="preserve" font-family="AvenirNext-Medium" font-size="18.0" fill="#F6FEFF" transform="matrix(1.00, 0.00, -0.00, -1.00, 58.5, 244.0)">r</text><text xml:space="preserve" font-family="AvenirNext-Medium" font-size="18.0" fill="#F6FEFF" transform="matrix(1.00, 0.00, -0.00, -1.00, 65.0, 244.0)"> </text><text xml:space="preserve" font-family="AvenirNext-Medium" font-size="18.0" fill="#F6FEFF" transform="matrix(1.00, 0.00, -0.00, -1.00, 2.0, 213.0)"> </text><text xml:space="preserve" font-family="AvenirNext-Medium" font-size="18.0" fill="#F6FEFF" transform="matrix(1.00, 0.00, -0.00, -1.00, 6.5, 213.0)"> </text><text xml:space="preserve" font-family="AvenirNext-Medium" font-size="18.0" fill="#F6FEFF" transform="matrix(1.00, 0.00, -0.00, -1.00, 11.0, 213.0)"> </text><text xml:space="preserve" font-family="AvenirNext-Medium" font-size="18.0" fill="#F6FEFF" transform="matrix(1.00, 0.00, -0.00, -1.00, 15.5, 213.0)"> </text><text xml:space="preserve" font-family="AvenirNext-Medium" font-size="18.0" fill="#F6FEFF" transform="matrix(1.00, 0.00, -0.00, -1.00, 20.0, 213.0)">.</text><text xml:space="preserve" font-family="AvenirNext-Medium" font-size="18.0" fill="#F6FEFF" transform="matrix(1.00, 0.00, -0.00, -1.00, 24.7, 213.0)">m</text><text xml:space="preserve" font-family="AvenirNext-Medium" font-size="18.0" fill="#F6FEFF" transform="matrix(1.00, 0.00, -0.00, -1.00, 40.6, 213.0)">o</text><text xml:space="preserve" font-family="AvenirNext-Medium" font-size="18.0" fill="#F6FEFF" transform="matrix(1.00, 0.00, -0.00, -1.00, 51.6, 213.0)">d</text><text xml:space="preserve" font-family="AvenirNext-Medium" font-size="18.0" fill="#F6FEFF" transform="matrix(1.00, 0.00, -0.00, -1.00, 63.1, 213.0)">u</text><text xml:space="preserve" font-family="AvenirNext-Medium" font-size="18.0" fill="#F6FEFF" transform="matrix(1.00, 0.00, -0.00, -1.00, 73.5, 213.0)">l</text><text xml:space="preserve" font-family="AvenirNext-Medium" font-size="18.0" fill="#F6FEFF" transform="matrix(1.00, 0.00, -0.00, -1.00, 78.2, 213.0)">e</text><text xml:space="preserve" font-family="AvenirNext-Medium" font-size="18.0" fill="#F6FEFF" transform="matrix(1.00, 0.00, -0.00, -1.00, 88.5, 213.0)">(</text><text xml:space="preserve" font-family="AvenirNext-Medium" font-size="18.0" fill="#F6FEFF" transform="matrix(1.00, 0.00, -0.00, -1.00, 94.2, 213.0)">'</text><text xml:space="preserve" font-family="AvenirNext-Medium" font-size="18.0" fill="#F6FEFF" transform="matrix(1.00, 0.00, -0.00, -1.00, 98.9, 213.0)">a</text><text xml:space="preserve" font-family="AvenirNext-Medium" font-size="18.0" fill="#F6FEFF" transform="matrix(1.00, 0.00, -0.00, -1.00, 108.7, 213.0)">p</text><text xml:space="preserve" font-family="AvenirNext-Medium" font-size="18.0" fill="#F6FEFF" transform="matrix(1.00, 0.00, -0.00, -1.00, 120.1, 213.0)">p</text><text xml:space="preserve" font-family="AvenirNext-Medium" font-size="18.0" fill="#F6FEFF" transform="matrix(1.00, 0.00, -0.00, -1.00, 131.5, 213.0)">'</text><text xml:space="preserve" font-family="AvenirNext-Medium" font-size="18.0" fill="#F6FEFF" transform="matrix(1.00, 0.00, -0.00, -1.00, 136.2, 213.0)">)</text><text xml:space="preserve" font-family="AvenirNext-Medium" font-size="18.0" fill="#F6FEFF" transform="matrix(1.00, 0.00, -0.00, -1.00, 141.9, 213.0)"> </text><text xml:space="preserve" font-family="AvenirNext-Medium" font-size="18.0" fill="#F6FEFF" transform="matrix(1.00, 0.00, -0.00, -1.00, 2.0, 182.0)"> </text><text xml:space="preserve" font-family="AvenirNext-Medium" font-size="18.0" fill="#F6FEFF" transform="matrix(1.00, 0.00, -0.00, -1.00, 6.5, 182.0)"> </text><text xml:space="preserve" font-family="AvenirNext-Medium" font-size="18.0" fill="#F6FEFF" transform="matrix(1.00, 0.00, -0.00, -1.00, 11.0, 182.0)"> </text><text xml:space="preserve" font-family="AvenirNext-Medium" font-size="18.0" fill="#F6FEFF" transform="matrix(1.00, 0.00, -0.00, -1.00, 15.5, 182.0)"> </text><text xml:space="preserve" font-family="AvenirNext-Medium" font-size="18.0" fill="#F6FEFF" transform="matrix(1.00, 0.00, -0.00, -1.00, 20.0, 182.0)">.</text><text xml:space="preserve" font-family="AvenirNext-Medium" font-size="18.0" fill="#F6FEFF" transform="matrix(1.00, 0.00, -0.00, -1.00, 24.7, 182.0)">c</text><text xml:space="preserve" font-family="AvenirNext-Medium" font-size="18.0" fill="#F6FEFF" transform="matrix(1.00, 0.00, -0.00, -1.00, 33.6, 182.0)">o</text><text xml:space="preserve" font-family="AvenirNext-Medium" font-size="18.0" fill="#F6FEFF" transform="matrix(1.00, 0.00, -0.00, -1.00, 44.6, 182.0)">n</text><text xml:space="preserve" font-family="AvenirNext-Medium" font-size="18.0" fill="#F6FEFF" transform="matrix(1.00, 0.00, -0.00, -1.00, 55.0, 182.0)">t</text><text xml:space="preserve" font-family="AvenirNext-Medium" font-size="18.0" fill="#F6FEFF" transform="matrix(1.00, 0.00, -0.00, -1.00, 60.9, 182.0)">r</text><text xml:space="preserve" font-family="AvenirNext-Medium" font-size="18.0" fill="#F6FEFF" transform="matrix(1.00, 0.00, -0.00, -1.00, 67.1, 182.0)">o</text><text xml:space="preserve" font-family="AvenirNext-Medium" font-size="18.0" fill="#F6FEFF" transform="matrix(1.00, 0.00, -0.00, -1.00, 78.1, 182.0)">l</text><text xml:space="preserve" font-family="AvenirNext-Medium" font-size="18.0" fill="#F6FEFF" transform="matrix(1.00, 0.00, -0.00, -1.00, 82.8, 182.0)">l</text><text xml:space="preserve" font-family="AvenirNext-Medium" font-size="18.0" fill="#F6FEFF" transform="matrix(1.00, 0.00, -0.00, -1.00, 87.5, 182.0)">e</text><text xml:space="preserve" font-family="AvenirNext-Medium" font-size="18.0" fill="#F6FEFF" transform="matrix(1.00, 0.00, -0.00, -1.00, 97.8, 182.0)">r</text><text xml:space="preserve" font-family="AvenirNext-Medium" font-size="18.0" fill="#F6FEFF" transform="matrix(1.00, 0.00, -0.00, -1.00, 104.3, 182.0)">(</text><text xml:space="preserve" font-family="AvenirNext-Medium" font-size="18.0" fill="#F6FEFF" transform="matrix(1.00, 0.00, -0.00, -1.00, 110.0, 182.0)">'</text><text xml:space="preserve" font-family="AvenirNext-Medium" font-size="18.0" fill="#F6FEFF" transform="matrix(1.00, 0.00, -0.00, -1.00, 114.7, 182.0)">D</text><text xml:space="preserve" font-family="AvenirNext-Medium" font-size="18.0" fill="#F6FEFF" transform="matrix(1.00, 0.00, -0.00, -1.00, 128.4, 182.0)">a</text><text xml:space="preserve" font-family="AvenirNext-Medium" font-size="18.0" fill="#F6FEFF" transform="matrix(1.00, 0.00, -0.00, -1.00, 138.2, 182.0)">s</text><text xml:space="preserve" font-family="AvenirNext-Medium" font-size="18.0" fill="#F6FEFF" transform="matrix(1.00, 0.00, -0.00, -1.00, 146.1, 182.0)">h</text><text xml:space="preserve" font-family="AvenirNext-Medium" font-size="18.0" fill="#F6FEFF" transform="matrix(1.00, 0.00, -0.00, -1.00, 156.7, 182.0)">b</text><text xml:space="preserve" font-family="AvenirNext-Medium" font-size="18.0" fill="#F6FEFF" transform="matrix(1.00, 0.00, -0.00, -1.00, 168.1, 182.0)">o</text><text xml:space="preserve" font-family="AvenirNext-Medium" font-size="18.0" fill="#F6FEFF" transform="matrix(1.00, 0.00, -0.00, -1.00, 179.1, 182.0)">a</text><text xml:space="preserve" font-family="AvenirNext-Medium" font-size="18.0" fill="#F6FEFF" transform="matrix(1.00, 0.00, -0.00, -1.00, 188.8, 182.0)">r</text><text xml:space="preserve" font-family="AvenirNext-Medium" font-size="18.0" fill="#F6FEFF" transform="matrix(1.00, 0.00, -0.00, -1.00, 195.0, 182.0)">d</text><text xml:space="preserve" font-family="AvenirNext-Medium" font-size="18.0" fill="#F6FEFF" transform="matrix(1.00, 0.00, -0.00, -1.00, 206.5, 182.0)">C</text><text xml:space="preserve" font-family="AvenirNext-Medium" font-size="18.0" fill="#F6FEFF" transform="matrix(1.00, 0.00, -0.00, -1.00, 219.0, 182.0)">o</text><text xml:space="preserve" font-family="AvenirNext-Medium" font-size="18.0" fill="#F6FEFF" transform="matrix(1.00, 0.00, -0.00, -1.00, 230.0, 182.0)">n</text><text xml:space="preserve" font-family="AvenirNext-Medium" font-size="18.0" fill="#F6FEFF" transform="matrix(1.00, 0.00, -0.00, -1.00, 240.4, 182.0)">t</text><text xml:space="preserve" font-family="AvenirNext-Medium" font-size="18.0" fill="#F6FEFF" transform="matrix(1.00, 0.00, -0.00, -1.00, 246.4, 182.0)">r</text><text xml:space="preserve" font-family="AvenirNext-Medium" font-size="18.0" fill="#F6FEFF" transform="matrix(1.00, 0.00, -0.00, -1.00, 252.6, 182.0)">o</text><text xml:space="preserve" font-family="AvenirNext-Medium" font-size="18.0" fill="#F6FEFF" transform="matrix(1.00, 0.00, -0.00, -1.00, 263.5, 182.0)">l</text><text xml:space="preserve" font-family="AvenirNext-Medium" font-size="18.0" fill="#F6FEFF" transform="matrix(1.00, 0.00, -0.00, -1.00, 268.2, 182.0)">l</text><text xml:space="preserve" font-family="AvenirNext-Medium" font-size="18.0" fill="#F6FEFF" transform="matrix(1.00, 0.00, -0.00, -1.00, 272.9, 182.0)">e</text><text xml:space="preserve" font-family="AvenirNext-Medium" font-size="18.0" fill="#F6FEFF" transform="matrix(1.00, 0.00, -0.00, -1.00, 283.2, 182.0)">r</text><text xml:space="preserve" font-family="AvenirNext-Medium" font-size="18.0" fill="#F6FEFF" transform="matrix(1.00, 0.00, -0.00, -1.00, 289.7, 182.0)">'</text><text xml:space="preserve" font-family="AvenirNext-Medium" font-size="18.0" fill="#F6FEFF" transform="matrix(1.00, 0.00, -0.00, -1.00, 294.4, 182.0)">,</text><text xml:space="preserve" font-family="AvenirNext-Medium" font-size="18.0" fill="#F6FEFF" transform="matrix(1.00, 0.00, -0.00, -1.00, 298.6, 182.0)"> </text><text xml:space="preserve" font-family="AvenirNext-Medium" font-size="18.0" fill="#F6FEFF" transform="matrix(1.00, 0.00, -0.00, -1.00, 303.1, 182.0)">f</text><text xml:space="preserve" font-family="AvenirNext-Medium" font-size="18.0" fill="#F6FEFF" transform="matrix(1.00, 0.00, -0.00, -1.00, 308.7, 182.0)">u</text><text xml:space="preserve" font-family="AvenirNext-Medium" font-size="18.0" fill="#F6FEFF" transform="matrix(1.00, 0.00, -0.00, -1.00, 319.1, 182.0)">n</text><text xml:space="preserve" font-family="AvenirNext-Medium" font-size="18.0" fill="#F6FEFF" transform="matrix(1.00, 0.00, -0.00, -1.00, 329.6, 182.0)">c</text><text xml:space="preserve" font-family="AvenirNext-Medium" font-size="18.0" fill="#F6FEFF" transform="matrix(1.00, 0.00, -0.00, -1.00, 338.5, 182.0)">t</text><text xml:space="preserve" font-family="AvenirNext-Medium" font-size="18.0" fill="#F6FEFF" transform="matrix(1.00, 0.00, -0.00, -1.00, 344.4, 182.0)">i</text><text xml:space="preserve" font-family="AvenirNext-Medium" font-size="18.0" fill="#F6FEFF" transform="matrix(1.00, 0.00, -0.00, -1.00, 349.1, 182.0)">o</text><text xml:space="preserve" font-family="AvenirNext-Medium" font-size="18.0" fill="#F6FEFF" transform="matrix(1.00, 0.00, -0.00, -1.00, 360.1, 182.0)">n</text><text xml:space="preserve" font-family="AvenirNext-Medium" font-size="18.0" fill="#F6FEFF" transform="matrix(1.00, 0.00, -0.00, -1.00, 370.5, 182.0)">(</text><text xml:space="preserve" font-family="AvenirNext-Medium" font-size="18.0" fill="#F6FEFF" transform="matrix(1.00, 0.00, -0.00, -1.00, 376.2, 182.0)">$</text><text xml:space="preserve" font-family="AvenirNext-Medium" font-size="18.0" fill="#F6FEFF" transform="matrix(1.00, 0.00, -0.00, -1.00, 386.9, 182.0)">s</text><text xml:space="preserve" font-family="AvenirNext-Medium" font-size="18.0" fill="#F6FEFF" transform="matrix(1.00, 0.00, -0.00, -1.00, 394.9, 182.0)">c</text><text xml:space="preserve" font-family="AvenirNext-Medium" font-size="18.0" fill="#F6FEFF" transform="matrix(1.00, 0.00, -0.00, -1.00, 403.8, 182.0)">o</text><text xml:space="preserve" font-family="AvenirNext-Medium" font-size="18.0" fill="#F6FEFF" transform="matrix(1.00, 0.00, -0.00, -1.00, 414.8, 182.0)">p</text><text xml:space="preserve" font-family="AvenirNext-Medium" font-size="18.0" fill="#F6FEFF" transform="matrix(1.00, 0.00, -0.00, -1.00, 426.2, 182.0)">e</text><text xml:space="preserve" font-family="AvenirNext-Medium" font-size="18.0" fill="#F6FEFF" transform="matrix(1.00, 0.00, -0.00, -1.00, 436.5, 182.0)">)</text><text xml:space="preserve" font-family="AvenirNext-Medium" font-size="18.0" fill="#F6FEFF" transform="matrix(1.00, 0.00, -0.00, -1.00, 442.2, 182.0)"> </text><text xml:space="preserve" font-family="AvenirNext-Medium" font-size="18.0" fill="#F6FEFF" transform="matrix(1.00, 0.00, -0.00, -1.00, 446.7, 182.0)">{</text><text xml:space="preserve" font-family="AvenirNext-Medium" font-size="18.0" fill="#F6FEFF" transform="matrix(1.00, 0.00, -0.00, -1.00, 452.4, 182.0)"> </text><text xml:space="preserve" font-family="AvenirNext-Medium" font-size="18.0" fill="#F6FEFF" transform="matrix(1.00, 0.00, -0.00, -1.00, 456.9, 182.0)"> </text><text xml:space="preserve" font-family="AvenirNext-Medium" font-size="18.0" fill="#F6FEFF" transform="matrix(1.00, 0.00, -0.00, -1.00, 2.0, 151.0)"> </text><text xml:space="preserve" font-family="AvenirNext-Medium" font-size="18.0" fill="#F6FEFF" transform="matrix(1.00, 0.00, -0.00, -1.00, 48.0, 151.0)">$</text><text xml:space="preserve" font-family="AvenirNext-Medium" font-size="18.0" fill="#F6FEFF" transform="matrix(1.00, 0.00, -0.00, -1.00, 58.7, 151.0)">s</text><text xml:space="preserve" font-family="AvenirNext-Medium" font-size="18.0" fill="#F6FEFF" transform="matrix(1.00, 0.00, -0.00, -1.00, 66.7, 151.0)">c</text><text xml:space="preserve" font-family="AvenirNext-Medium" font-size="18.0" fill="#F6FEFF" transform="matrix(1.00, 0.00, -0.00, -1.00, 75.6, 151.0)">o</text><text xml:space="preserve" font-family="AvenirNext-Medium" font-size="18.0" fill="#F6FEFF" transform="matrix(1.00, 0.00, -0.00, -1.00, 86.6, 151.0)">p</text><text xml:space="preserve" font-family="AvenirNext-Medium" font-size="18.0" fill="#F6FEFF" transform="matrix(1.00, 0.00, -0.00, -1.00, 98.0, 151.0)">e</text><text xml:space="preserve" font-family="AvenirNext-Medium" font-size="18.0" fill="#F6FEFF" transform="matrix(1.00, 0.00, -0.00, -1.00, 108.3, 151.0)">.</text><text xml:space="preserve" font-family="AvenirNext-Medium" font-size="18.0" fill="#F6FEFF" transform="matrix(1.00, 0.00, -0.00, -1.00, 113.0, 151.0)">n</text><text xml:space="preserve" font-family="AvenirNext-Medium" font-size="18.0" fill="#F6FEFF" transform="matrix(1.00, 0.00, -0.00, -1.00, 123.5, 151.0)">a</text><text xml:space="preserve" font-family="AvenirNext-Medium" font-size="18.0" fill="#F6FEFF" transform="matrix(1.00, 0.00, -0.00, -1.00, 133.2, 151.0)">m</text><text xml:space="preserve" font-family="AvenirNext-Medium" font-size="18.0" fill="#F6FEFF" transform="matrix(1.00, 0.00, -0.00, -1.00, 149.2, 151.0)">e</text><text xml:space="preserve" font-family="AvenirNext-Medium" font-size="18.0" fill="#F6FEFF" transform="matrix(1.00, 0.00, -0.00, -1.00, 159.5, 151.0)"> </text><text xml:space="preserve" font-family="AvenirNext-Medium" font-size="18.0" fill="#F6FEFF" transform="matrix(1.00, 0.00, -0.00, -1.00, 164.0, 151.0)">=</text><text xml:space="preserve" font-family="AvenirNext-Medium" font-size="18.0" fill="#F6FEFF" transform="matrix(1.00, 0.00, -0.00, -1.00, 176.0, 151.0)"> </text><text xml:space="preserve" font-family="AvenirNext-Medium" font-size="18.0" fill="#F6FEFF" transform="matrix(1.00, 0.00, -0.00, -1.00, 180.5, 151.0)">'</text><text xml:space="preserve" font-family="AvenirNext-Medium" font-size="18.0" fill="#F6FEFF" transform="matrix(1.00, 0.00, -0.00, -1.00, 185.2, 151.0)">S</text><text xml:space="preserve" font-family="AvenirNext-Medium" font-size="18.0" fill="#F6FEFF" transform="matrix(1.00, 0.00, -0.00, -1.00, 195.4, 151.0)">o</text><text xml:space="preserve" font-family="AvenirNext-Medium" font-size="18.0" fill="#F6FEFF" transform="matrix(1.00, 0.00, -0.00, -1.00, 206.4, 151.0)">m</text><text xml:space="preserve" font-family="AvenirNext-Medium" font-size="18.0" fill="#F6FEFF" transform="matrix(1.00, 0.00, -0.00, -1.00, 222.4, 151.0)">e</text><text xml:space="preserve" font-family="AvenirNext-Medium" font-size="18.0" fill="#F6FEFF" transform="matrix(1.00, 0.00, -0.00, -1.00, 232.7, 151.0)">o</text><text xml:space="preserve" font-family="AvenirNext-Medium" font-size="18.0" fill="#F6FEFF" transform="matrix(1.00, 0.00, -0.00, -1.00, 243.7, 151.0)">n</text><text xml:space="preserve" font-family="AvenirNext-Medium" font-size="18.0" fill="#F6FEFF" transform="matrix(1.00, 0.00, -0.00, -1.00, 254.2, 151.0)">e</text><text xml:space="preserve" font-family="AvenirNext-Medium" font-size="18.0" fill="#F6FEFF" transform="matrix(1.00, 0.00, -0.00, -1.00, 264.5, 151.0)">N</text><text xml:space="preserve" font-family="AvenirNext-Medium" font-size="18.0" fill="#F6FEFF" transform="matrix(1.00, 0.00, -0.00, -1.00, 278.4, 151.0)">a</text><text xml:space="preserve" font-family="AvenirNext-Medium" font-size="18.0" fill="#F6FEFF" transform="matrix(1.00, 0.00, -0.00, -1.00, 288.1, 151.0)">m</text><text xml:space="preserve" font-family="AvenirNext-Medium" font-size="18.0" fill="#F6FEFF" transform="matrix(1.00, 0.00, -0.00, -1.00, 304.1, 151.0)">e</text><text xml:space="preserve" font-family="AvenirNext-Medium" font-size="18.0" fill="#F6FEFF" transform="matrix(1.00, 0.00, -0.00, -1.00, 314.4, 151.0)">'</text><text xml:space="preserve" font-family="AvenirNext-Medium" font-size="18.0" fill="#F6FEFF" transform="matrix(1.00, 0.00, -0.00, -1.00, 319.1, 151.0)">;</text><text xml:space="preserve" font-family="AvenirNext-Medium" font-size="18.0" fill="#F6FEFF" transform="matrix(1.00, 0.00, -0.00, -1.00, 324.5, 151.0)"> </text><text xml:space="preserve" font-family="AvenirNext-Medium" font-size="18.0" fill="#F6FEFF" transform="matrix(1.00, 0.00, -0.00, -1.00, 2.0, 120.0)"> </text><text xml:space="preserve" font-family="AvenirNext-Medium" font-size="18.0" fill="#F6FEFF" transform="matrix(1.00, 0.00, -0.00, -1.00, 6.5, 120.0)"> </text><text xml:space="preserve" font-family="AvenirNext-Medium" font-size="18.0" fill="#F6FEFF" transform="matrix(1.00, 0.00, -0.00, -1.00, 11.0, 120.0)"> </text><text xml:space="preserve" font-family="AvenirNext-Medium" font-size="18.0" fill="#F6FEFF" transform="matrix(1.00, 0.00, -0.00, -1.00, 15.5, 120.0)"> </text><text xml:space="preserve" font-family="AvenirNext-Medium" font-size="18.0" fill="#F6FEFF" transform="matrix(1.00, 0.00, -0.00, -1.00, 20.0, 120.0)"> </text><text xml:space="preserve" font-family="AvenirNext-Medium" font-size="18.0" fill="#F6FEFF" transform="matrix(1.00, 0.00, -0.00, -1.00, 48.0, 120.0)">$</text><text xml:space="preserve" font-family="AvenirNext-Medium" font-size="18.0" fill="#F6FEFF" transform="matrix(1.00, 0.00, -0.00, -1.00, 58.7, 120.0)">s</text><text xml:space="preserve" font-family="AvenirNext-Medium" font-size="18.0" fill="#F6FEFF" transform="matrix(1.00, 0.00, -0.00, -1.00, 66.7, 120.0)">c</text><text xml:space="preserve" font-family="AvenirNext-Medium" font-size="18.0" fill="#F6FEFF" transform="matrix(1.00, 0.00, -0.00, -1.00, 75.6, 120.0)">o</text><text xml:space="preserve" font-family="AvenirNext-Medium" font-size="18.0" fill="#F6FEFF" transform="matrix(1.00, 0.00, -0.00, -1.00, 86.6, 120.0)">p</text><text xml:space="preserve" font-family="AvenirNext-Medium" font-size="18.0" fill="#F6FEFF" transform="matrix(1.00, 0.00, -0.00, -1.00, 98.0, 120.0)">e</text><text xml:space="preserve" font-family="AvenirNext-Medium" font-size="18.0" fill="#F6FEFF" transform="matrix(1.00, 0.00, -0.00, -1.00, 108.3, 120.0)">.</text><text xml:space="preserve" font-family="AvenirNext-Medium" font-size="18.0" fill="#F6FEFF" transform="matrix(1.00, 0.00, -0.00, -1.00, 113.0, 120.0)">s</text><text xml:space="preserve" font-family="AvenirNext-Medium" font-size="18.0" fill="#F6FEFF" transform="matrix(1.00, 0.00, -0.00, -1.00, 121.0, 120.0)">e</text><text xml:space="preserve" font-family="AvenirNext-Medium" font-size="18.0" fill="#F6FEFF" transform="matrix(1.00, 0.00, -0.00, -1.00, 131.3, 120.0)">n</text><text xml:space="preserve" font-family="AvenirNext-Medium" font-size="18.0" fill="#F6FEFF" transform="matrix(1.00, 0.00, -0.00, -1.00, 141.8, 120.0)">d</text><text xml:space="preserve" font-family="AvenirNext-Medium" font-size="18.0" fill="#F6FEFF" transform="matrix(1.00, 0.00, -0.00, -1.00, 153.2, 120.0)">M</text><text xml:space="preserve" font-family="AvenirNext-Medium" font-size="18.0" fill="#F6FEFF" transform="matrix(1.00, 0.00, -0.00, -1.00, 169.4, 120.0)">e</text><text xml:space="preserve" font-family="AvenirNext-Medium" font-size="18.0" fill="#F6FEFF" transform="matrix(1.00, 0.00, -0.00, -1.00, 179.8, 120.0)">s</text><text xml:space="preserve" font-family="AvenirNext-Medium" font-size="18.0" fill="#F6FEFF" transform="matrix(1.00, 0.00, -0.00, -1.00, 187.8, 120.0)">s</text><text xml:space="preserve" font-family="AvenirNext-Medium" font-size="18.0" fill="#F6FEFF" transform="matrix(1.00, 0.00, -0.00, -1.00, 195.7, 120.0)">a</text><text xml:space="preserve" font-family="AvenirNext-Medium" font-size="18.0" fill="#F6FEFF" transform="matrix(1.00, 0.00, -0.00, -1.00, 205.5, 120.0)">g</text><text xml:space="preserve" font-family="AvenirNext-Medium" font-size="18.0" fill="#F6FEFF" transform="matrix(1.00, 0.00, -0.00, -1.00, 216.9, 120.0)">e</text><text xml:space="preserve" font-family="AvenirNext-Medium" font-size="18.0" fill="#F6FEFF" transform="matrix(1.00, 0.00, -0.00, -1.00, 227.2, 120.0)"> </text><text xml:space="preserve" font-family="AvenirNext-Medium" font-size="18.0" fill="#F6FEFF" transform="matrix(1.00, 0.00, -0.00, -1.00, 231.7, 120.0)">=</text><text xml:space="preserve" font-family="AvenirNext-Medium" font-size="18.0" fill="#F6FEFF" transform="matrix(1.00, 0.00, -0.00, -1.00, 243.7, 120.0)"> </text><text xml:space="preserve" font-family="AvenirNext-Medium" font-size="18.0" fill="#F6FEFF" transform="matrix(1.00, 0.00, -0.00, -1.00, 248.2, 120.0)">f</text><text xml:space="preserve" font-family="AvenirNext-Medium" font-size="18.0" fill="#F6FEFF" transform="matrix(1.00, 0.00, -0.00, -1.00, 253.8, 120.0)">u</text><text xml:space="preserve" font-family="AvenirNext-Medium" font-size="18.0" fill="#F6FEFF" transform="matrix(1.00, 0.00, -0.00, -1.00, 264.2, 120.0)">n</text><text xml:space="preserve" font-family="AvenirNext-Medium" font-size="18.0" fill="#F6FEFF" transform="matrix(1.00, 0.00, -0.00, -1.00, 274.7, 120.0)">c</text><text xml:space="preserve" font-family="AvenirNext-Medium" font-size="18.0" fill="#F6FEFF" transform="matrix(1.00, 0.00, -0.00, -1.00, 283.6, 120.0)">t</text><text xml:space="preserve" font-family="AvenirNext-Medium" font-size="18.0" fill="#F6FEFF" transform="matrix(1.00, 0.00, -0.00, -1.00, 289.5, 120.0)">i</text><text xml:space="preserve" font-family="AvenirNext-Medium" font-size="18.0" fill="#F6FEFF" transform="matrix(1.00, 0.00, -0.00, -1.00, 294.2, 120.0)">o</text><text xml:space="preserve" font-family="AvenirNext-Medium" font-size="18.0" fill="#F6FEFF" transform="matrix(1.00, 0.00, -0.00, -1.00, 305.2, 120.0)">n</text><text xml:space="preserve" font-family="AvenirNext-Medium" font-size="18.0" fill="#F6FEFF" transform="matrix(1.00, 0.00, -0.00, -1.00, 315.6, 120.0)">(</text><text xml:space="preserve" font-family="AvenirNext-Medium" font-size="18.0" fill="#F6FEFF" transform="matrix(1.00, 0.00, -0.00, -1.00, 321.3, 120.0)">)</text><text xml:space="preserve" font-family="AvenirNext-Medium" font-size="18.0" fill="#F6FEFF" transform="matrix(1.00, 0.00, -0.00, -1.00, 327.0, 120.0)"> </text><text xml:space="preserve" font-family="AvenirNext-Medium" font-size="18.0" fill="#F6FEFF" transform="matrix(1.00, 0.00, -0.00, -1.00, 331.5, 120.0)">{</text><text xml:space="preserve" font-family="AvenirNext-Medium" font-size="18.0" fill="#F6FEFF" transform="matrix(1.00, 0.00, -0.00, -1.00, 337.2, 120.0)">…</text><text xml:space="preserve" font-family="AvenirNext-Medium" font-size="18.0" fill="#F6FEFF" transform="matrix(1.00, 0.00, -0.00, -1.00, 355.2, 120.0)">}</text><text xml:space="preserve" font-family="AvenirNext-Medium" font-size="18.0" fill="#F6FEFF" transform="matrix(1.00, 0.00, -0.00, -1.00, 360.8, 120.0)">;</text><text xml:space="preserve" font-family="AvenirNext-Medium" font-size="18.0" fill="#F6FEFF" transform="matrix(1.00, 0.00, -0.00, -1.00, 366.2, 120.0)"> </text><text xml:space="preserve" font-family="AvenirNext-Medium" font-size="18.0" fill="#F6FEFF" transform="matrix(1.00, 0.00, -0.00, -1.00, 2.0, 89.0)"> </text><text xml:space="preserve" font-family="AvenirNext-Medium" font-size="18.0" fill="#F6FEFF" transform="matrix(1.00, 0.00, -0.00, -1.00, 48.0, 89.0)">$</text><text xml:space="preserve" font-family="AvenirNext-Medium" font-size="18.0" fill="#F6FEFF" transform="matrix(1.00, 0.00, -0.00, -1.00, 58.7, 89.0)">s</text><text xml:space="preserve" font-family="AvenirNext-Medium" font-size="18.0" fill="#F6FEFF" transform="matrix(1.00, 0.00, -0.00, -1.00, 66.7, 89.0)">c</text><text xml:space="preserve" font-family="AvenirNext-Medium" font-size="18.0" fill="#F6FEFF" transform="matrix(1.00, 0.00, -0.00, -1.00, 75.6, 89.0)">o</text><text xml:space="preserve" font-family="AvenirNext-Medium" font-size="18.0" fill="#F6FEFF" transform="matrix(1.00, 0.00, -0.00, -1.00, 86.6, 89.0)">p</text><text xml:space="preserve" font-family="AvenirNext-Medium" font-size="18.0" fill="#F6FEFF" transform="matrix(1.00, 0.00, -0.00, -1.00, 98.0, 89.0)">e</text><text xml:space="preserve" font-family="AvenirNext-Medium" font-size="18.0" fill="#F6FEFF" transform="matrix(1.00, 0.00, -0.00, -1.00, 108.3, 89.0)">.</text><text xml:space="preserve" font-family="AvenirNext-Medium" font-size="18.0" fill="#F6FEFF" transform="matrix(1.00, 0.00, -0.00, -1.00, 113.0, 89.0)">b</text><text xml:space="preserve" font-family="AvenirNext-Medium" font-size="18.0" fill="#F6FEFF" transform="matrix(1.00, 0.00, -0.00, -1.00, 124.4, 89.0)">l</text><text xml:space="preserve" font-family="AvenirNext-Medium" font-size="18.0" fill="#F6FEFF" transform="matrix(1.00, 0.00, -0.00, -1.00, 129.1, 89.0)">a</text><text xml:space="preserve" font-family="AvenirNext-Medium" font-size="18.0" fill="#F6FEFF" transform="matrix(1.00, 0.00, -0.00, -1.00, 138.9, 89.0)">h</text><text xml:space="preserve" font-family="AvenirNext-Medium" font-size="18.0" fill="#F6FEFF" transform="matrix(1.00, 0.00, -0.00, -1.00, 149.4, 89.0)">B</text><text xml:space="preserve" font-family="AvenirNext-Medium" font-size="18.0" fill="#F6FEFF" transform="matrix(1.00, 0.00, -0.00, -1.00, 160.9, 89.0)">l</text><text xml:space="preserve" font-family="AvenirNext-Medium" font-size="18.0" fill="#F6FEFF" transform="matrix(1.00, 0.00, -0.00, -1.00, 165.6, 89.0)">a</text><text xml:space="preserve" font-family="AvenirNext-Medium" font-size="18.0" fill="#F6FEFF" transform="matrix(1.00, 0.00, -0.00, -1.00, 175.4, 89.0)">h</text><text xml:space="preserve" font-family="AvenirNext-Medium" font-size="18.0" fill="#F6FEFF" transform="matrix(1.00, 0.00, -0.00, -1.00, 185.9, 89.0)"> </text><text xml:space="preserve" font-family="AvenirNext-Medium" font-size="18.0" fill="#F6FEFF" transform="matrix(1.00, 0.00, -0.00, -1.00, 190.4, 89.0)">=</text><text xml:space="preserve" font-family="AvenirNext-Medium" font-size="18.0" fill="#F6FEFF" transform="matrix(1.00, 0.00, -0.00, -1.00, 202.4, 89.0)"> </text><text xml:space="preserve" font-family="AvenirNext-Medium" font-size="18.0" fill="#F6FEFF" transform="matrix(1.00, 0.00, -0.00, -1.00, 206.9, 89.0)">‘</text><text xml:space="preserve" font-family="AvenirNext-Medium" font-size="18.0" fill="#F6FEFF" transform="matrix(1.00, 0.00, -0.00, -1.00, 211.3, 89.0)">B</text><text xml:space="preserve" font-family="AvenirNext-Medium" font-size="18.0" fill="#F6FEFF" transform="matrix(1.00, 0.00, -0.00, -1.00, 222.9, 89.0)">l</text><text xml:space="preserve" font-family="AvenirNext-Medium" font-size="18.0" fill="#F6FEFF" transform="matrix(1.00, 0.00, -0.00, -1.00, 227.5, 89.0)">a</text><text xml:space="preserve" font-family="AvenirNext-Medium" font-size="18.0" fill="#F6FEFF" transform="matrix(1.00, 0.00, -0.00, -1.00, 237.3, 89.0)">h</text><text xml:space="preserve" font-family="AvenirNext-Medium" font-size="18.0" fill="#F6FEFF" transform="matrix(1.00, 0.00, -0.00, -1.00, 247.8, 89.0)"> </text><text xml:space="preserve" font-family="AvenirNext-Medium" font-size="18.0" fill="#F6FEFF" transform="matrix(1.00, 0.00, -0.00, -1.00, 252.3, 89.0)">b</text><text xml:space="preserve" font-family="AvenirNext-Medium" font-size="18.0" fill="#F6FEFF" transform="matrix(1.00, 0.00, -0.00, -1.00, 263.7, 89.0)">l</text><text xml:space="preserve" font-family="AvenirNext-Medium" font-size="18.0" fill="#F6FEFF" transform="matrix(1.00, 0.00, -0.00, -1.00, 268.4, 89.0)">a</text><text xml:space="preserve" font-family="AvenirNext-Medium" font-size="18.0" fill="#F6FEFF" transform="matrix(1.00, 0.00, -0.00, -1.00, 278.2, 89.0)">h</text><text xml:space="preserve" font-family="AvenirNext-Medium" font-size="18.0" fill="#F6FEFF" transform="matrix(1.00, 0.00, -0.00, -1.00, 288.7, 89.0)">’</text><text xml:space="preserve" font-family="AvenirNext-Medium" font-size="18.0" fill="#F6FEFF" transform="matrix(1.00, 0.00, -0.00, -1.00, 293.1, 89.0)">;</text><text xml:space="preserve" font-family="AvenirNext-Medium" font-size="18.0" fill="#F6FEFF" transform="matrix(1.00, 0.00, -0.00, -1.00, 298.5, 89.0)"> </text><text xml:space="preserve" font-family="AvenirNext-Medium" font-size="18.0" fill="#F6FEFF" transform="matrix(1.00, 0.00, -0.00, -1.00, 2.0, 61.0)"> </text><text xml:space="preserve" font-family="AvenirNext-Medium" font-size="18.0" fill="#F6FEFF" transform="matrix(1.00, 0.00, -0.00, -1.00, 48.0, 61.0)">$</text><text xml:space="preserve" font-family="AvenirNext-Medium" font-size="18.0" fill="#F6FEFF" transform="matrix(1.00, 0.00, -0.00, -1.00, 58.7, 61.0)">s</text><text xml:space="preserve" font-family="AvenirNext-Medium" font-size="18.0" fill="#F6FEFF" transform="matrix(1.00, 0.00, -0.00, -1.00, 66.7, 61.0)">c</text><text xml:space="preserve" font-family="AvenirNext-Medium" font-size="18.0" fill="#F6FEFF" transform="matrix(1.00, 0.00, -0.00, -1.00, 75.6, 61.0)">o</text><text xml:space="preserve" font-family="AvenirNext-Medium" font-size="18.0" fill="#F6FEFF" transform="matrix(1.00, 0.00, -0.00, -1.00, 86.6, 61.0)">p</text><text xml:space="preserve" font-family="AvenirNext-Medium" font-size="18.0" fill="#F6FEFF" transform="matrix(1.00, 0.00, -0.00, -1.00, 98.0, 61.0)">e</text><text xml:space="preserve" font-family="AvenirNext-Medium" font-size="18.0" fill="#F6FEFF" transform="matrix(1.00, 0.00, -0.00, -1.00, 108.3, 61.0)">.</text><text xml:space="preserve" font-family="AvenirNext-Medium" font-size="18.0" fill="#F6FEFF" transform="matrix(1.00, 0.00, -0.00, -1.00, 113.0, 61.0)">f</text><text xml:space="preserve" font-family="AvenirNext-Medium" font-size="18.0" fill="#F6FEFF" transform="matrix(1.00, 0.00, -0.00, -1.00, 118.6, 61.0)">o</text><text xml:space="preserve" font-family="AvenirNext-Medium" font-size="18.0" fill="#F6FEFF" transform="matrix(1.00, 0.00, -0.00, -1.00, 129.5, 61.0)">o</text><text xml:space="preserve" font-family="AvenirNext-Medium" font-size="18.0" fill="#F6FEFF" transform="matrix(1.00, 0.00, -0.00, -1.00, 140.5, 61.0)">F</text><text xml:space="preserve" font-family="AvenirNext-Medium" font-size="18.0" fill="#F6FEFF" transform="matrix(1.00, 0.00, -0.00, -1.00, 149.9, 61.0)">o</text><text xml:space="preserve" font-family="AvenirNext-Medium" font-size="18.0" fill="#F6FEFF" transform="matrix(1.00, 0.00, -0.00, -1.00, 160.9, 61.0)">o</text><text xml:space="preserve" font-family="AvenirNext-Medium" font-size="18.0" fill="#F6FEFF" transform="matrix(1.00, 0.00, -0.00, -1.00, 171.8, 61.0)">F</text><text xml:space="preserve" font-family="AvenirNext-Medium" font-size="18.0" fill="#F6FEFF" transform="matrix(1.00, 0.00, -0.00, -1.00, 181.3, 61.0)">u</text><text xml:space="preserve" font-family="AvenirNext-Medium" font-size="18.0" fill="#F6FEFF" transform="matrix(1.00, 0.00, -0.00, -1.00, 191.8, 61.0)">n</text><text xml:space="preserve" font-family="AvenirNext-Medium" font-size="18.0" fill="#F6FEFF" transform="matrix(1.00, 0.00, -0.00, -1.00, 202.3, 61.0)">c</text><text xml:space="preserve" font-family="AvenirNext-Medium" font-size="18.0" fill="#F6FEFF" transform="matrix(1.00, 0.00, -0.00, -1.00, 211.2, 61.0)">t</text><text xml:space="preserve" font-family="AvenirNext-Medium" font-size="18.0" fill="#F6FEFF" transform="matrix(1.00, 0.00, -0.00, -1.00, 217.1, 61.0)">i</text><text xml:space="preserve" font-family="AvenirNext-Medium" font-size="18.0" fill="#F6FEFF" transform="matrix(1.00, 0.00, -0.00, -1.00, 221.7, 61.0)">o</text><text xml:space="preserve" font-family="AvenirNext-Medium" font-size="18.0" fill="#F6FEFF" transform="matrix(1.00, 0.00, -0.00, -1.00, 232.7, 61.0)">n</text><text xml:space="preserve" font-family="AvenirNext-Medium" font-size="18.0" fill="#F6FEFF" transform="matrix(1.00, 0.00, -0.00, -1.00, 243.2, 61.0)"> </text><text xml:space="preserve" font-family="AvenirNext-Medium" font-size="18.0" fill="#F6FEFF" transform="matrix(1.00, 0.00, -0.00, -1.00, 247.7, 61.0)">=</text><text xml:space="preserve" font-family="AvenirNext-Medium" font-size="18.0" fill="#F6FEFF" transform="matrix(1.00, 0.00, -0.00, -1.00, 259.7, 61.0)"> </text><text xml:space="preserve" font-family="AvenirNext-Medium" font-size="18.0" fill="#F6FEFF" transform="matrix(1.00, 0.00, -0.00, -1.00, 264.2, 61.0)">f</text><text xml:space="preserve" font-family="AvenirNext-Medium" font-size="18.0" fill="#F6FEFF" transform="matrix(1.00, 0.00, -0.00, -1.00, 269.8, 61.0)">u</text><text xml:space="preserve" font-family="AvenirNext-Medium" font-size="18.0" fill="#F6FEFF" transform="matrix(1.00, 0.00, -0.00, -1.00, 280.2, 61.0)">n</text><text xml:space="preserve" font-family="AvenirNext-Medium" font-size="18.0" fill="#F6FEFF" transform="matrix(1.00, 0.00, -0.00, -1.00, 290.7, 61.0)">c</text><text xml:space="preserve" font-family="AvenirNext-Medium" font-size="18.0" fill="#F6FEFF" transform="matrix(1.00, 0.00, -0.00, -1.00, 299.6, 61.0)">t</text><text xml:space="preserve" font-family="AvenirNext-Medium" font-size="18.0" fill="#F6FEFF" transform="matrix(1.00, 0.00, -0.00, -1.00, 305.5, 61.0)">i</text><text xml:space="preserve" font-family="AvenirNext-Medium" font-size="18.0" fill="#F6FEFF" transform="matrix(1.00, 0.00, -0.00, -1.00, 310.2, 61.0)">o</text><text xml:space="preserve" font-family="AvenirNext-Medium" font-size="18.0" fill="#F6FEFF" transform="matrix(1.00, 0.00, -0.00, -1.00, 321.2, 61.0)">n</text><text xml:space="preserve" font-family="AvenirNext-Medium" font-size="18.0" fill="#F6FEFF" transform="matrix(1.00, 0.00, -0.00, -1.00, 331.6, 61.0)">(</text><text xml:space="preserve" font-family="AvenirNext-Medium" font-size="18.0" fill="#F6FEFF" transform="matrix(1.00, 0.00, -0.00, -1.00, 337.3, 61.0)">)</text><text xml:space="preserve" font-family="AvenirNext-Medium" font-size="18.0" fill="#F6FEFF" transform="matrix(1.00, 0.00, -0.00, -1.00, 343.0, 61.0)"> </text><text xml:space="preserve" font-family="AvenirNext-Medium" font-size="18.0" fill="#F6FEFF" transform="matrix(1.00, 0.00, -0.00, -1.00, 347.5, 61.0)">{</text><text xml:space="preserve" font-family="AvenirNext-Medium" font-size="18.0" fill="#F6FEFF" transform="matrix(1.00, 0.00, -0.00, -1.00, 353.2, 61.0)">…</text><text xml:space="preserve" font-family="AvenirNext-Medium" font-size="18.0" fill="#F6FEFF" transform="matrix(1.00, 0.00, -0.00, -1.00, 371.2, 61.0)">}</text><text xml:space="preserve" font-family="AvenirNext-Medium" font-size="18.0" fill="#F6FEFF" transform="matrix(1.00, 0.00, -0.00, -1.00, 376.8, 61.0)">;</text><text xml:space="preserve" font-family="AvenirNext-Medium" font-size="18.0" fill="#F6FEFF" transform="matrix(1.00, 0.00, -0.00, -1.00, 382.2, 61.0)"> </text><text xml:space="preserve" font-family="AvenirNext-Medium" font-size="18.0" fill="#F6FEFF" transform="matrix(1.00, 0.00, -0.00, -1.00, 2.0, 33.0)"> </text><text xml:space="preserve" font-family="AvenirNext-Medium" font-size="18.0" fill="#F6FEFF" transform="matrix(1.00, 0.00, -0.00, -1.00, 48.0, 33.0)">…</text><text xml:space="preserve" font-family="AvenirNext-Medium" font-size="18.0" fill="#F6FEFF" transform="matrix(1.00, 0.00, -0.00, -1.00, 65.5, 33.0)"> </text><text xml:space="preserve" font-family="AvenirNext-Medium" font-size="18.0" fill="#F6FEFF" transform="matrix(1.00, 0.00, -0.00, -1.00, 2.0, 5.0)"> </text><text xml:space="preserve" font-family="AvenirNext-Medium" font-size="18.0" fill="#F6FEFF" transform="matrix(1.00, 0.00, -0.00, -1.00, 6.5, 5.0)"> </text><text xml:space="preserve" font-family="AvenirNext-Medium" font-size="18.0" fill="#F6FEFF" transform="matrix(1.00, 0.00, -0.00, -1.00, 11.0, 5.0)"> </text><text xml:space="preserve" font-family="AvenirNext-Medium" font-size="18.0" fill="#F6FEFF" transform="matrix(1.00, 0.00, -0.00, -1.00, 15.5, 5.0)"> </text><text xml:space="preserve" font-family="AvenirNext-Medium" font-size="18.0" fill="#F6FEFF" transform="matrix(1.00, 0.00, -0.00, -1.00, 20.0, 5.0)">}</text><text xml:space="preserve" font-family="AvenirNext-Medium" font-size="18.0" fill="#F6FEFF" transform="matrix(1.00, 0.00, -0.00, -1.00, 25.7, 5.0)">)</text></g></svg>