<?xml version="1.0" encoding="UTF-8" standalone="no"?><svg xmlns="http://www.w3.org/2000/svg" xmlns:xlink="http://www.w3.org/1999/xlink" clip-rule="evenodd" stroke-miterlimit="4.00" viewBox="0 0 1024 768"><desc>SVG generated by Keynote</desc><defs></defs><g transform="matrix(1.00, 0.00, -0.00, -1.00, 0.0, 768.0)"><path d="M 0.0 768.0 L 1024.0 768.0 L 1024.0 0.0 L 0.0 0.0 Z M 0.0 768.0 " fill="#212121"></path><text xml:space="preserve" font-family="AvenirNext-Medium" font-size="76.0" fill="#FEFFFE" transform="matrix(1.00, 0.00, -0.00, -1.00, 348.0, 337.0)">T</text><text xml:space="preserve" font-family="AvenirNext-Medium" font-size="76.0" fill="#FEFFFE" transform="matrix(1.00, 0.00, -0.00, -1.00, 391.2, 337.0)">H</text><text xml:space="preserve" font-family="AvenirNext-Medium" font-size="76.0" fill="#FEFFFE" transform="matrix(1.00, 0.00, -0.00, -1.00, 446.6, 337.0)">A</text><text xml:space="preserve" font-family="AvenirNext-Medium" font-size="76.0" fill="#FEFFFE" transform="matrix(1.00, 0.00, -0.00, -1.00, 500.7, 337.0)">N</text><text xml:space="preserve" font-family="AvenirNext-Medium" font-size="76.0" fill="#FEFFFE" transform="matrix(1.00, 0.00, -0.00, -1.00, 559.4, 337.0)">K</text><text xml:space="preserve" font-family="AvenirNext-Medium" font-size="76.0" fill="#FEFFFE" transform="matrix(1.00, 0.00, -0.00, -1.00, 609.4, 337.0)">S</text><text xml:space="preserve" font-family="Corbel-Bold" font-weight="bold" font-size="70.4" fill="#34A4DA" transform="matrix(1.00, 0.00, -0.00, -1.00, 8.0, 699.0)">n</text><text xml:space="preserve" font-family="Corbel-Bold" font-weight="bold" font-size="70.4" fill="#34A4DA" transform="matrix(1.00, 0.00, -0.00, -1.00, 47.0, 699.0)">g</text><text xml:space="preserve" font-family="Corbel-Bold" font-weight="bold" font-size="70.4" fill="#34A4DA" transform="matrix(1.00, 0.00, -0.00, -1.00, 85.7, 699.0)">-</text><text xml:space="preserve" font-family="Corbel-Bold" font-weight="bold" font-size="70.4" fill="#34A4DA" transform="matrix(1.00, 0.00, -0.00, -1.00, 109.1, 699.0)">b</text><text xml:space="preserve" font-family="Corbel-Bold" font-weight="bold" font-size="70.4" fill="#34A4DA" transform="matrix(1.00, 0.00, -0.00, -1.00, 148.3, 699.0)">e</text><text xml:space="preserve" font-family="Corbel-Bold" font-weight="bold" font-size="70.4" fill="#34A4DA" transform="matrix(1.00, 0.00, -0.00, -1.00, 184.4, 699.0)">s</text><text xml:space="preserve" font-family="Corbel-Bold" font-weight="bold" font-size="70.4" fill="#34A4DA" transform="matrix(1.00, 0.00, -0.00, -1.00, 214.2, 699.0)">t</text><text xml:space="preserve" font-family="Corbel-Bold" font-weight="bold" font-size="70.4" fill="#34A4DA" transform="matrix(1.00, 0.00, -0.00, -1.00, 239.5, 699.0)">-</text><text xml:space="preserve" font-family="Corbel-Bold" font-weight="bold" font-size="70.4" fill="#34A4DA" transform="matrix(1.00, 0.00, -0.00, -1.00, 262.9, 699.0)">p</text><text xml:space="preserve" font-family="Corbel-Bold" font-weight="bold" font-size="70.4" fill="#34A4DA" transform="matrix(1.00, 0.00, -0.00, -1.00, 301.6, 699.0)">r</text><text xml:space="preserve" font-family="Corbel-Bold" font-weight="bold" font-size="70.4" fill="#34A4DA" transform="matrix(1.00, 0.00, -0.00, -1.00, 326.2, 699.0)">a</text><text xml:space="preserve" font-family="Corbel-Bold" font-weight="bold" font-size="70.4" fill="#34A4DA" transform="matrix(1.00, 0.00, -0.00, -1.00, 362.4, 699.0)">c</text><text xml:space="preserve" font-family="Corbel-Bold" font-weight="bold" font-size="70.4" fill="#34A4DA" transform="matrix(1.00, 0.00, -0.00, -1.00, 393.4, 699.0)">t</text><text xml:space="preserve" font-family="Corbel-Bold" font-weight="bold" font-size="70.4" fill="#34A4DA" transform="matrix(1.00, 0.00, -0.00, -1.00, 420.2, 699.0)">i</text><text xml:space="preserve" font-family="Corbel-Bold" font-weight="bold" font-size="70.4" fill="#34A4DA" transform="matrix(1.00, 0.00, -0.00, -1.00, 437.7, 699.0)">c</text><text xml:space="preserve" font-family="Corbel-Bold" font-weight="bold" font-size="70.4" fill="#34A4DA" transform="matrix(1.00, 0.00, -0.00, -1.00, 468.7, 699.0)">e</text><text xml:space="preserve" font-family="Corbel-Bold" font-weight="bold" font-size="70.4" fill="#34A4DA" transform="matrix(1.00, 0.00, -0.00, -1.00, 504.8, 699.0)">s</text><text xml:space="preserve" font-family="AvenirNext-Medium" font-size="76.0" fill="#FEFFFE" transform="matrix(1.00, 0.00, -0.00, -1.00, 275.0, 232.0)">Q</text><text xml:space="preserve" font-family="AvenirNext-Medium" font-size="76.0" fill="#FEFFFE" transform="matrix(1.00, 0.00, -0.00, -1.00, 339.3, 232.0)">U</text><text xml:space="preserve" font-family="AvenirNext-Medium" font-size="76.0" fill="#FEFFFE" transform="matrix(1.00, 0.00, -0.00, -1.00, 393.4, 232.0)">E</text><text xml:space="preserve" font-family="AvenirNext-Medium" font-size="76.0" fill="#FEFFFE" transform="matrix(1.00, 0.00, -0.00, -1.00, 439.1, 232.0)">S</text><text xml:space="preserve" font-family="AvenirNext-Medium" font-size="76.0" fill="#FEFFFE" transform="matrix(1.00, 0.00, -0.00, -1.00, 481.1, 232.0)">T</text><text xml:space="preserve" font-family="AvenirNext-Medium" font-size="76.0" fill="#FEFFFE" transform="matrix(1.00, 0.00, -0.00, -1.00, 524.4, 232.0)">I</text><text xml:space="preserve" font-family="AvenirNext-Medium" font-size="76.0" fill="#FEFFFE" transform="matrix(1.00, 0.00, -0.00, -1.00, 545.0, 232.0)">O</text><text xml:space="preserve" font-family="AvenirNext-Medium" font-size="76.0" fill="#FEFFFE" transform="matrix(1.00, 0.00, -0.00, -1.00, 609.5, 232.0)">N</text><text xml:space="preserve" font-family="AvenirNext-Medium" font-size="76.0" fill="#FEFFFE" transform="matrix(1.00, 0.00, -0.00, -1.00, 668.1, 232.0)">S</text><text xml:space="preserve" font-family="AvenirNext-Medium" font-size="76.0" fill="#FEFFFE" transform="matrix(1.00, 0.00, -0.00, -1.00, 711.4, 232.0)">?</text></g></svg>