<?xml version="1.0" encoding="UTF-8" standalone="no"?><svg xmlns="http://www.w3.org/2000/svg" xmlns:xlink="http://www.w3.org/1999/xlink" clip-rule="evenodd" stroke-miterlimit="4.00" viewBox="0 0 200 26"><desc>SVG generated by Keynote</desc><defs></defs><g transform="matrix(1.00, 0.00, -0.00, -1.00, 0.0, 26.0)"><text xml:space="preserve" font-family="AvenirNext-DemiBold" font-weight="bold" font-size="28.0" fill="#F6FEFF" transform="matrix(1.00, 0.00, -0.00, -1.00, 1.0, 3.0)">c</text><text xml:space="preserve" font-family="AvenirNext-DemiBold" font-weight="bold" font-size="28.0" fill="#F6FEFF" transform="matrix(1.00, 0.00, -0.00, -1.00, 14.7, 3.0)">u</text><text xml:space="preserve" font-family="AvenirNext-DemiBold" font-weight="bold" font-size="28.0" fill="#F6FEFF" transform="matrix(1.00, 0.00, -0.00, -1.00, 31.0, 3.0)">s</text><text xml:space="preserve" font-family="AvenirNext-DemiBold" font-weight="bold" font-size="28.0" fill="#F6FEFF" transform="matrix(1.00, 0.00, -0.00, -1.00, 43.4, 3.0)">t</text><text xml:space="preserve" font-family="AvenirNext-DemiBold" font-weight="bold" font-size="28.0" fill="#F6FEFF" transform="matrix(1.00, 0.00, -0.00, -1.00, 52.9, 3.0)">o</text><text xml:space="preserve" font-family="AvenirNext-DemiBold" font-weight="bold" font-size="28.0" fill="#F6FEFF" transform="matrix(1.00, 0.00, -0.00, -1.00, 70.0, 3.0)">m</text><text xml:space="preserve" font-family="AvenirNext-DemiBold" font-weight="bold" font-size="28.0" fill="#F6FEFF" transform="matrix(1.00, 0.00, -0.00, -1.00, 94.9, 3.0)">e</text><text xml:space="preserve" font-family="AvenirNext-DemiBold" font-weight="bold" font-size="28.0" fill="#F6FEFF" transform="matrix(1.00, 0.00, -0.00, -1.00, 111.0, 3.0)">r</text><text xml:space="preserve" font-family="AvenirNext-DemiBold" font-weight="bold" font-size="28.0" fill="#F6FEFF" transform="matrix(1.00, 0.00, -0.00, -1.00, 121.2, 3.0)">s</text><text xml:space="preserve" font-family="AvenirNext-DemiBold" font-weight="bold" font-size="28.0" fill="#F6FEFF" transform="matrix(1.00, 0.00, -0.00, -1.00, 133.6, 3.0)">.</text><text xml:space="preserve" font-family="AvenirNext-DemiBold" font-weight="bold" font-size="28.0" fill="#F6FEFF" transform="matrix(1.00, 0.00, -0.00, -1.00, 140.9, 3.0)">h</text><text xml:space="preserve" font-family="AvenirNext-DemiBold" font-weight="bold" font-size="28.0" fill="#F6FEFF" transform="matrix(1.00, 0.00, -0.00, -1.00, 157.2, 3.0)">t</text><text xml:space="preserve" font-family="AvenirNext-DemiBold" font-weight="bold" font-size="28.0" fill="#F6FEFF" transform="matrix(1.00, 0.00, -0.00, -1.00, 166.8, 3.0)">m</text><text xml:space="preserve" font-family="AvenirNext-DemiBold" font-weight="bold" font-size="28.0" fill="#F6FEFF" transform="matrix(1.00, 0.00, -0.00, -1.00, 191.7, 3.0)">l</text></g></svg>