<?xml version="1.0" encoding="UTF-8" standalone="no"?><svg xmlns="http://www.w3.org/2000/svg" xmlns:xlink="http://www.w3.org/1999/xlink" clip-rule="evenodd" stroke-miterlimit="4.00" viewBox="0 0 454 32"><desc>SVG generated by Keynote</desc><defs></defs><g transform="matrix(1.00, 0.00, -0.00, -1.00, 0.0, 32.0)"><text xml:space="preserve" font-family="AvenirNext-DemiBold" font-weight="bold" font-size="36.0" fill="#F6FEFF" transform="matrix(1.00, 0.00, -0.00, -1.00, 0.0, 2.0)">D</text><text xml:space="preserve" font-family="AvenirNext-DemiBold" font-weight="bold" font-size="36.0" fill="#F6FEFF" transform="matrix(1.00, 0.00, -0.00, -1.00, 27.5, 2.0)">i</text><text xml:space="preserve" font-family="AvenirNext-DemiBold" font-weight="bold" font-size="36.0" fill="#F6FEFF" transform="matrix(1.00, 0.00, -0.00, -1.00, 37.2, 2.0)">r</text><text xml:space="preserve" font-family="AvenirNext-DemiBold" font-weight="bold" font-size="36.0" fill="#F6FEFF" transform="matrix(1.00, 0.00, -0.00, -1.00, 49.6, 2.0)">e</text><text xml:space="preserve" font-family="AvenirNext-DemiBold" font-weight="bold" font-size="36.0" fill="#F6FEFF" transform="matrix(1.00, 0.00, -0.00, -1.00, 70.3, 2.0)">c</text><text xml:space="preserve" font-family="AvenirNext-DemiBold" font-weight="bold" font-size="36.0" fill="#F6FEFF" transform="matrix(1.00, 0.00, -0.00, -1.00, 87.8, 2.0)">t</text><text xml:space="preserve" font-family="AvenirNext-DemiBold" font-weight="bold" font-size="36.0" fill="#F6FEFF" transform="matrix(1.00, 0.00, -0.00, -1.00, 100.1, 2.0)">i</text><text xml:space="preserve" font-family="AvenirNext-DemiBold" font-weight="bold" font-size="36.0" fill="#F6FEFF" transform="matrix(1.00, 0.00, -0.00, -1.00, 109.7, 2.0)">v</text><text xml:space="preserve" font-family="AvenirNext-DemiBold" font-weight="bold" font-size="36.0" fill="#F6FEFF" transform="matrix(1.00, 0.00, -0.00, -1.00, 128.2, 2.0)">e</text><text xml:space="preserve" font-family="AvenirNext-DemiBold" font-weight="bold" font-size="36.0" fill="#F6FEFF" transform="matrix(1.00, 0.00, -0.00, -1.00, 148.9, 2.0)">s</text><text xml:space="preserve" font-family="AvenirNext-DemiBold" font-weight="bold" font-size="36.0" fill="#F6FEFF" transform="matrix(1.00, 0.00, -0.00, -1.00, 164.8, 2.0)"> </text><text xml:space="preserve" font-family="AvenirNext-DemiBold" font-weight="bold" font-size="36.0" fill="#F6FEFF" transform="matrix(1.00, 0.00, -0.00, -1.00, 173.8, 2.0)">a</text><text xml:space="preserve" font-family="AvenirNext-DemiBold" font-weight="bold" font-size="36.0" fill="#F6FEFF" transform="matrix(1.00, 0.00, -0.00, -1.00, 193.6, 2.0)">s</text><text xml:space="preserve" font-family="AvenirNext-DemiBold" font-weight="bold" font-size="36.0" fill="#F6FEFF" transform="matrix(1.00, 0.00, -0.00, -1.00, 209.6, 2.0)"> </text><text xml:space="preserve" font-family="AvenirNext-DemiBold" font-weight="bold" font-size="36.0" fill="#F6FEFF" transform="matrix(1.00, 0.00, -0.00, -1.00, 218.6, 2.0)">r</text><text xml:space="preserve" font-family="AvenirNext-DemiBold" font-weight="bold" font-size="36.0" fill="#F6FEFF" transform="matrix(1.00, 0.00, -0.00, -1.00, 231.1, 2.0)">e</text><text xml:space="preserve" font-family="AvenirNext-DemiBold" font-weight="bold" font-size="36.0" fill="#F6FEFF" transform="matrix(1.00, 0.00, -0.00, -1.00, 251.7, 2.0)">u</text><text xml:space="preserve" font-family="AvenirNext-DemiBold" font-weight="bold" font-size="36.0" fill="#F6FEFF" transform="matrix(1.00, 0.00, -0.00, -1.00, 272.7, 2.0)">s</text><text xml:space="preserve" font-family="AvenirNext-DemiBold" font-weight="bold" font-size="36.0" fill="#F6FEFF" transform="matrix(1.00, 0.00, -0.00, -1.00, 288.7, 2.0)">a</text><text xml:space="preserve" font-family="AvenirNext-DemiBold" font-weight="bold" font-size="36.0" fill="#F6FEFF" transform="matrix(1.00, 0.00, -0.00, -1.00, 308.5, 2.0)">b</text><text xml:space="preserve" font-family="AvenirNext-DemiBold" font-weight="bold" font-size="36.0" fill="#F6FEFF" transform="matrix(1.00, 0.00, -0.00, -1.00, 331.3, 2.0)">l</text><text xml:space="preserve" font-family="AvenirNext-DemiBold" font-weight="bold" font-size="36.0" fill="#F6FEFF" transform="matrix(1.00, 0.00, -0.00, -1.00, 341.0, 2.0)">e</text><text xml:space="preserve" font-family="AvenirNext-DemiBold" font-weight="bold" font-size="36.0" fill="#F6FEFF" transform="matrix(1.00, 0.00, -0.00, -1.00, 361.7, 2.0)"> </text><text xml:space="preserve" font-family="AvenirNext-DemiBold" font-weight="bold" font-size="36.0" fill="#F6FEFF" transform="matrix(1.00, 0.00, -0.00, -1.00, 370.7, 2.0)">c</text><text xml:space="preserve" font-family="AvenirNext-DemiBold" font-weight="bold" font-size="36.0" fill="#F6FEFF" transform="matrix(1.00, 0.00, -0.00, -1.00, 388.2, 2.0)">o</text><text xml:space="preserve" font-family="AvenirNext-DemiBold" font-weight="bold" font-size="36.0" fill="#F6FEFF" transform="matrix(1.00, 0.00, -0.00, -1.00, 410.2, 2.0)">d</text><text xml:space="preserve" font-family="AvenirNext-DemiBold" font-weight="bold" font-size="36.0" fill="#F6FEFF" transform="matrix(1.00, 0.00, -0.00, -1.00, 433.0, 2.0)">e</text></g></svg>