<?xml version="1.0" encoding="UTF-8" standalone="no"?><svg xmlns="http://www.w3.org/2000/svg" xmlns:xlink="http://www.w3.org/1999/xlink" clip-rule="evenodd" stroke-miterlimit="4.00" viewBox="0 0 141 32"><desc>SVG generated by Keynote</desc><defs></defs><g transform="matrix(1.00, 0.00, -0.00, -1.00, 0.0, 32.0)"><text xml:space="preserve" font-family="AvenirNext-DemiBold" font-weight="bold" font-size="28.0" fill="#F6FEFF" transform="matrix(1.00, 0.00, -0.00, -1.00, 0.0, 9.0)">d</text><text xml:space="preserve" font-family="AvenirNext-DemiBold" font-weight="bold" font-size="28.0" fill="#F6FEFF" transform="matrix(1.00, 0.00, -0.00, -1.00, 17.8, 9.0)">i</text><text xml:space="preserve" font-family="AvenirNext-DemiBold" font-weight="bold" font-size="28.0" fill="#F6FEFF" transform="matrix(1.00, 0.00, -0.00, -1.00, 25.3, 9.0)">r</text><text xml:space="preserve" font-family="AvenirNext-DemiBold" font-weight="bold" font-size="28.0" fill="#F6FEFF" transform="matrix(1.00, 0.00, -0.00, -1.00, 34.9, 9.0)">e</text><text xml:space="preserve" font-family="AvenirNext-DemiBold" font-weight="bold" font-size="28.0" fill="#F6FEFF" transform="matrix(1.00, 0.00, -0.00, -1.00, 51.0, 9.0)">c</text><text xml:space="preserve" font-family="AvenirNext-DemiBold" font-weight="bold" font-size="28.0" fill="#F6FEFF" transform="matrix(1.00, 0.00, -0.00, -1.00, 64.7, 9.0)">t</text><text xml:space="preserve" font-family="AvenirNext-DemiBold" font-weight="bold" font-size="28.0" fill="#F6FEFF" transform="matrix(1.00, 0.00, -0.00, -1.00, 74.2, 9.0)">i</text><text xml:space="preserve" font-family="AvenirNext-DemiBold" font-weight="bold" font-size="28.0" fill="#F6FEFF" transform="matrix(1.00, 0.00, -0.00, -1.00, 81.7, 9.0)">v</text><text xml:space="preserve" font-family="AvenirNext-DemiBold" font-weight="bold" font-size="28.0" fill="#F6FEFF" transform="matrix(1.00, 0.00, -0.00, -1.00, 96.1, 9.0)">e</text><text xml:space="preserve" font-family="AvenirNext-DemiBold" font-weight="bold" font-size="28.0" fill="#F6FEFF" transform="matrix(1.00, 0.00, -0.00, -1.00, 112.1, 9.0)">.</text><text xml:space="preserve" font-family="AvenirNext-DemiBold" font-weight="bold" font-size="28.0" fill="#F6FEFF" transform="matrix(1.00, 0.00, -0.00, -1.00, 119.4, 9.0)">j</text><text xml:space="preserve" font-family="AvenirNext-DemiBold" font-weight="bold" font-size="28.0" fill="#F6FEFF" transform="matrix(1.00, 0.00, -0.00, -1.00, 126.9, 9.0)">s</text></g></svg>