<?xml version="1.0" encoding="UTF-8" standalone="no"?><svg xmlns="http://www.w3.org/2000/svg" xmlns:xlink="http://www.w3.org/1999/xlink" clip-rule="evenodd" stroke-miterlimit="4.00" viewBox="0 0 364 312"><desc>SVG generated by Keynote</desc><defs></defs><g transform="matrix(1.00, 0.00, -0.00, -1.00, 0.0, 312.0)"><text xml:space="preserve" font-family="AvenirNext-Medium" font-size="22.0" fill="#F6FEFF" transform="matrix(1.00, 0.00, -0.00, -1.00, 1.0, 293.0)">.</text><text xml:space="preserve" font-family="AvenirNext-Medium" font-size="22.0" fill="#F6FEFF" transform="matrix(1.00, 0.00, -0.00, -1.00, 6.7, 293.0)">d</text><text xml:space="preserve" font-family="AvenirNext-Medium" font-size="22.0" fill="#F6FEFF" transform="matrix(1.00, 0.00, -0.00, -1.00, 20.7, 293.0)">i</text><text xml:space="preserve" font-family="AvenirNext-Medium" font-size="22.0" fill="#F6FEFF" transform="matrix(1.00, 0.00, -0.00, -1.00, 26.4, 293.0)">r</text><text xml:space="preserve" font-family="AvenirNext-Medium" font-size="22.0" fill="#F6FEFF" transform="matrix(1.00, 0.00, -0.00, -1.00, 34.0, 293.0)">e</text><text xml:space="preserve" font-family="AvenirNext-Medium" font-size="22.0" fill="#F6FEFF" transform="matrix(1.00, 0.00, -0.00, -1.00, 46.6, 293.0)">c</text><text xml:space="preserve" font-family="AvenirNext-Medium" font-size="22.0" fill="#F6FEFF" transform="matrix(1.00, 0.00, -0.00, -1.00, 57.4, 293.0)">t</text><text xml:space="preserve" font-family="AvenirNext-Medium" font-size="22.0" fill="#F6FEFF" transform="matrix(1.00, 0.00, -0.00, -1.00, 64.7, 293.0)">i</text><text xml:space="preserve" font-family="AvenirNext-Medium" font-size="22.0" fill="#F6FEFF" transform="matrix(1.00, 0.00, -0.00, -1.00, 70.4, 293.0)">v</text><text xml:space="preserve" font-family="AvenirNext-Medium" font-size="22.0" fill="#F6FEFF" transform="matrix(1.00, 0.00, -0.00, -1.00, 81.5, 293.0)">e</text><text xml:space="preserve" font-family="AvenirNext-Medium" font-size="22.0" fill="#F6FEFF" transform="matrix(1.00, 0.00, -0.00, -1.00, 94.1, 293.0)">(</text><text xml:space="preserve" font-family="AvenirNext-Medium" font-size="22.0" fill="#F6FEFF" transform="matrix(1.00, 0.00, -0.00, -1.00, 101.0, 293.0)">'</text><text xml:space="preserve" font-family="AvenirNext-Medium" font-size="22.0" fill="#F6FEFF" transform="matrix(1.00, 0.00, -0.00, -1.00, 106.8, 293.0)">m</text><text xml:space="preserve" font-family="AvenirNext-Medium" font-size="22.0" fill="#F6FEFF" transform="matrix(1.00, 0.00, -0.00, -1.00, 126.3, 293.0)">y</text><text xml:space="preserve" font-family="AvenirNext-Medium" font-size="22.0" fill="#F6FEFF" transform="matrix(1.00, 0.00, -0.00, -1.00, 137.4, 293.0)">C</text><text xml:space="preserve" font-family="AvenirNext-Medium" font-size="22.0" fill="#F6FEFF" transform="matrix(1.00, 0.00, -0.00, -1.00, 152.9, 293.0)">u</text><text xml:space="preserve" font-family="AvenirNext-Medium" font-size="22.0" fill="#F6FEFF" transform="matrix(1.00, 0.00, -0.00, -1.00, 165.7, 293.0)">s</text><text xml:space="preserve" font-family="AvenirNext-Medium" font-size="22.0" fill="#F6FEFF" transform="matrix(1.00, 0.00, -0.00, -1.00, 175.5, 293.0)">t</text><text xml:space="preserve" font-family="AvenirNext-Medium" font-size="22.0" fill="#F6FEFF" transform="matrix(1.00, 0.00, -0.00, -1.00, 182.7, 293.0)">o</text><text xml:space="preserve" font-family="AvenirNext-Medium" font-size="22.0" fill="#F6FEFF" transform="matrix(1.00, 0.00, -0.00, -1.00, 196.2, 293.0)">m</text><text xml:space="preserve" font-family="AvenirNext-Medium" font-size="22.0" fill="#F6FEFF" transform="matrix(1.00, 0.00, -0.00, -1.00, 215.7, 293.0)">e</text><text xml:space="preserve" font-family="AvenirNext-Medium" font-size="22.0" fill="#F6FEFF" transform="matrix(1.00, 0.00, -0.00, -1.00, 228.3, 293.0)">r</text><text xml:space="preserve" font-family="AvenirNext-Medium" font-size="22.0" fill="#F6FEFF" transform="matrix(1.00, 0.00, -0.00, -1.00, 236.2, 293.0)">'</text><text xml:space="preserve" font-family="AvenirNext-Medium" font-size="22.0" fill="#F6FEFF" transform="matrix(1.00, 0.00, -0.00, -1.00, 242.0, 293.0)">,</text><text xml:space="preserve" font-family="AvenirNext-Medium" font-size="22.0" fill="#F6FEFF" transform="matrix(1.00, 0.00, -0.00, -1.00, 247.1, 293.0)"> </text><text xml:space="preserve" font-family="AvenirNext-Medium" font-size="22.0" fill="#F6FEFF" transform="matrix(1.00, 0.00, -0.00, -1.00, 252.6, 293.0)">f</text><text xml:space="preserve" font-family="AvenirNext-Medium" font-size="22.0" fill="#F6FEFF" transform="matrix(1.00, 0.00, -0.00, -1.00, 259.4, 293.0)">u</text><text xml:space="preserve" font-family="AvenirNext-Medium" font-size="22.0" fill="#F6FEFF" transform="matrix(1.00, 0.00, -0.00, -1.00, 272.2, 293.0)">n</text><text xml:space="preserve" font-family="AvenirNext-Medium" font-size="22.0" fill="#F6FEFF" transform="matrix(1.00, 0.00, -0.00, -1.00, 285.0, 293.0)">c</text><text xml:space="preserve" font-family="AvenirNext-Medium" font-size="22.0" fill="#F6FEFF" transform="matrix(1.00, 0.00, -0.00, -1.00, 295.9, 293.0)">t</text><text xml:space="preserve" font-family="AvenirNext-Medium" font-size="22.0" fill="#F6FEFF" transform="matrix(1.00, 0.00, -0.00, -1.00, 303.1, 293.0)">i</text><text xml:space="preserve" font-family="AvenirNext-Medium" font-size="22.0" fill="#F6FEFF" transform="matrix(1.00, 0.00, -0.00, -1.00, 308.8, 293.0)">o</text><text xml:space="preserve" font-family="AvenirNext-Medium" font-size="22.0" fill="#F6FEFF" transform="matrix(1.00, 0.00, -0.00, -1.00, 322.2, 293.0)">n</text><text xml:space="preserve" font-family="AvenirNext-Medium" font-size="22.0" fill="#F6FEFF" transform="matrix(1.00, 0.00, -0.00, -1.00, 335.0, 293.0)">(</text><text xml:space="preserve" font-family="AvenirNext-Medium" font-size="22.0" fill="#F6FEFF" transform="matrix(1.00, 0.00, -0.00, -1.00, 342.0, 293.0)">)</text><text xml:space="preserve" font-family="AvenirNext-Medium" font-size="22.0" fill="#F6FEFF" transform="matrix(1.00, 0.00, -0.00, -1.00, 348.9, 293.0)"> </text><text xml:space="preserve" font-family="AvenirNext-Medium" font-size="22.0" fill="#F6FEFF" transform="matrix(1.00, 0.00, -0.00, -1.00, 354.4, 293.0)">{</text><text xml:space="preserve" font-family="AvenirNext-Medium" font-size="22.0" fill="#F6FEFF" transform="matrix(1.00, 0.00, -0.00, -1.00, 361.3, 293.0)"> </text><text xml:space="preserve" font-family="AvenirNext-Medium" font-size="22.0" fill="#F6FEFF" transform="matrix(1.00, 0.00, -0.00, -1.00, 1.0, 257.0)"> </text><text xml:space="preserve" font-family="AvenirNext-Medium" font-size="22.0" fill="#F6FEFF" transform="matrix(1.00, 0.00, -0.00, -1.00, 6.5, 257.0)"> </text><text xml:space="preserve" font-family="AvenirNext-Medium" font-size="22.0" fill="#F6FEFF" transform="matrix(1.00, 0.00, -0.00, -1.00, 12.0, 257.0)">r</text><text xml:space="preserve" font-family="AvenirNext-Medium" font-size="22.0" fill="#F6FEFF" transform="matrix(1.00, 0.00, -0.00, -1.00, 19.6, 257.0)">e</text><text xml:space="preserve" font-family="AvenirNext-Medium" font-size="22.0" fill="#F6FEFF" transform="matrix(1.00, 0.00, -0.00, -1.00, 32.2, 257.0)">t</text><text xml:space="preserve" font-family="AvenirNext-Medium" font-size="22.0" fill="#F6FEFF" transform="matrix(1.00, 0.00, -0.00, -1.00, 39.4, 257.0)">u</text><text xml:space="preserve" font-family="AvenirNext-Medium" font-size="22.0" fill="#F6FEFF" transform="matrix(1.00, 0.00, -0.00, -1.00, 52.2, 257.0)">r</text><text xml:space="preserve" font-family="AvenirNext-Medium" font-size="22.0" fill="#F6FEFF" transform="matrix(1.00, 0.00, -0.00, -1.00, 60.2, 257.0)">n</text><text xml:space="preserve" font-family="AvenirNext-Medium" font-size="22.0" fill="#F6FEFF" transform="matrix(1.00, 0.00, -0.00, -1.00, 73.0, 257.0)"> </text><text xml:space="preserve" font-family="AvenirNext-Medium" font-size="22.0" fill="#F6FEFF" transform="matrix(1.00, 0.00, -0.00, -1.00, 78.5, 257.0)">{</text><text xml:space="preserve" font-family="AvenirNext-Medium" font-size="22.0" fill="#F6FEFF" transform="matrix(1.00, 0.00, -0.00, -1.00, 85.4, 257.0)"> </text><text xml:space="preserve" font-family="AvenirNext-Medium" font-size="22.0" fill="#F6FEFF" transform="matrix(1.00, 0.00, -0.00, -1.00, 1.0, 221.0)"> </text><text xml:space="preserve" font-family="AvenirNext-Medium" font-size="22.0" fill="#F6FEFF" transform="matrix(1.00, 0.00, -0.00, -1.00, 6.5, 221.0)"> </text><text xml:space="preserve" font-family="AvenirNext-Medium" font-size="22.0" fill="#F6FEFF" transform="matrix(1.00, 0.00, -0.00, -1.00, 12.0, 221.0)"> </text><text xml:space="preserve" font-family="AvenirNext-Medium" font-size="22.0" fill="#F6FEFF" transform="matrix(1.00, 0.00, -0.00, -1.00, 17.5, 221.0)"> </text><text xml:space="preserve" font-family="AvenirNext-Medium" font-size="22.0" fill="#F6FEFF" transform="matrix(1.00, 0.00, -0.00, -1.00, 23.0, 221.0)">r</text><text xml:space="preserve" font-family="AvenirNext-Medium" font-size="22.0" fill="#F6FEFF" transform="matrix(1.00, 0.00, -0.00, -1.00, 30.6, 221.0)">e</text><text xml:space="preserve" font-family="AvenirNext-Medium" font-size="22.0" fill="#F6FEFF" transform="matrix(1.00, 0.00, -0.00, -1.00, 43.2, 221.0)">s</text><text xml:space="preserve" font-family="AvenirNext-Medium" font-size="22.0" fill="#F6FEFF" transform="matrix(1.00, 0.00, -0.00, -1.00, 52.9, 221.0)">t</text><text xml:space="preserve" font-family="AvenirNext-Medium" font-size="22.0" fill="#F6FEFF" transform="matrix(1.00, 0.00, -0.00, -1.00, 60.2, 221.0)">r</text><text xml:space="preserve" font-family="AvenirNext-Medium" font-size="22.0" fill="#F6FEFF" transform="matrix(1.00, 0.00, -0.00, -1.00, 68.1, 221.0)">i</text><text xml:space="preserve" font-family="AvenirNext-Medium" font-size="22.0" fill="#F6FEFF" transform="matrix(1.00, 0.00, -0.00, -1.00, 73.8, 221.0)">c</text><text xml:space="preserve" font-family="AvenirNext-Medium" font-size="22.0" fill="#F6FEFF" transform="matrix(1.00, 0.00, -0.00, -1.00, 84.7, 221.0)">t</text><text xml:space="preserve" font-family="AvenirNext-Medium" font-size="22.0" fill="#F6FEFF" transform="matrix(1.00, 0.00, -0.00, -1.00, 91.9, 221.0)">:</text><text xml:space="preserve" font-family="AvenirNext-Medium" font-size="22.0" fill="#F6FEFF" transform="matrix(1.00, 0.00, -0.00, -1.00, 98.5, 221.0)"> </text><text xml:space="preserve" font-family="AvenirNext-Medium" font-size="22.0" fill="#F6FEFF" transform="matrix(1.00, 0.00, -0.00, -1.00, 104.0, 221.0)">'</text><text xml:space="preserve" font-family="AvenirNext-Medium" font-size="22.0" fill="#F6FEFF" transform="matrix(1.00, 0.00, -0.00, -1.00, 109.8, 221.0)">E</text><text xml:space="preserve" font-family="AvenirNext-Medium" font-size="22.0" fill="#F6FEFF" transform="matrix(1.00, 0.00, -0.00, -1.00, 123.0, 221.0)">'</text><text xml:space="preserve" font-family="AvenirNext-Medium" font-size="22.0" fill="#F6FEFF" transform="matrix(1.00, 0.00, -0.00, -1.00, 128.8, 221.0)">,</text><text xml:space="preserve" font-family="AvenirNext-Medium" font-size="22.0" fill="#F6FEFF" transform="matrix(1.00, 0.00, -0.00, -1.00, 133.9, 221.0)"> </text><text xml:space="preserve" font-family="AvenirNext-Medium" font-size="22.0" fill="#F6FEFF" transform="matrix(1.00, 0.00, -0.00, -1.00, 1.0, 185.0)"> </text><text xml:space="preserve" font-family="AvenirNext-Medium" font-size="22.0" fill="#F6FEFF" transform="matrix(1.00, 0.00, -0.00, -1.00, 6.5, 185.0)"> </text><text xml:space="preserve" font-family="AvenirNext-Medium" font-size="22.0" fill="#F6FEFF" transform="matrix(1.00, 0.00, -0.00, -1.00, 12.0, 185.0)"> </text><text xml:space="preserve" font-family="AvenirNext-Medium" font-size="22.0" fill="#F6FEFF" transform="matrix(1.00, 0.00, -0.00, -1.00, 17.5, 185.0)"> </text><text xml:space="preserve" font-family="AvenirNext-Medium" font-size="22.0" fill="#F6FEFF" transform="matrix(1.00, 0.00, -0.00, -1.00, 23.0, 185.0)">s</text><text xml:space="preserve" font-family="AvenirNext-Medium" font-size="22.0" fill="#F6FEFF" transform="matrix(1.00, 0.00, -0.00, -1.00, 32.8, 185.0)">c</text><text xml:space="preserve" font-family="AvenirNext-Medium" font-size="22.0" fill="#F6FEFF" transform="matrix(1.00, 0.00, -0.00, -1.00, 43.6, 185.0)">o</text><text xml:space="preserve" font-family="AvenirNext-Medium" font-size="22.0" fill="#F6FEFF" transform="matrix(1.00, 0.00, -0.00, -1.00, 57.1, 185.0)">p</text><text xml:space="preserve" font-family="AvenirNext-Medium" font-size="22.0" fill="#F6FEFF" transform="matrix(1.00, 0.00, -0.00, -1.00, 71.0, 185.0)">e</text><text xml:space="preserve" font-family="AvenirNext-Medium" font-size="22.0" fill="#F6FEFF" transform="matrix(1.00, 0.00, -0.00, -1.00, 83.6, 185.0)">:</text><text xml:space="preserve" font-family="AvenirNext-Medium" font-size="22.0" fill="#F6FEFF" transform="matrix(1.00, 0.00, -0.00, -1.00, 90.2, 185.0)"> </text><text xml:space="preserve" font-family="AvenirNext-Medium" font-size="22.0" fill="#F6FEFF" transform="matrix(1.00, 0.00, -0.00, -1.00, 95.7, 185.0)">{</text><text xml:space="preserve" font-family="AvenirNext-Medium" font-size="22.0" fill="#F6FEFF" transform="matrix(1.00, 0.00, -0.00, -1.00, 102.6, 185.0)"> </text><text xml:space="preserve" font-family="AvenirNext-Medium" font-size="22.0" fill="#F6FEFF" transform="matrix(1.00, 0.00, -0.00, -1.00, 1.0, 149.0)"> </text><text xml:space="preserve" font-family="AvenirNext-Medium" font-size="22.0" fill="#F6FEFF" transform="matrix(1.00, 0.00, -0.00, -1.00, 6.5, 149.0)"> </text><text xml:space="preserve" font-family="AvenirNext-Medium" font-size="22.0" fill="#F6FEFF" transform="matrix(1.00, 0.00, -0.00, -1.00, 12.0, 149.0)"> </text><text xml:space="preserve" font-family="AvenirNext-Medium" font-size="22.0" fill="#F6FEFF" transform="matrix(1.00, 0.00, -0.00, -1.00, 17.5, 149.0)"> </text><text xml:space="preserve" font-family="AvenirNext-Medium" font-size="22.0" fill="#F6FEFF" transform="matrix(1.00, 0.00, -0.00, -1.00, 23.0, 149.0)"> </text><text xml:space="preserve" font-family="AvenirNext-Medium" font-size="22.0" fill="#F6FEFF" transform="matrix(1.00, 0.00, -0.00, -1.00, 28.5, 149.0)"> </text><text xml:space="preserve" font-family="AvenirNext-Medium" font-size="22.0" fill="#F6FEFF" transform="matrix(1.00, 0.00, -0.00, -1.00, 34.0, 149.0)">c</text><text xml:space="preserve" font-family="AvenirNext-Medium" font-size="22.0" fill="#F6FEFF" transform="matrix(1.00, 0.00, -0.00, -1.00, 44.9, 149.0)">u</text><text xml:space="preserve" font-family="AvenirNext-Medium" font-size="22.0" fill="#F6FEFF" transform="matrix(1.00, 0.00, -0.00, -1.00, 57.7, 149.0)">s</text><text xml:space="preserve" font-family="AvenirNext-Medium" font-size="22.0" fill="#F6FEFF" transform="matrix(1.00, 0.00, -0.00, -1.00, 67.4, 149.0)">t</text><text xml:space="preserve" font-family="AvenirNext-Medium" font-size="22.0" fill="#F6FEFF" transform="matrix(1.00, 0.00, -0.00, -1.00, 74.7, 149.0)">o</text><text xml:space="preserve" font-family="AvenirNext-Medium" font-size="22.0" fill="#F6FEFF" transform="matrix(1.00, 0.00, -0.00, -1.00, 88.1, 149.0)">m</text><text xml:space="preserve" font-family="AvenirNext-Medium" font-size="22.0" fill="#F6FEFF" transform="matrix(1.00, 0.00, -0.00, -1.00, 107.6, 149.0)">e</text><text xml:space="preserve" font-family="AvenirNext-Medium" font-size="22.0" fill="#F6FEFF" transform="matrix(1.00, 0.00, -0.00, -1.00, 120.2, 149.0)">r</text><text xml:space="preserve" font-family="AvenirNext-Medium" font-size="22.0" fill="#F6FEFF" transform="matrix(1.00, 0.00, -0.00, -1.00, 128.2, 149.0)">:</text><text xml:space="preserve" font-family="AvenirNext-Medium" font-size="22.0" fill="#F6FEFF" transform="matrix(1.00, 0.00, -0.00, -1.00, 134.8, 149.0)"> </text><text xml:space="preserve" font-family="AvenirNext-Medium" font-size="22.0" fill="#F6FEFF" transform="matrix(1.00, 0.00, -0.00, -1.00, 140.3, 149.0)">'</text><text xml:space="preserve" font-family="AvenirNext-Medium" font-size="22.0" fill="#F6FEFF" transform="matrix(1.00, 0.00, -0.00, -1.00, 146.0, 149.0)">=</text><text xml:space="preserve" font-family="AvenirNext-Medium" font-size="22.0" fill="#F6FEFF" transform="matrix(1.00, 0.00, -0.00, -1.00, 160.7, 149.0)">'</text><text xml:space="preserve" font-family="AvenirNext-Medium" font-size="22.0" fill="#F6FEFF" transform="matrix(1.00, 0.00, -0.00, -1.00, 166.5, 149.0)"> </text><text xml:space="preserve" font-family="AvenirNext-Medium" font-size="22.0" fill="#F6FEFF" transform="matrix(1.00, 0.00, -0.00, -1.00, 1.0, 113.0)"> </text><text xml:space="preserve" font-family="AvenirNext-Medium" font-size="22.0" fill="#F6FEFF" transform="matrix(1.00, 0.00, -0.00, -1.00, 6.5, 113.0)"> </text><text xml:space="preserve" font-family="AvenirNext-Medium" font-size="22.0" fill="#F6FEFF" transform="matrix(1.00, 0.00, -0.00, -1.00, 12.0, 113.0)"> </text><text xml:space="preserve" font-family="AvenirNext-Medium" font-size="22.0" fill="#F6FEFF" transform="matrix(1.00, 0.00, -0.00, -1.00, 17.5, 113.0)"> </text><text xml:space="preserve" font-family="AvenirNext-Medium" font-size="22.0" fill="#F6FEFF" transform="matrix(1.00, 0.00, -0.00, -1.00, 23.0, 113.0)">}</text><text xml:space="preserve" font-family="AvenirNext-Medium" font-size="22.0" fill="#F6FEFF" transform="matrix(1.00, 0.00, -0.00, -1.00, 29.9, 113.0)">,</text><text xml:space="preserve" font-family="AvenirNext-Medium" font-size="22.0" fill="#F6FEFF" transform="matrix(1.00, 0.00, -0.00, -1.00, 35.0, 113.0)"> </text><text xml:space="preserve" font-family="AvenirNext-Medium" font-size="22.0" fill="#F6FEFF" transform="matrix(1.00, 0.00, -0.00, -1.00, 1.0, 77.0)"> </text><text xml:space="preserve" font-family="AvenirNext-Medium" font-size="22.0" fill="#F6FEFF" transform="matrix(1.00, 0.00, -0.00, -1.00, 6.5, 77.0)"> </text><text xml:space="preserve" font-family="AvenirNext-Medium" font-size="22.0" fill="#F6FEFF" transform="matrix(1.00, 0.00, -0.00, -1.00, 12.0, 77.0)"> </text><text xml:space="preserve" font-family="AvenirNext-Medium" font-size="22.0" fill="#F6FEFF" transform="matrix(1.00, 0.00, -0.00, -1.00, 17.5, 77.0)"> </text><text xml:space="preserve" font-family="AvenirNext-Medium" font-size="22.0" fill="#F6FEFF" transform="matrix(1.00, 0.00, -0.00, -1.00, 23.0, 77.0)">t</text><text xml:space="preserve" font-family="AvenirNext-Medium" font-size="22.0" fill="#F6FEFF" transform="matrix(1.00, 0.00, -0.00, -1.00, 30.2, 77.0)">e</text><text xml:space="preserve" font-family="AvenirNext-Medium" font-size="22.0" fill="#F6FEFF" transform="matrix(1.00, 0.00, -0.00, -1.00, 42.8, 77.0)">m</text><text xml:space="preserve" font-family="AvenirNext-Medium" font-size="22.0" fill="#F6FEFF" transform="matrix(1.00, 0.00, -0.00, -1.00, 62.4, 77.0)">p</text><text xml:space="preserve" font-family="AvenirNext-Medium" font-size="22.0" fill="#F6FEFF" transform="matrix(1.00, 0.00, -0.00, -1.00, 76.3, 77.0)">l</text><text xml:space="preserve" font-family="AvenirNext-Medium" font-size="22.0" fill="#F6FEFF" transform="matrix(1.00, 0.00, -0.00, -1.00, 82.0, 77.0)">a</text><text xml:space="preserve" font-family="AvenirNext-Medium" font-size="22.0" fill="#F6FEFF" transform="matrix(1.00, 0.00, -0.00, -1.00, 93.7, 77.0)">t</text><text xml:space="preserve" font-family="AvenirNext-Medium" font-size="22.0" fill="#F6FEFF" transform="matrix(1.00, 0.00, -0.00, -1.00, 101.0, 77.0)">e</text><text xml:space="preserve" font-family="AvenirNext-Medium" font-size="22.0" fill="#F6FEFF" transform="matrix(1.00, 0.00, -0.00, -1.00, 113.6, 77.0)">U</text><text xml:space="preserve" font-family="AvenirNext-Medium" font-size="22.0" fill="#F6FEFF" transform="matrix(1.00, 0.00, -0.00, -1.00, 129.2, 77.0)">r</text><text xml:space="preserve" font-family="AvenirNext-Medium" font-size="22.0" fill="#F6FEFF" transform="matrix(1.00, 0.00, -0.00, -1.00, 137.2, 77.0)">l</text><text xml:space="preserve" font-family="AvenirNext-Medium" font-size="22.0" fill="#F6FEFF" transform="matrix(1.00, 0.00, -0.00, -1.00, 142.9, 77.0)">:</text><text xml:space="preserve" font-family="AvenirNext-Medium" font-size="22.0" fill="#F6FEFF" transform="matrix(1.00, 0.00, -0.00, -1.00, 149.5, 77.0)"> </text><text xml:space="preserve" font-family="AvenirNext-Medium" font-size="22.0" fill="#F6FEFF" transform="matrix(1.00, 0.00, -0.00, -1.00, 155.0, 77.0)">‘</text><text xml:space="preserve" font-family="AvenirNext-Medium" font-size="22.0" fill="#F6FEFF" transform="matrix(1.00, 0.00, -0.00, -1.00, 160.4, 77.0)">m</text><text xml:space="preserve" font-family="AvenirNext-Medium" font-size="22.0" fill="#F6FEFF" transform="matrix(1.00, 0.00, -0.00, -1.00, 179.9, 77.0)">y</text><text xml:space="preserve" font-family="AvenirNext-Medium" font-size="22.0" fill="#F6FEFF" transform="matrix(1.00, 0.00, -0.00, -1.00, 191.0, 77.0)">-</text><text xml:space="preserve" font-family="AvenirNext-Medium" font-size="22.0" fill="#F6FEFF" transform="matrix(1.00, 0.00, -0.00, -1.00, 198.1, 77.0)">c</text><text xml:space="preserve" font-family="AvenirNext-Medium" font-size="22.0" fill="#F6FEFF" transform="matrix(1.00, 0.00, -0.00, -1.00, 208.9, 77.0)">u</text><text xml:space="preserve" font-family="AvenirNext-Medium" font-size="22.0" fill="#F6FEFF" transform="matrix(1.00, 0.00, -0.00, -1.00, 221.7, 77.0)">s</text><text xml:space="preserve" font-family="AvenirNext-Medium" font-size="22.0" fill="#F6FEFF" transform="matrix(1.00, 0.00, -0.00, -1.00, 231.5, 77.0)">t</text><text xml:space="preserve" font-family="AvenirNext-Medium" font-size="22.0" fill="#F6FEFF" transform="matrix(1.00, 0.00, -0.00, -1.00, 238.8, 77.0)">o</text><text xml:space="preserve" font-family="AvenirNext-Medium" font-size="22.0" fill="#F6FEFF" transform="matrix(1.00, 0.00, -0.00, -1.00, 252.2, 77.0)">m</text><text xml:space="preserve" font-family="AvenirNext-Medium" font-size="22.0" fill="#F6FEFF" transform="matrix(1.00, 0.00, -0.00, -1.00, 271.7, 77.0)">e</text><text xml:space="preserve" font-family="AvenirNext-Medium" font-size="22.0" fill="#F6FEFF" transform="matrix(1.00, 0.00, -0.00, -1.00, 284.3, 77.0)">r</text><text xml:space="preserve" font-family="AvenirNext-Medium" font-size="22.0" fill="#F6FEFF" transform="matrix(1.00, 0.00, -0.00, -1.00, 291.2, 77.0)">.</text><text xml:space="preserve" font-family="AvenirNext-Medium" font-size="22.0" fill="#F6FEFF" transform="matrix(1.00, 0.00, -0.00, -1.00, 296.9, 77.0)">h</text><text xml:space="preserve" font-family="AvenirNext-Medium" font-size="22.0" fill="#F6FEFF" transform="matrix(1.00, 0.00, -0.00, -1.00, 309.8, 77.0)">t</text><text xml:space="preserve" font-family="AvenirNext-Medium" font-size="22.0" fill="#F6FEFF" transform="matrix(1.00, 0.00, -0.00, -1.00, 317.0, 77.0)">m</text><text xml:space="preserve" font-family="AvenirNext-Medium" font-size="22.0" fill="#F6FEFF" transform="matrix(1.00, 0.00, -0.00, -1.00, 336.5, 77.0)">l</text><text xml:space="preserve" font-family="AvenirNext-Medium" font-size="22.0" fill="#F6FEFF" transform="matrix(1.00, 0.00, -0.00, -1.00, 342.2, 77.0)">'</text><text xml:space="preserve" font-family="AvenirNext-Medium" font-size="22.0" fill="#F6FEFF" transform="matrix(1.00, 0.00, -0.00, -1.00, 348.0, 77.0)"> </text><text xml:space="preserve" font-family="AvenirNext-Medium" font-size="22.0" fill="#F6FEFF" transform="matrix(1.00, 0.00, -0.00, -1.00, 1.0, 41.0)"> </text><text xml:space="preserve" font-family="AvenirNext-Medium" font-size="22.0" fill="#F6FEFF" transform="matrix(1.00, 0.00, -0.00, -1.00, 6.5, 41.0)"> </text><text xml:space="preserve" font-family="AvenirNext-Medium" font-size="22.0" fill="#F6FEFF" transform="matrix(1.00, 0.00, -0.00, -1.00, 12.0, 41.0)">}</text><text xml:space="preserve" font-family="AvenirNext-Medium" font-size="22.0" fill="#F6FEFF" transform="matrix(1.00, 0.00, -0.00, -1.00, 18.9, 41.0)">;</text><text xml:space="preserve" font-family="AvenirNext-Medium" font-size="22.0" fill="#F6FEFF" transform="matrix(1.00, 0.00, -0.00, -1.00, 25.5, 41.0)"> </text><text xml:space="preserve" font-family="AvenirNext-Medium" font-size="22.0" fill="#F6FEFF" transform="matrix(1.00, 0.00, -0.00, -1.00, 1.0, 5.0)">}</text><text xml:space="preserve" font-family="AvenirNext-Medium" font-size="22.0" fill="#F6FEFF" transform="matrix(1.00, 0.00, -0.00, -1.00, 7.9, 5.0)">)</text><text xml:space="preserve" font-family="AvenirNext-Medium" font-size="22.0" fill="#F6FEFF" transform="matrix(1.00, 0.00, -0.00, -1.00, 14.9, 5.0)">;</text></g></svg>