<?xml version="1.0" encoding="UTF-8" standalone="no"?><svg xmlns="http://www.w3.org/2000/svg" xmlns:xlink="http://www.w3.org/1999/xlink" clip-rule="evenodd" stroke-miterlimit="4.00" viewBox="0 0 201 34"><desc>SVG generated by Keynote</desc><defs></defs><g transform="matrix(1.00, 0.00, -0.00, -1.00, 0.0, 34.0)"><text xml:space="preserve" font-family="AvenirNext-DemiBold" font-weight="bold" font-size="30.0" fill="#F6FEFF" transform="matrix(1.00, 0.00, -0.00, -1.00, 0.0, 9.0)">1</text><text xml:space="preserve" font-family="AvenirNext-DemiBold" font-weight="bold" font-size="30.0" fill="#F6FEFF" transform="matrix(1.00, 0.00, -0.00, -1.00, 18.3, 9.0)">6</text><text xml:space="preserve" font-family="AvenirNext-DemiBold" font-weight="bold" font-size="30.0" fill="#F6FEFF" transform="matrix(1.00, 0.00, -0.00, -1.00, 36.6, 9.0)"> </text><text xml:space="preserve" font-family="AvenirNext-DemiBold" font-weight="bold" font-size="30.0" fill="#F6FEFF" transform="matrix(1.00, 0.00, -0.00, -1.00, 44.1, 9.0)">d</text><text xml:space="preserve" font-family="AvenirNext-DemiBold" font-weight="bold" font-size="30.0" fill="#F6FEFF" transform="matrix(1.00, 0.00, -0.00, -1.00, 63.1, 9.0)">e</text><text xml:space="preserve" font-family="AvenirNext-DemiBold" font-weight="bold" font-size="30.0" fill="#F6FEFF" transform="matrix(1.00, 0.00, -0.00, -1.00, 80.3, 9.0)">v</text><text xml:space="preserve" font-family="AvenirNext-DemiBold" font-weight="bold" font-size="30.0" fill="#F6FEFF" transform="matrix(1.00, 0.00, -0.00, -1.00, 95.7, 9.0)">e</text><text xml:space="preserve" font-family="AvenirNext-DemiBold" font-weight="bold" font-size="30.0" fill="#F6FEFF" transform="matrix(1.00, 0.00, -0.00, -1.00, 113.0, 9.0)">l</text><text xml:space="preserve" font-family="AvenirNext-DemiBold" font-weight="bold" font-size="30.0" fill="#F6FEFF" transform="matrix(1.00, 0.00, -0.00, -1.00, 121.0, 9.0)">o</text><text xml:space="preserve" font-family="AvenirNext-DemiBold" font-weight="bold" font-size="30.0" fill="#F6FEFF" transform="matrix(1.00, 0.00, -0.00, -1.00, 139.3, 9.0)">p</text><text xml:space="preserve" font-family="AvenirNext-DemiBold" font-weight="bold" font-size="30.0" fill="#F6FEFF" transform="matrix(1.00, 0.00, -0.00, -1.00, 158.3, 9.0)">e</text><text xml:space="preserve" font-family="AvenirNext-DemiBold" font-weight="bold" font-size="30.0" fill="#F6FEFF" transform="matrix(1.00, 0.00, -0.00, -1.00, 175.5, 9.0)">r</text><text xml:space="preserve" font-family="AvenirNext-DemiBold" font-weight="bold" font-size="30.0" fill="#F6FEFF" transform="matrix(1.00, 0.00, -0.00, -1.00, 186.4, 9.0)">s</text></g></svg>