<?xml version="1.0" encoding="UTF-8" standalone="no"?><svg xmlns="http://www.w3.org/2000/svg" xmlns:xlink="http://www.w3.org/1999/xlink" clip-rule="evenodd" stroke-miterlimit="4.00" viewBox="0 0 340 27"><desc>SVG generated by Keynote</desc><defs></defs><g transform="matrix(1.00, 0.00, -0.00, -1.00, 0.0, 27.0)"><text xml:space="preserve" font-family="AvenirNext-DemiBold" font-weight="bold" font-size="30.0" fill="#F6FEFF" transform="matrix(1.00, 0.00, -0.00, -1.00, 3.0, 2.0)">Y</text><text xml:space="preserve" font-family="AvenirNext-DemiBold" font-weight="bold" font-size="30.0" fill="#F6FEFF" transform="matrix(1.00, 0.00, -0.00, -1.00, 18.9, 2.0)">o</text><text xml:space="preserve" font-family="AvenirNext-DemiBold" font-weight="bold" font-size="30.0" fill="#F6FEFF" transform="matrix(1.00, 0.00, -0.00, -1.00, 37.2, 2.0)">u</text><text xml:space="preserve" font-family="AvenirNext-DemiBold" font-weight="bold" font-size="30.0" fill="#F6FEFF" transform="matrix(1.00, 0.00, -0.00, -1.00, 54.6, 2.0)"> </text><text xml:space="preserve" font-family="AvenirNext-DemiBold" font-weight="bold" font-size="30.0" fill="#F6FEFF" transform="matrix(1.00, 0.00, -0.00, -1.00, 62.1, 2.0)">n</text><text xml:space="preserve" font-family="AvenirNext-DemiBold" font-weight="bold" font-size="30.0" fill="#F6FEFF" transform="matrix(1.00, 0.00, -0.00, -1.00, 79.6, 2.0)">e</text><text xml:space="preserve" font-family="AvenirNext-DemiBold" font-weight="bold" font-size="30.0" fill="#F6FEFF" transform="matrix(1.00, 0.00, -0.00, -1.00, 96.8, 2.0)">e</text><text xml:space="preserve" font-family="AvenirNext-DemiBold" font-weight="bold" font-size="30.0" fill="#F6FEFF" transform="matrix(1.00, 0.00, -0.00, -1.00, 114.0, 2.0)">d</text><text xml:space="preserve" font-family="AvenirNext-DemiBold" font-weight="bold" font-size="30.0" fill="#F6FEFF" transform="matrix(1.00, 0.00, -0.00, -1.00, 133.1, 2.0)"> </text><text xml:space="preserve" font-family="AvenirNext-DemiBold" font-weight="bold" font-size="30.0" fill="#F6FEFF" transform="matrix(1.00, 0.00, -0.00, -1.00, 140.6, 2.0)">s</text><text xml:space="preserve" font-family="AvenirNext-DemiBold" font-weight="bold" font-size="30.0" fill="#F6FEFF" transform="matrix(1.00, 0.00, -0.00, -1.00, 153.9, 2.0)">o</text><text xml:space="preserve" font-family="AvenirNext-DemiBold" font-weight="bold" font-size="30.0" fill="#F6FEFF" transform="matrix(1.00, 0.00, -0.00, -1.00, 172.2, 2.0)">m</text><text xml:space="preserve" font-family="AvenirNext-DemiBold" font-weight="bold" font-size="30.0" fill="#F6FEFF" transform="matrix(1.00, 0.00, -0.00, -1.00, 198.9, 2.0)">e</text><text xml:space="preserve" font-family="AvenirNext-DemiBold" font-weight="bold" font-size="30.0" fill="#F6FEFF" transform="matrix(1.00, 0.00, -0.00, -1.00, 216.1, 2.0)"> </text><text xml:space="preserve" font-family="AvenirNext-DemiBold" font-weight="bold" font-size="30.0" fill="#F6FEFF" transform="matrix(1.00, 0.00, -0.00, -1.00, 223.6, 2.0)">c</text><text xml:space="preserve" font-family="AvenirNext-DemiBold" font-weight="bold" font-size="30.0" fill="#F6FEFF" transform="matrix(1.00, 0.00, -0.00, -1.00, 238.2, 2.0)">o</text><text xml:space="preserve" font-family="AvenirNext-DemiBold" font-weight="bold" font-size="30.0" fill="#F6FEFF" transform="matrix(1.00, 0.00, -0.00, -1.00, 256.5, 2.0)">n</text><text xml:space="preserve" font-family="AvenirNext-DemiBold" font-weight="bold" font-size="30.0" fill="#F6FEFF" transform="matrix(1.00, 0.00, -0.00, -1.00, 274.0, 2.0)">t</text><text xml:space="preserve" font-family="AvenirNext-DemiBold" font-weight="bold" font-size="30.0" fill="#F6FEFF" transform="matrix(1.00, 0.00, -0.00, -1.00, 284.2, 2.0)">r</text><text xml:space="preserve" font-family="AvenirNext-DemiBold" font-weight="bold" font-size="30.0" fill="#F6FEFF" transform="matrix(1.00, 0.00, -0.00, -1.00, 294.6, 2.0)">o</text><text xml:space="preserve" font-family="AvenirNext-DemiBold" font-weight="bold" font-size="30.0" fill="#F6FEFF" transform="matrix(1.00, 0.00, -0.00, -1.00, 312.9, 2.0)">l</text><text xml:space="preserve" font-family="AvenirNext-DemiBold" font-weight="bold" font-size="30.0" fill="#F6FEFF" transform="matrix(1.00, 0.00, -0.00, -1.00, 320.9, 2.0)">!</text><text xml:space="preserve" font-family="AvenirNext-DemiBold" font-weight="bold" font-size="30.0" fill="#F6FEFF" transform="matrix(1.00, 0.00, -0.00, -1.00, 331.1, 2.0)">!</text></g></svg>