<?xml version="1.0" encoding="UTF-8" standalone="no"?><svg xmlns="http://www.w3.org/2000/svg" xmlns:xlink="http://www.w3.org/1999/xlink" clip-rule="evenodd" stroke-miterlimit="4.00" viewBox="0 0 1024 768"><desc>SVG generated by Keynote</desc><defs></defs><g transform="matrix(1.00, 0.00, -0.00, -1.00, 0.0, 768.0)"><path d="M 0.0 768.0 L 1024.0 768.0 L 1024.0 0.0 L 0.0 0.0 Z M 0.0 768.0 " fill="#212121"></path><text xml:space="preserve" font-family="Corbel-Bold" font-weight="bold" font-size="70.4" fill="#34A4DA" transform="matrix(1.00, 0.00, -0.00, -1.00, 8.0, 699.0)">n</text><text xml:space="preserve" font-family="Corbel-Bold" font-weight="bold" font-size="70.4" fill="#34A4DA" transform="matrix(1.00, 0.00, -0.00, -1.00, 47.0, 699.0)">g</text><text xml:space="preserve" font-family="Corbel-Bold" font-weight="bold" font-size="70.4" fill="#34A4DA" transform="matrix(1.00, 0.00, -0.00, -1.00, 85.7, 699.0)">-</text><text xml:space="preserve" font-family="Corbel-Bold" font-weight="bold" font-size="70.4" fill="#34A4DA" transform="matrix(1.00, 0.00, -0.00, -1.00, 109.1, 699.0)">b</text><text xml:space="preserve" font-family="Corbel-Bold" font-weight="bold" font-size="70.4" fill="#34A4DA" transform="matrix(1.00, 0.00, -0.00, -1.00, 148.3, 699.0)">e</text><text xml:space="preserve" font-family="Corbel-Bold" font-weight="bold" font-size="70.4" fill="#34A4DA" transform="matrix(1.00, 0.00, -0.00, -1.00, 184.4, 699.0)">s</text><text xml:space="preserve" font-family="Corbel-Bold" font-weight="bold" font-size="70.4" fill="#34A4DA" transform="matrix(1.00, 0.00, -0.00, -1.00, 214.2, 699.0)">t</text><text xml:space="preserve" font-family="Corbel-Bold" font-weight="bold" font-size="70.4" fill="#34A4DA" transform="matrix(1.00, 0.00, -0.00, -1.00, 239.5, 699.0)">-</text><text xml:space="preserve" font-family="Corbel-Bold" font-weight="bold" font-size="70.4" fill="#34A4DA" transform="matrix(1.00, 0.00, -0.00, -1.00, 262.9, 699.0)">p</text><text xml:space="preserve" font-family="Corbel-Bold" font-weight="bold" font-size="70.4" fill="#34A4DA" transform="matrix(1.00, 0.00, -0.00, -1.00, 301.6, 699.0)">r</text><text xml:space="preserve" font-family="Corbel-Bold" font-weight="bold" font-size="70.4" fill="#34A4DA" transform="matrix(1.00, 0.00, -0.00, -1.00, 326.2, 699.0)">a</text><text xml:space="preserve" font-family="Corbel-Bold" font-weight="bold" font-size="70.4" fill="#34A4DA" transform="matrix(1.00, 0.00, -0.00, -1.00, 362.4, 699.0)">c</text><text xml:space="preserve" font-family="Corbel-Bold" font-weight="bold" font-size="70.4" fill="#34A4DA" transform="matrix(1.00, 0.00, -0.00, -1.00, 393.4, 699.0)">t</text><text xml:space="preserve" font-family="Corbel-Bold" font-weight="bold" font-size="70.4" fill="#34A4DA" transform="matrix(1.00, 0.00, -0.00, -1.00, 420.2, 699.0)">i</text><text xml:space="preserve" font-family="Corbel-Bold" font-weight="bold" font-size="70.4" fill="#34A4DA" transform="matrix(1.00, 0.00, -0.00, -1.00, 437.7, 699.0)">c</text><text xml:space="preserve" font-family="Corbel-Bold" font-weight="bold" font-size="70.4" fill="#34A4DA" transform="matrix(1.00, 0.00, -0.00, -1.00, 468.7, 699.0)">e</text><text xml:space="preserve" font-family="Corbel-Bold" font-weight="bold" font-size="70.4" fill="#34A4DA" transform="matrix(1.00, 0.00, -0.00, -1.00, 504.8, 699.0)">s</text><path d="M 0.0 0.0 L 1037.2 0.0 " fill="none" stroke="#34A4DA" stroke-width="1.00" transform="matrix(1.00, 0.00, 0.00, -1.00, 1.5, 665.0)"></path><text xml:space="preserve" font-family="AvenirNext-DemiBold" font-weight="bold" font-size="30.0" fill="#F6FEFF" transform="matrix(1.00, 0.00, -0.00, -1.00, 458.0, 468.0)">1</text><text xml:space="preserve" font-family="AvenirNext-DemiBold" font-weight="bold" font-size="30.0" fill="#F6FEFF" transform="matrix(1.00, 0.00, -0.00, -1.00, 476.3, 468.0)"> </text><text xml:space="preserve" font-family="AvenirNext-DemiBold" font-weight="bold" font-size="30.0" fill="#F6FEFF" transform="matrix(1.00, 0.00, -0.00, -1.00, 483.8, 468.0)">p</text><text xml:space="preserve" font-family="AvenirNext-DemiBold" font-weight="bold" font-size="30.0" fill="#F6FEFF" transform="matrix(1.00, 0.00, -0.00, -1.00, 502.8, 468.0)">r</text><text xml:space="preserve" font-family="AvenirNext-DemiBold" font-weight="bold" font-size="30.0" fill="#F6FEFF" transform="matrix(1.00, 0.00, -0.00, -1.00, 513.2, 468.0)">o</text><text xml:space="preserve" font-family="AvenirNext-DemiBold" font-weight="bold" font-size="30.0" fill="#F6FEFF" transform="matrix(1.00, 0.00, -0.00, -1.00, 531.5, 468.0)">j</text><text xml:space="preserve" font-family="AvenirNext-DemiBold" font-weight="bold" font-size="30.0" fill="#F6FEFF" transform="matrix(1.00, 0.00, -0.00, -1.00, 539.5, 468.0)">e</text><text xml:space="preserve" font-family="AvenirNext-DemiBold" font-weight="bold" font-size="30.0" fill="#F6FEFF" transform="matrix(1.00, 0.00, -0.00, -1.00, 556.7, 468.0)">c</text><text xml:space="preserve" font-family="AvenirNext-DemiBold" font-weight="bold" font-size="30.0" fill="#F6FEFF" transform="matrix(1.00, 0.00, -0.00, -1.00, 571.4, 468.0)">t</text><text xml:space="preserve" font-family="AvenirNext-DemiBold" font-weight="bold" font-size="30.0" fill="#F6FEFF" transform="matrix(1.00, 0.00, -0.00, -1.00, 420.0, 421.0)">1</text><text xml:space="preserve" font-family="AvenirNext-DemiBold" font-weight="bold" font-size="30.0" fill="#F6FEFF" transform="matrix(1.00, 0.00, -0.00, -1.00, 438.3, 421.0)">6</text><text xml:space="preserve" font-family="AvenirNext-DemiBold" font-weight="bold" font-size="30.0" fill="#F6FEFF" transform="matrix(1.00, 0.00, -0.00, -1.00, 456.6, 421.0)"> </text><text xml:space="preserve" font-family="AvenirNext-DemiBold" font-weight="bold" font-size="30.0" fill="#F6FEFF" transform="matrix(1.00, 0.00, -0.00, -1.00, 464.1, 421.0)">d</text><text xml:space="preserve" font-family="AvenirNext-DemiBold" font-weight="bold" font-size="30.0" fill="#F6FEFF" transform="matrix(1.00, 0.00, -0.00, -1.00, 483.1, 421.0)">e</text><text xml:space="preserve" font-family="AvenirNext-DemiBold" font-weight="bold" font-size="30.0" fill="#F6FEFF" transform="matrix(1.00, 0.00, -0.00, -1.00, 500.3, 421.0)">v</text><text xml:space="preserve" font-family="AvenirNext-DemiBold" font-weight="bold" font-size="30.0" fill="#F6FEFF" transform="matrix(1.00, 0.00, -0.00, -1.00, 515.7, 421.0)">e</text><text xml:space="preserve" font-family="AvenirNext-DemiBold" font-weight="bold" font-size="30.0" fill="#F6FEFF" transform="matrix(1.00, 0.00, -0.00, -1.00, 533.0, 421.0)">l</text><text xml:space="preserve" font-family="AvenirNext-DemiBold" font-weight="bold" font-size="30.0" fill="#F6FEFF" transform="matrix(1.00, 0.00, -0.00, -1.00, 541.0, 421.0)">o</text><text xml:space="preserve" font-family="AvenirNext-DemiBold" font-weight="bold" font-size="30.0" fill="#F6FEFF" transform="matrix(1.00, 0.00, -0.00, -1.00, 559.3, 421.0)">p</text><text xml:space="preserve" font-family="AvenirNext-DemiBold" font-weight="bold" font-size="30.0" fill="#F6FEFF" transform="matrix(1.00, 0.00, -0.00, -1.00, 578.3, 421.0)">e</text><text xml:space="preserve" font-family="AvenirNext-DemiBold" font-weight="bold" font-size="30.0" fill="#F6FEFF" transform="matrix(1.00, 0.00, -0.00, -1.00, 595.5, 421.0)">r</text><text xml:space="preserve" font-family="AvenirNext-DemiBold" font-weight="bold" font-size="30.0" fill="#F6FEFF" transform="matrix(1.00, 0.00, -0.00, -1.00, 606.4, 421.0)">s</text><text xml:space="preserve" font-family="AvenirNext-DemiBold" font-weight="bold" font-size="30.0" fill="#F6FEFF" transform="matrix(1.00, 0.00, -0.00, -1.00, 401.0, 374.0)">1</text><text xml:space="preserve" font-family="AvenirNext-DemiBold" font-weight="bold" font-size="30.0" fill="#F6FEFF" transform="matrix(1.00, 0.00, -0.00, -1.00, 419.3, 374.0)">4</text><text xml:space="preserve" font-family="AvenirNext-DemiBold" font-weight="bold" font-size="30.0" fill="#F6FEFF" transform="matrix(1.00, 0.00, -0.00, -1.00, 437.6, 374.0)">k</text><text xml:space="preserve" font-family="AvenirNext-DemiBold" font-weight="bold" font-size="30.0" fill="#F6FEFF" transform="matrix(1.00, 0.00, -0.00, -1.00, 453.9, 374.0)"> </text><text xml:space="preserve" font-family="AvenirNext-DemiBold" font-weight="bold" font-size="30.0" fill="#F6FEFF" transform="matrix(1.00, 0.00, -0.00, -1.00, 461.4, 374.0)">l</text><text xml:space="preserve" font-family="AvenirNext-DemiBold" font-weight="bold" font-size="30.0" fill="#F6FEFF" transform="matrix(1.00, 0.00, -0.00, -1.00, 469.4, 374.0)">i</text><text xml:space="preserve" font-family="AvenirNext-DemiBold" font-weight="bold" font-size="30.0" fill="#F6FEFF" transform="matrix(1.00, 0.00, -0.00, -1.00, 477.5, 374.0)">n</text><text xml:space="preserve" font-family="AvenirNext-DemiBold" font-weight="bold" font-size="30.0" fill="#F6FEFF" transform="matrix(1.00, 0.00, -0.00, -1.00, 494.9, 374.0)">e</text><text xml:space="preserve" font-family="AvenirNext-DemiBold" font-weight="bold" font-size="30.0" fill="#F6FEFF" transform="matrix(1.00, 0.00, -0.00, -1.00, 512.1, 374.0)">s</text><text xml:space="preserve" font-family="AvenirNext-DemiBold" font-weight="bold" font-size="30.0" fill="#F6FEFF" transform="matrix(1.00, 0.00, -0.00, -1.00, 525.5, 374.0)"> </text><text xml:space="preserve" font-family="AvenirNext-DemiBold" font-weight="bold" font-size="30.0" fill="#F6FEFF" transform="matrix(1.00, 0.00, -0.00, -1.00, 533.0, 374.0)">o</text><text xml:space="preserve" font-family="AvenirNext-DemiBold" font-weight="bold" font-size="30.0" fill="#F6FEFF" transform="matrix(1.00, 0.00, -0.00, -1.00, 551.3, 374.0)">f</text><text xml:space="preserve" font-family="AvenirNext-DemiBold" font-weight="bold" font-size="30.0" fill="#F6FEFF" transform="matrix(1.00, 0.00, -0.00, -1.00, 561.7, 374.0)"> </text><text xml:space="preserve" font-family="AvenirNext-DemiBold" font-weight="bold" font-size="30.0" fill="#F6FEFF" transform="matrix(1.00, 0.00, -0.00, -1.00, 569.2, 374.0)">c</text><text xml:space="preserve" font-family="AvenirNext-DemiBold" font-weight="bold" font-size="30.0" fill="#F6FEFF" transform="matrix(1.00, 0.00, -0.00, -1.00, 583.9, 374.0)">o</text><text xml:space="preserve" font-family="AvenirNext-DemiBold" font-weight="bold" font-size="30.0" fill="#F6FEFF" transform="matrix(1.00, 0.00, -0.00, -1.00, 602.1, 374.0)">d</text><text xml:space="preserve" font-family="AvenirNext-DemiBold" font-weight="bold" font-size="30.0" fill="#F6FEFF" transform="matrix(1.00, 0.00, -0.00, -1.00, 621.2, 374.0)">e</text><text xml:space="preserve" font-family="AvenirNext-DemiBold" font-weight="bold" font-size="30.0" fill="#F6FEFF" transform="matrix(1.00, 0.00, -0.00, -1.00, 385.0, 327.0)">5</text><text xml:space="preserve" font-family="AvenirNext-DemiBold" font-weight="bold" font-size="30.0" fill="#F6FEFF" transform="matrix(1.00, 0.00, -0.00, -1.00, 403.3, 327.0)">,</text><text xml:space="preserve" font-family="AvenirNext-DemiBold" font-weight="bold" font-size="30.0" fill="#F6FEFF" transform="matrix(1.00, 0.00, -0.00, -1.00, 411.1, 327.0)">0</text><text xml:space="preserve" font-family="AvenirNext-DemiBold" font-weight="bold" font-size="30.0" fill="#F6FEFF" transform="matrix(1.00, 0.00, -0.00, -1.00, 429.4, 327.0)">0</text><text xml:space="preserve" font-family="AvenirNext-DemiBold" font-weight="bold" font-size="30.0" fill="#F6FEFF" transform="matrix(1.00, 0.00, -0.00, -1.00, 447.7, 327.0)">0</text><text xml:space="preserve" font-family="AvenirNext-DemiBold" font-weight="bold" font-size="30.0" fill="#F6FEFF" transform="matrix(1.00, 0.00, -0.00, -1.00, 466.0, 327.0)">+</text><text xml:space="preserve" font-family="AvenirNext-DemiBold" font-weight="bold" font-size="30.0" fill="#F6FEFF" transform="matrix(1.00, 0.00, -0.00, -1.00, 486.0, 327.0)"> </text><text xml:space="preserve" font-family="AvenirNext-DemiBold" font-weight="bold" font-size="30.0" fill="#F6FEFF" transform="matrix(1.00, 0.00, -0.00, -1.00, 493.5, 327.0)">h</text><text xml:space="preserve" font-family="AvenirNext-DemiBold" font-weight="bold" font-size="30.0" fill="#F6FEFF" transform="matrix(1.00, 0.00, -0.00, -1.00, 511.0, 327.0)">o</text><text xml:space="preserve" font-family="AvenirNext-DemiBold" font-weight="bold" font-size="30.0" fill="#F6FEFF" transform="matrix(1.00, 0.00, -0.00, -1.00, 529.3, 327.0)">u</text><text xml:space="preserve" font-family="AvenirNext-DemiBold" font-weight="bold" font-size="30.0" fill="#F6FEFF" transform="matrix(1.00, 0.00, -0.00, -1.00, 546.8, 327.0)">r</text><text xml:space="preserve" font-family="AvenirNext-DemiBold" font-weight="bold" font-size="30.0" fill="#F6FEFF" transform="matrix(1.00, 0.00, -0.00, -1.00, 557.7, 327.0)">s</text><text xml:space="preserve" font-family="AvenirNext-DemiBold" font-weight="bold" font-size="30.0" fill="#F6FEFF" transform="matrix(1.00, 0.00, -0.00, -1.00, 571.0, 327.0)"> </text><text xml:space="preserve" font-family="AvenirNext-DemiBold" font-weight="bold" font-size="30.0" fill="#F6FEFF" transform="matrix(1.00, 0.00, -0.00, -1.00, 578.5, 327.0)">s</text><text xml:space="preserve" font-family="AvenirNext-DemiBold" font-weight="bold" font-size="30.0" fill="#F6FEFF" transform="matrix(1.00, 0.00, -0.00, -1.00, 591.8, 327.0)">p</text><text xml:space="preserve" font-family="AvenirNext-DemiBold" font-weight="bold" font-size="30.0" fill="#F6FEFF" transform="matrix(1.00, 0.00, -0.00, -1.00, 610.8, 327.0)">e</text><text xml:space="preserve" font-family="AvenirNext-DemiBold" font-weight="bold" font-size="30.0" fill="#F6FEFF" transform="matrix(1.00, 0.00, -0.00, -1.00, 628.0, 327.0)">n</text><text xml:space="preserve" font-family="AvenirNext-DemiBold" font-weight="bold" font-size="30.0" fill="#F6FEFF" transform="matrix(1.00, 0.00, -0.00, -1.00, 645.5, 327.0)">t</text><text xml:space="preserve" font-family="AvenirNext-DemiBold" font-weight="bold" font-size="30.0" fill="#F6FEFF" transform="matrix(1.00, 0.00, -0.00, -1.00, 351.0, 280.0)">Y</text><text xml:space="preserve" font-family="AvenirNext-DemiBold" font-weight="bold" font-size="30.0" fill="#F6FEFF" transform="matrix(1.00, 0.00, -0.00, -1.00, 366.9, 280.0)">o</text><text xml:space="preserve" font-family="AvenirNext-DemiBold" font-weight="bold" font-size="30.0" fill="#F6FEFF" transform="matrix(1.00, 0.00, -0.00, -1.00, 385.2, 280.0)">u</text><text xml:space="preserve" font-family="AvenirNext-DemiBold" font-weight="bold" font-size="30.0" fill="#F6FEFF" transform="matrix(1.00, 0.00, -0.00, -1.00, 402.6, 280.0)"> </text><text xml:space="preserve" font-family="AvenirNext-DemiBold" font-weight="bold" font-size="30.0" fill="#F6FEFF" transform="matrix(1.00, 0.00, -0.00, -1.00, 410.1, 280.0)">n</text><text xml:space="preserve" font-family="AvenirNext-DemiBold" font-weight="bold" font-size="30.0" fill="#F6FEFF" transform="matrix(1.00, 0.00, -0.00, -1.00, 427.6, 280.0)">e</text><text xml:space="preserve" font-family="AvenirNext-DemiBold" font-weight="bold" font-size="30.0" fill="#F6FEFF" transform="matrix(1.00, 0.00, -0.00, -1.00, 444.8, 280.0)">e</text><text xml:space="preserve" font-family="AvenirNext-DemiBold" font-weight="bold" font-size="30.0" fill="#F6FEFF" transform="matrix(1.00, 0.00, -0.00, -1.00, 462.0, 280.0)">d</text><text xml:space="preserve" font-family="AvenirNext-DemiBold" font-weight="bold" font-size="30.0" fill="#F6FEFF" transform="matrix(1.00, 0.00, -0.00, -1.00, 481.1, 280.0)"> </text><text xml:space="preserve" font-family="AvenirNext-DemiBold" font-weight="bold" font-size="30.0" fill="#F6FEFF" transform="matrix(1.00, 0.00, -0.00, -1.00, 488.6, 280.0)">s</text><text xml:space="preserve" font-family="AvenirNext-DemiBold" font-weight="bold" font-size="30.0" fill="#F6FEFF" transform="matrix(1.00, 0.00, -0.00, -1.00, 501.9, 280.0)">o</text><text xml:space="preserve" font-family="AvenirNext-DemiBold" font-weight="bold" font-size="30.0" fill="#F6FEFF" transform="matrix(1.00, 0.00, -0.00, -1.00, 520.2, 280.0)">m</text><text xml:space="preserve" font-family="AvenirNext-DemiBold" font-weight="bold" font-size="30.0" fill="#F6FEFF" transform="matrix(1.00, 0.00, -0.00, -1.00, 546.9, 280.0)">e</text><text xml:space="preserve" font-family="AvenirNext-DemiBold" font-weight="bold" font-size="30.0" fill="#F6FEFF" transform="matrix(1.00, 0.00, -0.00, -1.00, 564.1, 280.0)"> </text><text xml:space="preserve" font-family="AvenirNext-DemiBold" font-weight="bold" font-size="30.0" fill="#F6FEFF" transform="matrix(1.00, 0.00, -0.00, -1.00, 571.6, 280.0)">c</text><text xml:space="preserve" font-family="AvenirNext-DemiBold" font-weight="bold" font-size="30.0" fill="#F6FEFF" transform="matrix(1.00, 0.00, -0.00, -1.00, 586.2, 280.0)">o</text><text xml:space="preserve" font-family="AvenirNext-DemiBold" font-weight="bold" font-size="30.0" fill="#F6FEFF" transform="matrix(1.00, 0.00, -0.00, -1.00, 604.5, 280.0)">n</text><text xml:space="preserve" font-family="AvenirNext-DemiBold" font-weight="bold" font-size="30.0" fill="#F6FEFF" transform="matrix(1.00, 0.00, -0.00, -1.00, 622.0, 280.0)">t</text><text xml:space="preserve" font-family="AvenirNext-DemiBold" font-weight="bold" font-size="30.0" fill="#F6FEFF" transform="matrix(1.00, 0.00, -0.00, -1.00, 632.2, 280.0)">r</text><text xml:space="preserve" font-family="AvenirNext-DemiBold" font-weight="bold" font-size="30.0" fill="#F6FEFF" transform="matrix(1.00, 0.00, -0.00, -1.00, 642.6, 280.0)">o</text><text xml:space="preserve" font-family="AvenirNext-DemiBold" font-weight="bold" font-size="30.0" fill="#F6FEFF" transform="matrix(1.00, 0.00, -0.00, -1.00, 660.9, 280.0)">l</text><text xml:space="preserve" font-family="AvenirNext-DemiBold" font-weight="bold" font-size="30.0" fill="#F6FEFF" transform="matrix(1.00, 0.00, -0.00, -1.00, 668.9, 280.0)">!</text><text xml:space="preserve" font-family="AvenirNext-DemiBold" font-weight="bold" font-size="30.0" fill="#F6FEFF" transform="matrix(1.00, 0.00, -0.00, -1.00, 679.1, 280.0)">!</text></g></svg>