<?xml version="1.0" encoding="UTF-8" standalone="no"?><svg xmlns="http://www.w3.org/2000/svg" xmlns:xlink="http://www.w3.org/1999/xlink" clip-rule="evenodd" stroke-miterlimit="4.00" viewBox="0 0 483 56"><desc>SVG generated by Keynote</desc><defs></defs><g transform="matrix(1.00, 0.00, -0.00, -1.00, 0.0, 56.0)"><text xml:space="preserve" font-family="AvenirNext-DemiBold" font-weight="bold" font-size="24.0" fill="#F6FEFF" transform="matrix(1.00, 0.00, -0.00, -1.00, 1.0, 35.0)">C</text><text xml:space="preserve" font-family="AvenirNext-DemiBold" font-weight="bold" font-size="24.0" fill="#F6FEFF" transform="matrix(1.00, 0.00, -0.00, -1.00, 17.7, 35.0)">r</text><text xml:space="preserve" font-family="AvenirNext-DemiBold" font-weight="bold" font-size="24.0" fill="#F6FEFF" transform="matrix(1.00, 0.00, -0.00, -1.00, 26.0, 35.0)">e</text><text xml:space="preserve" font-family="AvenirNext-DemiBold" font-weight="bold" font-size="24.0" fill="#F6FEFF" transform="matrix(1.00, 0.00, -0.00, -1.00, 39.6, 35.0)">a</text><text xml:space="preserve" font-family="AvenirNext-DemiBold" font-weight="bold" font-size="24.0" fill="#F6FEFF" transform="matrix(1.00, 0.00, -0.00, -1.00, 52.6, 35.0)">t</text><text xml:space="preserve" font-family="AvenirNext-DemiBold" font-weight="bold" font-size="24.0" fill="#F6FEFF" transform="matrix(1.00, 0.00, -0.00, -1.00, 60.8, 35.0)">e</text><text xml:space="preserve" font-family="AvenirNext-DemiBold" font-weight="bold" font-size="24.0" fill="#F6FEFF" transform="matrix(1.00, 0.00, -0.00, -1.00, 74.5, 35.0)"> </text><text xml:space="preserve" font-family="AvenirNext-DemiBold" font-weight="bold" font-size="24.0" fill="#F6FEFF" transform="matrix(1.00, 0.00, -0.00, -1.00, 80.5, 35.0)">a</text><text xml:space="preserve" font-family="AvenirNext-DemiBold" font-weight="bold" font-size="24.0" fill="#F6FEFF" transform="matrix(1.00, 0.00, -0.00, -1.00, 93.7, 35.0)"> </text><text xml:space="preserve" font-family="AvenirNext-DemiBold" font-weight="bold" font-size="24.0" fill="#F6FEFF" transform="matrix(1.00, 0.00, -0.00, -1.00, 99.7, 35.0)">f</text><text xml:space="preserve" font-family="AvenirNext-DemiBold" font-weight="bold" font-size="24.0" fill="#F6FEFF" transform="matrix(1.00, 0.00, -0.00, -1.00, 107.5, 35.0)">o</text><text xml:space="preserve" font-family="AvenirNext-DemiBold" font-weight="bold" font-size="24.0" fill="#F6FEFF" transform="matrix(1.00, 0.00, -0.00, -1.00, 122.2, 35.0)">r</text><text xml:space="preserve" font-family="AvenirNext-DemiBold" font-weight="bold" font-size="24.0" fill="#F6FEFF" transform="matrix(1.00, 0.00, -0.00, -1.00, 130.9, 35.0)">m</text><text xml:space="preserve" font-family="AvenirNext-DemiBold" font-weight="bold" font-size="24.0" fill="#F6FEFF" transform="matrix(1.00, 0.00, -0.00, -1.00, 152.2, 35.0)">a</text><text xml:space="preserve" font-family="AvenirNext-DemiBold" font-weight="bold" font-size="24.0" fill="#F6FEFF" transform="matrix(1.00, 0.00, -0.00, -1.00, 165.2, 35.0)">t</text><text xml:space="preserve" font-family="AvenirNext-DemiBold" font-weight="bold" font-size="24.0" fill="#F6FEFF" transform="matrix(1.00, 0.00, -0.00, -1.00, 173.4, 35.0)">I</text><text xml:space="preserve" font-family="AvenirNext-DemiBold" font-weight="bold" font-size="24.0" fill="#F6FEFF" transform="matrix(1.00, 0.00, -0.00, -1.00, 180.1, 35.0)">t</text><text xml:space="preserve" font-family="AvenirNext-DemiBold" font-weight="bold" font-size="24.0" fill="#F6FEFF" transform="matrix(1.00, 0.00, -0.00, -1.00, 188.3, 35.0)">e</text><text xml:space="preserve" font-family="AvenirNext-DemiBold" font-weight="bold" font-size="24.0" fill="#F6FEFF" transform="matrix(1.00, 0.00, -0.00, -1.00, 202.1, 35.0)">m</text><text xml:space="preserve" font-family="AvenirNext-DemiBold" font-weight="bold" font-size="24.0" fill="#F6FEFF" transform="matrix(1.00, 0.00, -0.00, -1.00, 223.4, 35.0)"> </text><text xml:space="preserve" font-family="AvenirNext-DemiBold" font-weight="bold" font-size="24.0" fill="#F6FEFF" transform="matrix(1.00, 0.00, -0.00, -1.00, 229.4, 35.0)">d</text><text xml:space="preserve" font-family="AvenirNext-DemiBold" font-weight="bold" font-size="24.0" fill="#F6FEFF" transform="matrix(1.00, 0.00, -0.00, -1.00, 244.6, 35.0)">i</text><text xml:space="preserve" font-family="AvenirNext-DemiBold" font-weight="bold" font-size="24.0" fill="#F6FEFF" transform="matrix(1.00, 0.00, -0.00, -1.00, 251.1, 35.0)">r</text><text xml:space="preserve" font-family="AvenirNext-DemiBold" font-weight="bold" font-size="24.0" fill="#F6FEFF" transform="matrix(1.00, 0.00, -0.00, -1.00, 259.4, 35.0)">e</text><text xml:space="preserve" font-family="AvenirNext-DemiBold" font-weight="bold" font-size="24.0" fill="#F6FEFF" transform="matrix(1.00, 0.00, -0.00, -1.00, 273.2, 35.0)">c</text><text xml:space="preserve" font-family="AvenirNext-DemiBold" font-weight="bold" font-size="24.0" fill="#F6FEFF" transform="matrix(1.00, 0.00, -0.00, -1.00, 284.9, 35.0)">t</text><text xml:space="preserve" font-family="AvenirNext-DemiBold" font-weight="bold" font-size="24.0" fill="#F6FEFF" transform="matrix(1.00, 0.00, -0.00, -1.00, 293.0, 35.0)">i</text><text xml:space="preserve" font-family="AvenirNext-DemiBold" font-weight="bold" font-size="24.0" fill="#F6FEFF" transform="matrix(1.00, 0.00, -0.00, -1.00, 299.5, 35.0)">v</text><text xml:space="preserve" font-family="AvenirNext-DemiBold" font-weight="bold" font-size="24.0" fill="#F6FEFF" transform="matrix(1.00, 0.00, -0.00, -1.00, 311.8, 35.0)">e</text><text xml:space="preserve" font-family="AvenirNext-DemiBold" font-weight="bold" font-size="24.0" fill="#F6FEFF" transform="matrix(1.00, 0.00, -0.00, -1.00, 325.6, 35.0)"> </text><text xml:space="preserve" font-family="AvenirNext-DemiBold" font-weight="bold" font-size="24.0" fill="#F6FEFF" transform="matrix(1.00, 0.00, -0.00, -1.00, 331.6, 35.0)">w</text><text xml:space="preserve" font-family="AvenirNext-DemiBold" font-weight="bold" font-size="24.0" fill="#F6FEFF" transform="matrix(1.00, 0.00, -0.00, -1.00, 350.8, 35.0)">i</text><text xml:space="preserve" font-family="AvenirNext-DemiBold" font-weight="bold" font-size="24.0" fill="#F6FEFF" transform="matrix(1.00, 0.00, -0.00, -1.00, 357.3, 35.0)">t</text><text xml:space="preserve" font-family="AvenirNext-DemiBold" font-weight="bold" font-size="24.0" fill="#F6FEFF" transform="matrix(1.00, 0.00, -0.00, -1.00, 365.4, 35.0)">h</text><text xml:space="preserve" font-family="AvenirNext-DemiBold" font-weight="bold" font-size="24.0" fill="#F6FEFF" transform="matrix(1.00, 0.00, -0.00, -1.00, 379.5, 35.0)"> </text><text xml:space="preserve" font-family="AvenirNext-DemiBold" font-weight="bold" font-size="24.0" fill="#F6FEFF" transform="matrix(1.00, 0.00, -0.00, -1.00, 385.5, 35.0)">c</text><text xml:space="preserve" font-family="AvenirNext-DemiBold" font-weight="bold" font-size="24.0" fill="#F6FEFF" transform="matrix(1.00, 0.00, -0.00, -1.00, 397.2, 35.0)">o</text><text xml:space="preserve" font-family="AvenirNext-DemiBold" font-weight="bold" font-size="24.0" fill="#F6FEFF" transform="matrix(1.00, 0.00, -0.00, -1.00, 411.8, 35.0)">m</text><text xml:space="preserve" font-family="AvenirNext-DemiBold" font-weight="bold" font-size="24.0" fill="#F6FEFF" transform="matrix(1.00, 0.00, -0.00, -1.00, 433.2, 35.0)">p</text><text xml:space="preserve" font-family="AvenirNext-DemiBold" font-weight="bold" font-size="24.0" fill="#F6FEFF" transform="matrix(1.00, 0.00, -0.00, -1.00, 448.4, 35.0)">l</text><text xml:space="preserve" font-family="AvenirNext-DemiBold" font-weight="bold" font-size="24.0" fill="#F6FEFF" transform="matrix(1.00, 0.00, -0.00, -1.00, 454.8, 35.0)">e</text><text xml:space="preserve" font-family="AvenirNext-DemiBold" font-weight="bold" font-size="24.0" fill="#F6FEFF" transform="matrix(1.00, 0.00, -0.00, -1.00, 468.3, 35.0)">x</text><text xml:space="preserve" font-family="AvenirNext-DemiBold" font-weight="bold" font-size="24.0" fill="#F6FEFF" transform="matrix(1.00, 0.00, -0.00, -1.00, 481.2, 35.0)"> </text><text xml:space="preserve" font-family="AvenirNext-DemiBold" font-weight="bold" font-size="24.0" fill="#F6FEFF" transform="matrix(1.00, 0.00, -0.00, -1.00, 1.0, 2.0)">c</text><text xml:space="preserve" font-family="AvenirNext-DemiBold" font-weight="bold" font-size="24.0" fill="#F6FEFF" transform="matrix(1.00, 0.00, -0.00, -1.00, 12.7, 2.0)">o</text><text xml:space="preserve" font-family="AvenirNext-DemiBold" font-weight="bold" font-size="24.0" fill="#F6FEFF" transform="matrix(1.00, 0.00, -0.00, -1.00, 27.4, 2.0)">n</text><text xml:space="preserve" font-family="AvenirNext-DemiBold" font-weight="bold" font-size="24.0" fill="#F6FEFF" transform="matrix(1.00, 0.00, -0.00, -1.00, 41.3, 2.0)">d</text><text xml:space="preserve" font-family="AvenirNext-DemiBold" font-weight="bold" font-size="24.0" fill="#F6FEFF" transform="matrix(1.00, 0.00, -0.00, -1.00, 56.5, 2.0)">i</text><text xml:space="preserve" font-family="AvenirNext-DemiBold" font-weight="bold" font-size="24.0" fill="#F6FEFF" transform="matrix(1.00, 0.00, -0.00, -1.00, 63.0, 2.0)">t</text><text xml:space="preserve" font-family="AvenirNext-DemiBold" font-weight="bold" font-size="24.0" fill="#F6FEFF" transform="matrix(1.00, 0.00, -0.00, -1.00, 71.1, 2.0)">i</text><text xml:space="preserve" font-family="AvenirNext-DemiBold" font-weight="bold" font-size="24.0" fill="#F6FEFF" transform="matrix(1.00, 0.00, -0.00, -1.00, 77.6, 2.0)">o</text><text xml:space="preserve" font-family="AvenirNext-DemiBold" font-weight="bold" font-size="24.0" fill="#F6FEFF" transform="matrix(1.00, 0.00, -0.00, -1.00, 92.2, 2.0)">n</text><text xml:space="preserve" font-family="AvenirNext-DemiBold" font-weight="bold" font-size="24.0" fill="#F6FEFF" transform="matrix(1.00, 0.00, -0.00, -1.00, 106.2, 2.0)">s</text><text xml:space="preserve" font-family="AvenirNext-DemiBold" font-weight="bold" font-size="24.0" fill="#F6FEFF" transform="matrix(1.00, 0.00, -0.00, -1.00, 116.8, 2.0)">!</text><text xml:space="preserve" font-family="AvenirNext-DemiBold" font-weight="bold" font-size="24.0" fill="#F6FEFF" transform="matrix(1.00, 0.00, -0.00, -1.00, 125.0, 2.0)">!</text></g></svg>